<svg width="1218" height="445" viewBox="0 0 1218 445" fill="none" xmlns="http://www.w3.org/2000/svg">
<g clip-path="url(#clip0_254_5362)">
<path opacity="0.5" d="M820.573 1094.41C1011.08 902.543 983.823 517.327 759.697 234.003C535.571 -49.3206 199.446 -123.464 8.94079 68.3986C-181.565 260.262 -154.31 645.477 69.8158 928.801C293.942 1212.12 630.067 1286.27 820.573 1094.41Z" fill="url(#paint0_radial_254_5362)"/>
<path opacity="0.6" d="M582.54 20.7699C804.667 -129.87 1073.82 -84.7556 1183.7 121.536C1293.59 327.827 1202.6 617.177 980.476 767.817C758.349 918.457 489.199 873.342 379.312 667.051C269.425 460.76 360.414 171.41 582.54 20.7699Z" fill="url(#paint1_radial_254_5362)"/>
</g>
<defs>
<radialGradient id="paint0_radial_254_5362" cx="0" cy="0" r="1" gradientUnits="userSpaceOnUse" gradientTransform="translate(381.428 500.375) rotate(50.8406) scale(607.17 628.489)">
<stop stop-color="#6366F1"/>
<stop offset="0.61998" stop-color="#6366F1" stop-opacity="0"/>
</radialGradient>
<radialGradient id="paint1_radial_254_5362" cx="0" cy="0" r="1" gradientUnits="userSpaceOnUse" gradientTransform="translate(826.211 427.192) rotate(-117.461) scale(351.235 438.679)">
<stop stop-color="#2990F0"/>
<stop offset="0.917496" stop-color="#43A5FF" stop-opacity="0"/>
</radialGradient>
<clipPath id="clip0_254_5362">
<rect width="1218" height="445" fill="white"/>
</clipPath>
</defs>
</svg>
