<svg width="180" height="180" viewBox="0 0 180 180" fill="none" xmlns="http://www.w3.org/2000/svg">
<g clip-path="url(#clip0_4001_2)">
<mask id="mask0_4001_2" style="mask-type:luminance" maskUnits="userSpaceOnUse" x="0" y="0" width="180" height="180">
<path d="M0 0H180V180H0V0Z" fill="white"/>
</mask>
<g mask="url(#mask0_4001_2)">
<path d="M0 0H180V180H0V0Z" fill="#27245C"/>
<path d="M41.7774 75.8021C42.9542 70.6401 48.4162 69.7815 51.0002 69.9973L60.562 57.8113C61.5428 58.0765 65.2694 57.8827 72.3306 54.9857C79.3918 52.0889 85.759 45.4797 88.0598 42.5371C94.0572 41.0283 107.863 38.6895 115.105 41.4053C122.347 44.1211 125.138 53.4741 125.629 57.8113V65.3951C125.629 67.7715 125.063 69.9973 124.724 72.0715C124.384 74.1457 125.176 76.4847 125.629 80.5585C125.991 83.8175 124.724 89.6113 124.045 92.1007C124.082 93.4963 124.135 97.0571 124.045 100.135C123.954 103.213 121.819 107.528 120.763 109.301C122.423 109.452 126.285 110.274 128.458 112.356C131.174 114.959 133.776 125.143 131.626 132.612C129.476 140.08 120.084 151.057 113.973 156.262C109.085 160.426 102.054 164.787 99.1494 166.447L91.794 165.202C84.7028 161.769 69.3658 153.659 64.749 148.68C60.132 143.701 57.0918 135.893 56.1488 132.612L61.3542 126.162V104.888L58.2988 97.3061C56.79 96.5139 52.8674 94.2055 49.2462 91.3087C44.7198 87.6875 40.3066 82.2545 41.7774 75.8021Z" fill="white"/>
<path d="M26.081 144.986L-13.0693 176.923L-10.0726 187.134L171.538 191.255L178 179.922C173.286 171.43 163.22 153.416 160.673 149.294C158.125 145.173 145.562 138.523 139.599 135.713C139.568 133.185 139.131 127.228 137.632 123.631C135.759 119.135 133.23 116.794 129.483 113.516C126.486 110.893 122.927 109.991 121.522 109.867C120.305 111.772 117.682 116.311 116.933 119.233C116.183 122.156 114.685 123.945 114.029 124.474L120.305 128.787C119.93 130.754 118.918 135.493 117.869 138.715C116.558 142.742 113.28 149.018 110.751 152.764C108.728 155.761 108.222 159.321 108.222 160.726L98.575 166.626L86.5864 164.097C80.7168 160.101 68.0788 151.341 64.4822 148.269C60.8856 145.196 57.239 136.811 55.8652 133.002L61.485 125.696L60.7356 116.042C59.5806 115.636 55.678 115.068 49.309 116.042C41.3478 117.26 37.5076 118.761 32.2626 124.474C28.0664 129.045 29.2654 136.495 30.3892 139.649C27.7668 141.147 26.4244 143.831 26.081 144.986Z" fill="url(#paint0_linear_4001_2)"/>
<path d="M111.763 39.5658C104.871 37.4658 93.7666 40.4408 89.0762 42.1908C91.1272 37.6394 106.717 30.213 114.676 28.4882C122.634 26.7632 126.08 27.1754 134.121 28.4882C142.122 29.7944 144.111 32.886 147.122 37.5648L147.167 37.6346C150.203 42.3524 149.382 51.9932 145.362 56.3828C142.146 59.8944 135.954 62.2492 133.26 62.9876L125.506 60.116C125.629 59.0768 125.621 56.0792 124.603 52.4034C123.332 47.8086 120.378 42.1908 111.763 39.5658Z" fill="url(#paint1_linear_4001_2)"/>
<path d="M107.372 97.5198L95.2104 101.647C94.9882 101.723 94.8388 101.931 94.8388 102.166C94.8388 102.468 95.084 102.713 95.3862 102.713H98.0074L104.682 104.604C104.926 104.673 105.176 104.719 105.429 104.741L113.281 105.416C114.903 105.556 116.447 104.699 117.187 103.249L118.192 101.28C118.607 100.466 118.418 99.474 117.732 98.87L116.836 98.0814C116.297 97.606 115.543 97.457 114.864 97.6912L112.823 98.3938C112.423 98.5314 111.99 98.5388 111.586 98.4152L108.6 97.5014C108.199 97.3786 107.77 97.385 107.372 97.5198Z" fill="#F4CDCC"/>
<path d="M107.28 62.7726C108.388 62.434 110.935 61.8584 112.265 62.2648C113.594 62.671 114.324 63.1104 114.523 63.2792" stroke="#0A1533" stroke-width="3" stroke-linecap="round" stroke-linejoin="round"/>
<path d="M61.2648 115.808C57.3346 114.595 46.6176 114.124 35.1914 121.945C20.9084 131.723 37.1022 153.894 48.03 156.962C55.2262 158.982 75.5752 163.203 90.7384 165.269M90.7384 165.269C93.9962 165.713 96.9572 166.104 99.4152 166.421M90.7384 165.269C84.3812 162.098 70.4498 154.459 65.5816 149.263C59.4964 142.769 52.6336 129.298 55.8452 126.016M81.0106 182.333C82.78 180.686 85.5248 178.225 88.6864 175.54M88.6864 175.54C93.7466 171.244 99.8748 166.374 104.783 163.353C114.752 157.218 127.885 142.36 131.432 134.117C134.978 125.873 130.569 113.028 127.214 111.494M88.6864 175.54C92.4678 174.376 101.553 171.245 107.643 168.036M127.214 111.494C124.53 110.267 122.517 109.898 121.846 109.867M127.214 111.494C130.154 113.092 136.4 118.519 138.208 124.751C139.262 128.381 139.244 131.599 139.277 135.181M139.277 135.181C139.316 139.441 137.823 143.9 132.198 149.263C123.916 157.162 116.67 162.396 114.081 164.025V181.759M139.277 135.181C143.965 137.205 154.628 142.559 159.778 147.781C164.927 153.003 174.071 172.609 178 181.759M36.068 134.117C36.22 121.945 48.3146 121.945 50.977 121.945C53.1068 121.945 55.4648 121.312 56.3776 120.995" stroke="#0A1533" stroke-width="3" stroke-linecap="round" stroke-linejoin="round"/>
<path d="M45.2916 46.9518C45.1034 50.338 46.2208 64.1578 46.7694 70.8562H50.6986C52.4872 67.678 56.8956 60.7926 60.221 58.6766C62.7652 58.5002 69.1086 57.4522 74.1266 54.6712C79.1448 51.89 85.6896 44.5442 88.3348 41.2188C93.9272 37.7768 106.08 30.6148 109.949 29.5048C113.818 28.3946 115.697 28.1172 116.152 28.1172C113.214 22.476 99.352 10.2828 92.0656 10.1652C84.7794 10.0477 60.4524 18.744 58.807 20.2718C57.4908 21.494 56.3782 24.2288 55.9866 25.4434C50.3454 31.672 45.527 42.7192 45.2916 46.9518Z" fill="url(#paint2_linear_4001_2)"/>
<path d="M82.292 168.637C77.1156 168.351 66.0204 167.72 57.048 167.183C45.8328 166.512 35.8248 157.008 31.3196 153.174C27.3346 149.783 26.1238 147.329 26.8344 144.047M26.8344 144.047C26.9274 143.619 27.067 143.174 27.2552 142.709C28.0314 140.792 29.439 139.768 30.717 139.578M26.8344 144.047L-14.1025 177.429" stroke="#0A1533" stroke-width="3" stroke-linecap="round" stroke-linejoin="round"/>
<path d="M53.7626 71.6174C51.941 70.5608 45.4288 69.4272 42.2848 74.107C38.355 79.9568 47.8448 90.692 52.9252 94.4306C58.0056 98.169 60.7114 98.1212 62.4368 96.0124C63.177 99.3552 64.8014 106.821 66.9982 109.75C69.195 112.679 73.6766 113.615 75.6428 113.716" stroke="#0A1533" stroke-width="3" stroke-linecap="round" stroke-linejoin="round"/>
<path d="M51.3906 80.5312L55.7038 87.4327M50.8154 85.0335L56.7588 83.1165" stroke="#0A1533" stroke-width="3" stroke-linecap="round" stroke-linejoin="round"/>
<path d="M62.2968 76.923C61.757 72.0522 62.5112 63.193 62.9972 59.0704H60.2788L51.1788 68.921C56.0828 69.1712 58.6064 73.803 59.3134 77.1876C59.5048 78.104 60.4468 78.773 61.3352 78.478C61.9842 78.2624 62.3722 77.6028 62.2968 76.923Z" fill="#E6E8EB"/>
<path d="M108.619 142.266C112.092 135.73 111.622 128.462 110.536 125.394L112.95 124.711C115.754 125.448 121.22 127.52 120.65 129.915C119.937 132.91 115.374 148.096 112.95 150.734C111.01 152.844 107.674 159.408 106.248 162.426L98.8718 166.153L89.9744 165.217C88.9754 164.811 85.5536 163.044 79.859 159.222C74.1642 155.401 66.7696 149.428 63.7842 146.92C67.628 149.429 74.0658 152.118 82.5452 153.384C97.3072 155.589 105.042 148.996 108.619 142.266Z" fill="#0A1533"/>
<path d="M58.5802 97.5938L61.0728 104.968L61.655 125.294M61.655 125.294V135.319M61.655 125.294L55.9984 132.39" stroke="#0A1533" stroke-width="3" stroke-linecap="round" stroke-linejoin="round"/>
<path d="M110.536 125.394C111.622 128.462 112.092 135.73 108.618 142.266C105.042 148.996 97.3068 155.589 82.5448 153.384C74.0654 152.118 67.6276 149.429 63.7838 146.92M106.247 162.426C107.673 159.408 111.01 152.844 112.949 150.734C115.373 148.096 119.936 132.91 120.649 129.915C121.22 127.52 115.753 125.448 112.949 124.711" stroke="#0A1533" stroke-width="3" stroke-linecap="round" stroke-linejoin="round"/>
<path opacity="0.5" d="M90.42 81.132C89.2232 83.2542 85.8798 83.636 82.9526 81.985C80.0254 80.3342 78.428 76.8292 79.442 74.6144C80.8362 71.569 83.9902 71.1626 86.9174 72.8136C89.8448 74.4646 91.6168 79.01 90.42 81.132Z" fill="#F4CDCC"/>
<path d="M50.711 70.6706C52.4716 69.5744 56.8382 67.0302 60.2178 65.6236C63.5974 64.2172 72.606 61.049 76.9484 59.6406H79.697" stroke="#0A1533" stroke-width="3" stroke-linecap="round" stroke-linejoin="round"/>
<path d="M95.2734 57.2368C90.6906 56.8614 85.83 57.4356 82.5084 58.048C80.7284 58.376 79.5008 59.9632 79.6298 61.7686C80.0216 67.2526 81.494 74.9338 85.3778 76.7542C91.2418 79.503 101.412 78.495 103.978 75.4714C105.287 73.9284 106.566 70.5138 107.511 67.4108C108.364 64.611 107.387 61.5738 104.81 60.1862C102.297 58.833 98.956 57.5382 95.2734 57.2368Z" stroke="#0A1533" stroke-width="3" stroke-linecap="round" stroke-linejoin="round"/>
<path d="M116.557 77.7106C120.068 80.3288 127.167 81.4124 130.58 78.7574C133.311 76.6332 134.03 67.8658 134.048 63.7476C132.805 62.898 129.51 61.2168 125.55 60.6828M125.55 60.6828C125.138 60.6272 124.72 60.5842 124.295 60.5556C120.822 60.3226 117.79 61.2952 115.978 62.1666C115.125 62.5764 114.557 63.3822 114.354 64.3058C114.061 65.6302 113.792 67.2572 113.945 68.0826C114.216 69.5456 115.625 72.7426 115.95 75.5062C116.275 78.2696 119.038 82.1168 119.146 84.8262C119.255 87.5356 116.166 91.2202 105.166 89.3236M125.55 60.6828C125.791 57.944 125.123 51.5872 121.82 47.0586C118.778 42.886 115.95 40.1654 108.264 39.0374C102.818 38.238 92.7992 41.073 88.4364 42.6198M60.8232 59.1782C74.189 56.9226 81.0446 49.513 88.4364 42.6198M88.4364 42.6198C90.1504 41.0216 91.893 39.4512 93.7524 37.9792C103.631 30.1586 124.295 23.7796 138.207 29.8508C152.118 35.9222 150.555 53.7214 144.587 57.7346C139.812 60.9452 129.563 64.7348 125.55 66.0726C125.132 67.5476 124.295 71.115 124.295 73.5846C124.295 76.6718 125.55 79.4502 125.55 83.2576C125.55 87.065 124.295 91.284 124.295 95.8118C124.295 100.34 123.477 104.892 121.311 108.582C119.146 112.272 118.003 115.517 117.494 117.299C116.985 119.08 116.858 125.442 107.378 125.188C97.8982 124.933 84.3464 118.062 83.583 117.68" stroke="#0A1533" stroke-width="3" stroke-linecap="round" stroke-linejoin="round"/>
<path d="M50.254 70.435C52.565 66.95 59.0652 58.8726 67.621 52.9492C76.1768 47.0256 90.631 39.1262 96.6246 35.9532" stroke="#0A1533" stroke-width="3" stroke-linecap="round" stroke-linejoin="round"/>
<path d="M46.7694 70.8562C46.2208 64.1578 45.1034 50.338 45.2916 46.9518C45.527 42.7192 50.3454 31.672 55.9866 25.4434M55.9866 25.4434C56.3782 24.2288 57.4908 21.494 58.807 20.2718C60.4524 18.744 84.7794 10.0477 92.0656 10.1652C99.352 10.2828 113.214 22.476 116.152 28.1172M55.9866 25.4434C58.0236 31.4374 62.7322 44.4832 65.2708 48.714" stroke="#0A1533" stroke-width="3" stroke-linecap="round" stroke-linejoin="round"/>
<path d="M92.5712 68.7656C94.1795 68.7656 95.4833 67.1479 95.4833 65.1523C95.4833 63.1568 94.1795 61.5391 92.5712 61.5391C90.9629 61.5391 89.6591 63.1568 89.6591 65.1523C89.6591 67.1479 90.9629 68.7656 92.5712 68.7656Z" fill="#0A1533"/>
<path d="M119.665 71.2812C121.058 71.2812 122.187 69.6635 122.187 67.668C122.187 65.6724 121.058 64.0547 119.665 64.0547C118.272 64.0547 117.144 65.6724 117.144 67.668C117.144 69.6635 118.272 71.2812 119.665 71.2812Z" fill="#0A1533"/>
<path opacity="0.1" d="M88.1606 119.994C86.0762 119.254 80.4224 115.766 75.5564 112.722C73.7546 111.596 71.9742 113.516 73.2144 115.241L84.8146 131.38C85.114 131.797 85.2418 132.312 85.1718 132.82L83.6294 144.012C83.378 145.836 85.516 147.002 86.9132 145.803L110.802 125.302C109.249 125.4 105.138 124.977 103.198 124.744C100.772 124.453 92.5262 121.543 88.1606 119.994Z" fill="#0A1533"/>
<path d="M118.897 115.922C121.164 116.934 126.2 120.108 128.209 124.711" stroke="#0A1533" stroke-width="3" stroke-linecap="round" stroke-linejoin="round"/>
</g>
</g>
<defs>
<linearGradient id="paint0_linear_4001_2" x1="139.75" y1="131.5" x2="21" y2="172" gradientUnits="userSpaceOnUse">
<stop stop-color="#64DB45"/>
<stop offset="1" stop-color="#A3DC29"/>
</linearGradient>
<linearGradient id="paint1_linear_4001_2" x1="117.5" y1="47.75" x2="141.5" y2="34.25" gradientUnits="userSpaceOnUse">
<stop stop-color="#060D22"/>
<stop offset="1" stop-color="#0A1533"/>
</linearGradient>
<linearGradient id="paint2_linear_4001_2" x1="99.5" y1="17" x2="50.75" y2="53.5" gradientUnits="userSpaceOnUse">
<stop stop-color="#64DB45"/>
<stop offset="1" stop-color="#A3DC29"/>
</linearGradient>
<clipPath id="clip0_4001_2">
<rect width="180" height="180" fill="white"/>
</clipPath>
</defs>
</svg>
