<svg width="1440" height="780" viewBox="0 0 1440 780" fill="none" xmlns="http://www.w3.org/2000/svg">
<g clip-path="url(#clip0_152_16)">
<mask id="mask0_152_16" style="mask-type:alpha" maskUnits="userSpaceOnUse" x="0" y="0" width="1440" height="780">
<rect width="1440" height="780" fill="url(#paint0_linear_152_16)"/>
</mask>
<g mask="url(#mask0_152_16)">
<line x1="1332.5" y1="383.5" x2="1332.5" y2="803.5" stroke="url(#paint1_linear_152_16)" stroke-linecap="round" stroke-dasharray="1 3"/>
<line x1="1090.5" y1="320.5" x2="1090.5" y2="803.5" stroke="url(#paint2_linear_152_16)" stroke-linecap="round" stroke-dasharray="1 3"/>
<path d="M1022 436L1427 436" stroke="url(#paint3_linear_152_16)" stroke-width="0.5" stroke-linecap="round" stroke-dasharray="1 3"/>
<path d="M1090 452C1090 443.163 1097.16 436 1106 436H1316C1324.84 436 1332 443.163 1332 452V804H1090V452Z" fill="white" fill-opacity="0.32"/>
<path d="M1096 456C1096 448.268 1102.27 442 1110 442H1150.5C1152.16 442 1153.5 443.343 1153.5 445V455.212C1153.5 458.526 1156.19 461.212 1159.5 461.212H1262.5C1265.81 461.212 1268.5 458.526 1268.5 455.212V445C1268.5 443.343 1269.84 442 1271.5 442H1312C1319.73 442 1326 448.268 1326 456V804H1096V456Z" fill="#090924"/>
<ellipse cx="1230" cy="449.5" rx="5" ry="5.5" fill="#090924"/>
<rect x="1186" y="447" width="33" height="6" rx="1.5" fill="#090924"/>
<rect x="431" y="142" width="578" height="31" fill="white" fill-opacity="0.1"/>
<rect x="616" y="155" width="40" height="5" rx="2.5" fill="white" fill-opacity="0.25"/>
<rect x="672" y="155" width="48" height="5" rx="2.5" fill="white" fill-opacity="0.25"/>
<rect x="736" y="155" width="40" height="5" rx="2.5" fill="white" fill-opacity="0.25"/>
<rect x="792" y="155" width="32" height="5" rx="2.5" fill="white" fill-opacity="0.25"/>
<path d="M971.428 160.541C972.36 160.431 973.275 160.211 974.155 159.886C973.41 159.06 972.998 157.987 973 156.875V156.5C973 155.704 972.684 154.941 972.121 154.379C971.559 153.816 970.796 153.5 970 153.5C969.204 153.5 968.441 153.816 967.879 154.379C967.316 154.941 967 155.704 967 156.5V156.875C967.002 157.987 966.589 159.06 965.844 159.886C966.71 160.206 967.624 160.429 968.571 160.541M971.428 160.541C970.479 160.654 969.521 160.654 968.571 160.541M971.428 160.541C971.501 160.766 971.518 161.005 971.481 161.238C971.443 161.471 971.351 161.692 971.212 161.883C971.072 162.074 970.89 162.229 970.68 162.336C970.469 162.443 970.236 162.499 970 162.499C969.764 162.499 969.531 162.443 969.32 162.336C969.11 162.229 968.928 162.074 968.788 161.883C968.649 161.692 968.557 161.471 968.519 161.238C968.482 161.005 968.499 160.766 968.571 160.541" stroke="white" stroke-linecap="round" stroke-linejoin="round"/>
<path fill-rule="evenodd" clip-rule="evenodd" d="M996.457 162.731C997.103 162.124 997.617 161.391 997.969 160.577C998.32 159.764 998.501 158.886 998.5 158C998.5 154.41 995.59 151.5 992 151.5C988.41 151.5 985.5 154.41 985.5 158C985.499 158.886 985.68 159.764 986.031 160.577C986.383 161.391 986.897 162.124 987.543 162.731C988.748 163.869 990.343 164.502 992 164.5C993.657 164.502 995.252 163.869 996.457 162.731ZM988.097 161.875C988.565 161.289 989.159 160.816 989.834 160.492C990.51 160.167 991.25 159.999 992 160C992.75 159.999 993.49 160.167 994.166 160.492C994.841 160.816 995.435 161.289 995.903 161.875C995.393 162.39 994.785 162.8 994.115 163.079C993.445 163.358 992.726 163.501 992 163.5C991.274 163.501 990.555 163.358 989.885 163.079C989.215 162.8 988.607 162.39 988.097 161.875ZM994.5 156C994.5 156.663 994.237 157.299 993.768 157.768C993.299 158.237 992.663 158.5 992 158.5C991.337 158.5 990.701 158.237 990.232 157.768C989.763 157.299 989.5 156.663 989.5 156C989.5 155.337 989.763 154.701 990.232 154.232C990.701 153.763 991.337 153.5 992 153.5C992.663 153.5 993.299 153.763 993.768 154.232C994.237 154.701 994.5 155.337 994.5 156Z" fill="white"/>
<rect x="430.5" y="119.5" width="579" height="697" rx="6.5" stroke="url(#paint4_linear_152_16)"/>
<line x1="431" y1="141.5" x2="1009" y2="141.5" stroke="url(#paint5_linear_152_16)"/>
<line x1="431" y1="173.5" x2="1009" y2="173.5" stroke="url(#paint6_linear_152_16)"/>
<circle cx="442.5" cy="130.5" r="3" stroke="white" stroke-opacity="0.5"/>
<circle cx="454.5" cy="130.5" r="3" stroke="white" stroke-opacity="0.5"/>
<circle cx="466.5" cy="130.5" r="3" stroke="white" stroke-opacity="0.5"/>
<path d="M453.894 154.722H457.743L458.2 156.1L457.571 156.315L457.227 155.394H455.47V156.849H457.037V157.521H455.47L455.461 159.122H457.416L457.752 158.218L458.38 158.433L457.924 159.794H453.885V159.122H454.686L454.695 155.394H453.894V154.722ZM461.461 156.616C461.335 156.576 461.217 156.547 461.108 156.53C460.999 156.513 460.876 156.504 460.738 156.504C460.365 156.504 460.069 156.625 459.851 156.866C459.633 157.101 459.524 157.457 459.524 157.934C459.524 158.382 459.641 158.723 459.877 158.959C460.118 159.188 460.405 159.303 460.738 159.303C460.922 159.303 461.105 159.272 461.289 159.208C461.479 159.145 461.665 159.053 461.849 158.933L462.167 159.398C462.018 159.507 461.872 159.602 461.728 159.682C461.59 159.762 461.438 159.823 461.272 159.863C461.105 159.909 460.904 159.932 460.669 159.932C460.29 159.932 459.954 159.854 459.662 159.699C459.375 159.538 459.151 159.309 458.99 159.01C458.829 158.706 458.749 158.347 458.749 157.934C458.749 157.492 458.835 157.122 459.007 156.823C459.179 156.519 459.415 156.289 459.713 156.134C460.018 155.979 460.362 155.902 460.747 155.902C460.97 155.902 461.183 155.927 461.384 155.979C461.59 156.025 461.814 156.085 462.056 156.16L462.202 157.142L461.573 157.279L461.461 156.616ZM462.431 159.794V159.191H463.154V155.032L462.336 154.748L462.534 154.145L463.912 154.619V156.272C464.285 156.037 464.672 155.919 465.074 155.919C465.585 155.919 465.964 156.042 466.211 156.289C466.458 156.53 466.581 156.903 466.581 157.409V159.191H467.305V159.794H465.445V159.191H465.823V157.546C465.823 157.196 465.755 156.944 465.617 156.789C465.479 156.628 465.258 156.547 464.954 156.547C464.782 156.547 464.598 156.573 464.403 156.625C464.213 156.671 464.05 156.737 463.912 156.823V159.191H464.291V159.794H462.431ZM469.428 155.919C469.824 155.919 470.166 155.999 470.453 156.16C470.746 156.321 470.973 156.55 471.133 156.849C471.294 157.147 471.374 157.509 471.374 157.934C471.374 158.554 471.196 159.042 470.841 159.398C470.49 159.754 470.02 159.932 469.428 159.932C469.044 159.932 468.708 159.851 468.421 159.691C468.134 159.53 467.91 159.3 467.749 159.002C467.594 158.703 467.517 158.347 467.517 157.934C467.517 157.509 467.594 157.147 467.749 156.849C467.91 156.55 468.134 156.321 468.421 156.16C468.708 155.999 469.044 155.919 469.428 155.919ZM469.437 156.539C469.052 156.539 468.762 156.659 468.567 156.901C468.378 157.142 468.283 157.486 468.283 157.934C468.283 158.376 468.378 158.718 468.567 158.959C468.762 159.194 469.052 159.312 469.437 159.312C469.827 159.312 470.12 159.194 470.315 158.959C470.51 158.718 470.608 158.376 470.608 157.934C470.608 157.486 470.51 157.142 470.315 156.901C470.12 156.659 469.827 156.539 469.437 156.539ZM473.676 154.722H477.517L477.982 156.117L477.353 156.332L477.009 155.394H475.244V156.892H476.639V157.564H475.235V159.122H476.303V159.794H473.668V159.122H474.469L474.477 155.394H473.676V154.722ZM479.897 155.919C480.293 155.919 480.634 155.999 480.921 156.16C481.214 156.321 481.441 156.55 481.602 156.849C481.762 157.147 481.843 157.509 481.843 157.934C481.843 158.554 481.665 159.042 481.309 159.398C480.959 159.754 480.488 159.932 479.897 159.932C479.512 159.932 479.176 159.851 478.889 159.691C478.602 159.53 478.378 159.3 478.218 159.002C478.063 158.703 477.985 158.347 477.985 157.934C477.985 157.509 478.063 157.147 478.218 156.849C478.378 156.55 478.602 156.321 478.889 156.16C479.176 155.999 479.512 155.919 479.897 155.919ZM479.905 156.539C479.521 156.539 479.231 156.659 479.036 156.901C478.846 157.142 478.751 157.486 478.751 157.934C478.751 158.376 478.846 158.718 479.036 158.959C479.231 159.194 479.521 159.312 479.905 159.312C480.296 159.312 480.588 159.194 480.784 158.959C480.979 158.718 481.076 158.376 481.076 157.934C481.076 157.486 480.979 157.142 480.784 156.901C480.588 156.659 480.296 156.539 479.905 156.539ZM483.417 156.349C483.623 156.206 483.847 156.1 484.088 156.031C484.329 155.956 484.57 155.919 484.812 155.919C485.018 155.919 485.153 155.936 485.216 155.971L485.363 156.918L484.734 157.047L484.648 156.573C484.464 156.579 484.283 156.608 484.105 156.659C483.927 156.711 483.767 156.783 483.623 156.875L483.615 159.191H484.458V159.794H482.142V159.191H482.865V156.832L482.039 156.547L482.237 155.945L483.417 156.349ZM487.245 158.786C486.706 158.786 486.281 158.663 485.971 158.416C485.667 158.169 485.514 157.828 485.514 157.391C485.514 156.938 485.669 156.579 485.979 156.315C486.295 156.051 486.72 155.919 487.254 155.919C487.472 155.919 487.664 155.939 487.831 155.979C487.997 156.014 488.155 156.071 488.304 156.151L489.553 155.695L489.777 156.349L488.752 156.565C488.838 156.668 488.901 156.789 488.942 156.926C488.988 157.058 489.011 157.199 489.011 157.348C489.011 157.653 488.936 157.914 488.787 158.132C488.637 158.344 488.428 158.508 488.158 158.623C487.894 158.732 487.59 158.786 487.245 158.786ZM487.314 161.757C487.09 161.757 486.852 161.734 486.599 161.688C486.353 161.648 486.123 161.594 485.91 161.525C485.698 161.462 485.537 161.399 485.428 161.335L485.704 160.758C485.928 160.867 486.186 160.954 486.479 161.017C486.772 161.08 487.05 161.111 487.314 161.111C487.561 161.111 487.768 161.091 487.934 161.051C488.101 161.017 488.227 160.959 488.313 160.879C488.399 160.804 488.442 160.712 488.442 160.603C488.442 160.437 488.373 160.313 488.236 160.233C488.098 160.153 487.888 160.113 487.607 160.113H486.341V158.425L487.03 158.623V159.501H487.771C488.241 159.501 488.594 159.593 488.83 159.777C489.071 159.955 489.191 160.216 489.191 160.56C489.191 160.819 489.111 161.037 488.95 161.215C488.795 161.393 488.577 161.528 488.296 161.62C488.02 161.711 487.693 161.757 487.314 161.757ZM487.262 158.184C487.572 158.184 487.816 158.106 487.994 157.951C488.172 157.796 488.261 157.598 488.261 157.357C488.261 157.093 488.175 156.889 488.003 156.746C487.837 156.596 487.59 156.522 487.262 156.522C486.935 156.522 486.686 156.596 486.513 156.746C486.347 156.889 486.264 157.093 486.264 157.357C486.264 157.598 486.353 157.796 486.531 157.951C486.708 158.106 486.952 158.184 487.262 158.184ZM493.263 159.346C493.027 159.547 492.783 159.696 492.531 159.794C492.284 159.886 492.011 159.932 491.713 159.932C491.305 159.932 490.946 159.851 490.636 159.691C490.332 159.524 490.097 159.292 489.93 158.993C489.764 158.695 489.68 158.339 489.68 157.925C489.68 157.523 489.758 157.173 489.913 156.875C490.074 156.57 490.298 156.335 490.585 156.169C490.877 156.002 491.213 155.919 491.592 155.919C491.954 155.919 492.264 155.996 492.522 156.151C492.78 156.301 492.981 156.513 493.125 156.789C493.268 157.058 493.34 157.38 493.34 157.753C493.34 157.81 493.337 157.871 493.332 157.934C493.326 157.997 493.32 158.06 493.314 158.123L490.421 158.141C490.438 158.41 490.507 158.634 490.628 158.812C490.748 158.984 490.903 159.111 491.093 159.191C491.282 159.272 491.483 159.312 491.695 159.312C491.942 159.312 492.169 159.277 492.376 159.208C492.582 159.134 492.772 159.028 492.944 158.89L493.263 159.346ZM492.591 157.564C492.585 157.248 492.493 156.995 492.315 156.806C492.138 156.611 491.899 156.513 491.601 156.513C491.308 156.513 491.05 156.611 490.826 156.806C490.602 156.995 490.47 157.248 490.43 157.564H492.591Z" fill="white"/>
<path d="M450.944 150.705C451.004 150.516 450.9 150.314 450.709 150.262C449.663 149.982 448.569 149.925 447.497 150.097C446.307 150.287 445.178 150.753 444.201 151.458C443.224 152.163 442.425 153.087 441.869 154.157C441.314 155.226 441.016 156.41 441.001 157.615C440.985 158.82 441.252 160.012 441.78 161.095C442.308 162.178 443.083 163.123 444.042 163.853C445.001 164.582 446.117 165.078 447.302 165.298C448.369 165.497 449.464 165.468 450.517 165.215C450.71 165.169 450.819 164.969 450.764 164.778L450.228 162.932C450.173 162.742 449.974 162.633 449.78 162.675C449.125 162.816 448.447 162.826 447.785 162.702C447.006 162.557 446.272 162.232 445.641 161.752C445.01 161.272 444.501 160.65 444.154 159.938C443.806 159.226 443.631 158.442 443.641 157.649C443.651 156.857 443.847 156.078 444.212 155.374C444.578 154.671 445.103 154.063 445.746 153.599C446.388 153.136 447.131 152.829 447.914 152.704C448.578 152.598 449.255 152.625 449.907 152.783C450.1 152.829 450.301 152.726 450.361 152.537L450.944 150.705Z" fill="white"/>
<path d="M449.326 159.965C449.43 160.347 449.202 160.751 448.806 160.763C448.578 160.77 448.35 160.751 448.125 160.707C447.665 160.616 447.231 160.42 446.859 160.135C446.486 159.849 446.184 159.481 445.977 159.06C445.77 158.639 445.663 158.175 445.664 157.706C445.666 157.236 445.775 156.774 445.985 156.353C446.194 155.933 446.498 155.567 446.872 155.284C447.246 155 447.681 154.807 448.142 154.719C448.367 154.676 448.595 154.658 448.823 154.666C449.219 154.681 449.445 155.085 449.338 155.467L448.767 157.524C448.732 157.649 448.732 157.78 448.766 157.905L449.326 159.965Z" fill="white"/>
<line x1="430.41" y1="-84.5898" x2="430.41" y2="124.59" stroke="url(#paint7_linear_152_16)" stroke-opacity="0.45" stroke-width="0.820312" stroke-linecap="round" stroke-dasharray="1.64 4.92"/>
<line x1="1010.41" y1="-84.5898" x2="1010.41" y2="124.59" stroke="url(#paint8_linear_152_16)" stroke-opacity="0.45" stroke-width="0.820312" stroke-linecap="round" stroke-dasharray="1.64 4.92"/>
<line x1="298.41" y1="119.59" x2="424.59" y2="119.59" stroke="url(#paint9_linear_152_16)" stroke-opacity="0.45" stroke-width="0.820312" stroke-linecap="round" stroke-dasharray="1.64 4.92"/>
<line x1="1004.41" y1="119.59" x2="1407.59" y2="119.59" stroke="url(#paint10_linear_152_16)" stroke-opacity="0.63" stroke-width="0.820312" stroke-linecap="round" stroke-dasharray="1.64 4.92"/>
<circle cx="91" cy="91" r="90.5898" transform="matrix(-1 0 0 1 333 321)" stroke="url(#paint11_linear_152_16)" stroke-opacity="0.45" stroke-width="0.820312" stroke-linecap="round" stroke-dasharray="1.64 4.92"/>
<line x1="284.159" y1="255.17" x2="197.839" y2="577.322" stroke="url(#paint12_linear_152_16)" stroke-opacity="0.45" stroke-linecap="round" stroke-dasharray="1.64 4.92"/>
<line x1="150.5" y1="253.5" x2="150.5" y2="620.5" stroke="url(#paint13_linear_152_16)" stroke-opacity="0.45" stroke-linecap="round" stroke-dasharray="1.64 4.92"/>
<line x1="333.5" y1="143.5" x2="333.5" y2="684.5" stroke="url(#paint14_linear_152_16)" stroke-opacity="0.45" stroke-linecap="round" stroke-dasharray="1.64 4.92"/>
<path d="M-95 503L429 503" stroke="url(#paint15_linear_152_16)" stroke-opacity="0.45" stroke-width="0.5" stroke-linecap="round" stroke-dasharray="1.64 4.92"/>
<path d="M40 321H420" stroke="url(#paint16_linear_152_16)" stroke-opacity="0.45" stroke-width="0.5" stroke-linecap="round" stroke-dasharray="1.64 4.92"/>
<line x1="176.275" y1="164.857" x2="309.721" y2="662.882" stroke="url(#paint17_linear_152_16)" stroke-opacity="0.45" stroke-linecap="round" stroke-dasharray="1.64 4.92"/>
<g opacity="0.2">
<path d="M264.521 325.464C264.753 324.588 264.231 323.688 263.351 323.472C250.317 320.27 236.729 319.988 223.562 322.655C209.858 325.431 196.977 331.326 185.919 339.882C174.861 348.439 165.922 359.428 159.796 371.997C153.67 384.566 150.522 398.377 150.595 412.359C150.668 426.341 153.961 440.118 160.218 452.622C166.475 465.127 175.528 476.021 186.675 484.462C197.822 492.903 210.764 498.662 224.496 501.294C237.691 503.823 251.275 503.399 264.275 500.061C265.152 499.836 265.665 498.931 265.424 498.058L258.004 471.184C257.763 470.311 256.86 469.8 255.981 470.018C247.596 472.087 238.856 472.32 230.361 470.692C221.329 468.96 212.817 465.172 205.485 459.62C198.154 454.069 192.199 446.903 188.084 438.678C183.968 430.454 181.803 421.392 181.755 412.196C181.706 403 183.777 393.916 187.806 385.649C191.836 377.382 197.715 370.154 204.988 364.526C212.261 358.898 220.733 355.021 229.747 353.195C238.224 351.478 246.966 351.62 255.372 353.601C256.254 353.809 257.151 353.289 257.383 352.413L264.521 325.464Z" fill="white"/>
<path d="M250.213 443.448C250.688 445.197 249.657 447.016 247.872 447.33C243.514 448.097 239.042 448.056 234.682 447.197C229.246 446.128 224.13 443.817 219.734 440.446C215.337 437.075 211.778 432.735 209.333 427.763C206.889 422.791 205.625 417.322 205.641 411.782C205.656 406.242 206.95 400.78 209.423 395.822C211.895 390.864 215.478 386.544 219.894 383.197C224.309 379.851 229.438 377.569 234.879 376.53C239.244 375.696 243.717 375.68 248.07 376.471C249.853 376.795 250.874 378.62 250.389 380.366L241.874 411.014C241.716 411.583 241.715 412.183 241.869 412.753L250.213 443.448Z" fill="white"/>
</g>
</g>
</g>
<defs>
<linearGradient id="paint0_linear_152_16" x1="720" y1="0" x2="720" y2="681" gradientUnits="userSpaceOnUse">
<stop stop-color="white" stop-opacity="0.35"/>
<stop offset="1" stop-color="white" stop-opacity="0"/>
</linearGradient>
<linearGradient id="paint1_linear_152_16" x1="1332.13" y1="802.487" x2="1328.4" y2="383.032" gradientUnits="userSpaceOnUse">
<stop stop-color="white" stop-opacity="0"/>
<stop offset="0.12" stop-color="white"/>
<stop offset="0.88" stop-color="white"/>
<stop offset="1" stop-color="white" stop-opacity="0"/>
</linearGradient>
<linearGradient id="paint2_linear_152_16" x1="1090.13" y1="802.261" x2="1085.21" y2="320.049" gradientUnits="userSpaceOnUse">
<stop stop-color="white" stop-opacity="0"/>
<stop offset="0.12" stop-color="white"/>
<stop offset="0.88" stop-color="white"/>
<stop offset="1" stop-color="white" stop-opacity="0"/>
</linearGradient>
<linearGradient id="paint3_linear_152_16" x1="1426.1" y1="436.119" x2="1021.46" y2="439.587" gradientUnits="userSpaceOnUse">
<stop stop-color="white" stop-opacity="0"/>
<stop offset="0.12" stop-color="white"/>
<stop offset="0.88" stop-color="white"/>
<stop offset="1" stop-color="white" stop-opacity="0"/>
</linearGradient>
<linearGradient id="paint4_linear_152_16" x1="1010" y1="166.5" x2="421.834" y2="276.894" gradientUnits="userSpaceOnUse">
<stop stop-color="white" stop-opacity="0.35"/>
<stop offset="0.479819" stop-color="white"/>
<stop offset="1" stop-color="white" stop-opacity="0.35"/>
</linearGradient>
<linearGradient id="paint5_linear_152_16" x1="1008.5" y1="142" x2="1008.46" y2="146.573" gradientUnits="userSpaceOnUse">
<stop stop-color="white" stop-opacity="0.35"/>
<stop offset="0.479819" stop-color="white"/>
<stop offset="1" stop-color="white" stop-opacity="0.35"/>
</linearGradient>
<linearGradient id="paint6_linear_152_16" x1="1008.5" y1="174" x2="1008.46" y2="178.573" gradientUnits="userSpaceOnUse">
<stop stop-color="white" stop-opacity="0.35"/>
<stop offset="0.479819" stop-color="white"/>
<stop offset="1" stop-color="white" stop-opacity="0.35"/>
</linearGradient>
<linearGradient id="paint7_linear_152_16" x1="430.131" y1="124.245" x2="429.204" y2="-84.9965" gradientUnits="userSpaceOnUse">
<stop stop-color="white" stop-opacity="0"/>
<stop offset="0.12" stop-color="white"/>
<stop offset="0.88" stop-color="white"/>
<stop offset="1" stop-color="white" stop-opacity="0"/>
</linearGradient>
<linearGradient id="paint8_linear_152_16" x1="1010.13" y1="124.245" x2="1009.2" y2="-84.9965" gradientUnits="userSpaceOnUse">
<stop stop-color="white" stop-opacity="0"/>
<stop offset="0.12" stop-color="white"/>
<stop offset="0.88" stop-color="white"/>
<stop offset="1" stop-color="white" stop-opacity="0"/>
</linearGradient>
<linearGradient id="paint9_linear_152_16" x1="424.544" y1="119.869" x2="298.001" y2="120.208" gradientUnits="userSpaceOnUse">
<stop stop-color="white" stop-opacity="0"/>
<stop offset="0.12" stop-color="white"/>
<stop offset="0.88" stop-color="white"/>
<stop offset="1" stop-color="white" stop-opacity="0"/>
</linearGradient>
<linearGradient id="paint10_linear_152_16" x1="1406.55" y1="119.869" x2="1004.03" y2="123.301" gradientUnits="userSpaceOnUse">
<stop stop-color="white" stop-opacity="0"/>
<stop offset="0.12" stop-color="white"/>
<stop offset="0.88" stop-color="white"/>
<stop offset="1" stop-color="white" stop-opacity="0"/>
</linearGradient>
<linearGradient id="paint11_linear_152_16" x1="181.357" y1="-23.8687" x2="-36.929" y2="131.252" gradientUnits="userSpaceOnUse">
<stop stop-color="white" stop-opacity="0"/>
<stop offset="0.12" stop-color="white"/>
<stop offset="0.829092" stop-color="white"/>
<stop offset="1" stop-color="white" stop-opacity="0"/>
</linearGradient>
<linearGradient id="paint12_linear_152_16" x1="197.664" y1="576.548" x2="281.655" y2="253.998" gradientUnits="userSpaceOnUse">
<stop stop-color="white" stop-opacity="0"/>
<stop offset="0.12" stop-color="white"/>
<stop offset="0.88" stop-color="white"/>
<stop offset="1" stop-color="white" stop-opacity="0"/>
</linearGradient>
<linearGradient id="paint13_linear_152_16" x1="150.131" y1="619.678" x2="147.283" y2="253.021" gradientUnits="userSpaceOnUse">
<stop stop-color="white" stop-opacity="0"/>
<stop offset="0.12" stop-color="white"/>
<stop offset="0.88" stop-color="white"/>
<stop offset="1" stop-color="white" stop-opacity="0"/>
</linearGradient>
<linearGradient id="paint14_linear_152_16" x1="332.881" y1="683.802" x2="326.67" y2="142.315" gradientUnits="userSpaceOnUse">
<stop stop-color="white" stop-opacity="0"/>
<stop offset="0.12" stop-color="white"/>
<stop offset="0.88" stop-color="white"/>
<stop offset="1" stop-color="white" stop-opacity="0"/>
</linearGradient>
<linearGradient id="paint15_linear_152_16" x1="427.842" y1="503.119" x2="-95.6669" y2="508.925" gradientUnits="userSpaceOnUse">
<stop stop-color="white" stop-opacity="0"/>
<stop offset="0.12" stop-color="white"/>
<stop offset="0.88" stop-color="white"/>
<stop offset="1" stop-color="white" stop-opacity="0"/>
</linearGradient>
<linearGradient id="paint16_linear_152_16" x1="419.16" y1="321.119" x2="39.4943" y2="324.172" gradientUnits="userSpaceOnUse">
<stop stop-color="white" stop-opacity="0"/>
<stop offset="0.12" stop-color="white"/>
<stop offset="0.88" stop-color="white"/>
<stop offset="1" stop-color="white" stop-opacity="0"/>
</linearGradient>
<linearGradient id="paint17_linear_152_16" x1="309.013" y1="661.668" x2="170.385" y2="165.98" gradientUnits="userSpaceOnUse">
<stop stop-color="white" stop-opacity="0"/>
<stop offset="0.12" stop-color="white"/>
<stop offset="0.88" stop-color="white"/>
<stop offset="1" stop-color="white" stop-opacity="0"/>
</linearGradient>
<clipPath id="clip0_152_16">
<rect width="1440" height="780" fill="white"/>
</clipPath>
</defs>
</svg>
