<svg width="450" height="250" viewBox="0 0 450 250" fill="none" xmlns="http://www.w3.org/2000/svg">
<g clip-path="url(#clip0_167_6120)">
<mask id="mask0_167_6120" style="mask-type:alpha" maskUnits="userSpaceOnUse" x="0" y="0" width="450" height="250">
<rect width="450" height="250" fill="url(#paint0_linear_167_6120)"/>
</mask>
<g mask="url(#mask0_167_6120)">
<line x1="172.25" y1="5.25" x2="172.25" y2="249.75" stroke="url(#paint1_linear_167_6120)" stroke-opacity="0.45" stroke-width="0.5" stroke-linecap="round" stroke-dasharray="1 3"/>
<line x1="151.25" y1="54.25" x2="151.25" y2="249.75" stroke="url(#paint2_linear_167_6120)" stroke-opacity="0.45" stroke-width="0.5" stroke-linecap="round" stroke-dasharray="1 3"/>
<line x1="33.25" y1="47.25" x2="33.25" y2="249.75" stroke="url(#paint3_linear_167_6120)" stroke-opacity="0.45" stroke-width="0.5" stroke-linecap="round" stroke-dasharray="1 3"/>
<line x1="425.25" y1="0.25" x2="425.25" y2="249.75" stroke="url(#paint4_linear_167_6120)" stroke-opacity="0.45" stroke-width="0.5" stroke-linecap="round" stroke-dasharray="1 3"/>
<path d="M0 71L172 71" stroke="url(#paint5_linear_167_6120)" stroke-opacity="0.45" stroke-width="0.25" stroke-linecap="round" stroke-dasharray="1 3"/>
<path d="M136 31H456" stroke="url(#paint6_linear_167_6120)" stroke-opacity="0.45" stroke-width="0.25" stroke-linecap="round" stroke-dasharray="1 3"/>
<path d="M172 35C172 32.7909 173.791 31 176 31H421C423.209 31 425 32.7909 425 35V250H172V35Z" fill="white" fill-opacity="0.07"/>
<path d="M175 46C175 43.7909 176.791 42 179 42H418C420.209 42 422 43.7909 422 46V250H175V46Z" fill="white" fill-opacity="0.07"/>
<rect x="326" y="54" width="23" height="3" rx="1.5" fill="white"/>
<rect x="355" y="54" width="27" height="3" rx="1.5" fill="white"/>
<rect x="388" y="54" width="24" height="3" rx="1.5" fill="white"/>
<rect x="132" y="93" width="9" height="1" rx="0.5" fill="white" fill-opacity="0.59"/>
<rect x="133" y="96" width="8" height="1" rx="0.5" fill="white" fill-opacity="0.59"/>
<rect x="134" y="99" width="7" height="1" rx="0.5" fill="white" fill-opacity="0.59"/>
<path d="M33 87C33 78.1634 40.1634 71 49 71H135C143.837 71 151 78.1634 151 87V250H33V87Z" fill="white" fill-opacity="0.08"/>
<path d="M36 88C36 80.268 42.268 74 50 74H61C62.6569 74 64 75.3431 64 77V77.5C64 80.8137 66.6863 83.5 70 83.5H114C117.314 83.5 120 80.8137 120 77.5V77C120 75.3431 121.343 74 123 74H134C141.732 74 148 80.268 148 88V253H36V88Z" fill="white" fill-opacity="0.07"/>
<circle cx="16" cy="16" r="16" transform="matrix(-1 0 0 1 151 71)" stroke="url(#paint7_linear_167_6120)" stroke-opacity="0.45" stroke-width="0.5" stroke-linecap="round" stroke-dasharray="1 3"/>
<circle cx="16" cy="16" r="16" transform="matrix(-1 0 0 1 65 71)" stroke="url(#paint8_linear_167_6120)" stroke-opacity="0.45" stroke-width="0.5" stroke-linecap="round" stroke-dasharray="1 3"/>
<circle cx="101.5" cy="77.5" r="2.5" fill="white" fill-opacity="0.12"/>
<circle cx="178" cy="37" r="2" fill="white" fill-opacity="0.12"/>
<circle cx="184" cy="37" r="2" fill="white" fill-opacity="0.12"/>
<circle cx="190" cy="37" r="2" fill="white" fill-opacity="0.12"/>
<rect x="80" y="76" width="16" height="3" rx="1.5" fill="white" fill-opacity="0.12"/>
<path d="M193.278 52.253H196.504L196.886 53.4076L196.36 53.588L196.071 52.8159H194.599V54.0354H195.912V54.5983H194.599L194.592 55.9405H196.23L196.511 55.1828L197.038 55.3632L196.655 56.5034H193.271V55.9405H193.942L193.949 52.8159H193.278V52.253ZM199.62 53.8406C199.514 53.8069 199.415 53.7829 199.324 53.7684C199.232 53.754 199.129 53.7468 199.014 53.7468C198.701 53.7468 198.453 53.8478 198.27 54.0499C198.087 54.2471 197.996 54.5454 197.996 54.9447C197.996 55.3199 198.095 55.6062 198.292 55.8034C198.494 55.9959 198.735 56.0921 199.014 56.0921C199.168 56.0921 199.321 56.0656 199.475 56.0127C199.634 55.9598 199.791 55.8828 199.944 55.7818L200.211 56.1715C200.086 56.2629 199.964 56.3423 199.843 56.4096C199.728 56.477 199.601 56.5275 199.461 56.5611C199.321 56.5996 199.153 56.6189 198.956 56.6189C198.638 56.6189 198.357 56.5539 198.112 56.424C197.871 56.2893 197.683 56.0969 197.549 55.8467C197.414 55.5918 197.347 55.2911 197.347 54.9447C197.347 54.5743 197.419 54.264 197.563 54.0138C197.707 53.7588 197.905 53.5664 198.155 53.4365C198.41 53.3066 198.698 53.2417 199.021 53.2417C199.208 53.2417 199.386 53.2633 199.555 53.3066C199.728 53.3451 199.916 53.3956 200.118 53.4581L200.24 54.2808L199.714 54.3963L199.62 53.8406ZM200.432 56.5034V55.9983H201.038V52.5128L200.353 52.2747L200.519 51.7695L201.673 52.1664V53.552C201.986 53.3547 202.311 53.2561 202.647 53.2561C203.076 53.2561 203.393 53.3595 203.6 53.5664C203.807 53.7684 203.91 54.0811 203.91 54.5045V55.9983H204.516V56.5034H202.958V55.9983H203.275V54.62C203.275 54.3265 203.218 54.1148 203.102 53.9849C202.987 53.8502 202.801 53.7829 202.546 53.7829C202.402 53.7829 202.248 53.8045 202.085 53.8478C201.926 53.8863 201.789 53.9416 201.673 54.0138V55.9983H201.991V56.5034H200.432ZM206.296 53.2561C206.628 53.2561 206.914 53.3234 207.155 53.4581C207.4 53.5928 207.59 53.7853 207.725 54.0354C207.86 54.2856 207.927 54.5887 207.927 54.9447C207.927 55.4643 207.778 55.8732 207.48 56.1715C207.186 56.4697 206.792 56.6189 206.296 56.6189C205.974 56.6189 205.692 56.5515 205.452 56.4168C205.211 56.2821 205.024 56.0897 204.889 55.8395C204.759 55.5894 204.694 55.2911 204.694 54.9447C204.694 54.5887 204.759 54.2856 204.889 54.0354C205.024 53.7853 205.211 53.5928 205.452 53.4581C205.692 53.3234 205.974 53.2561 206.296 53.2561ZM206.303 53.7757C205.981 53.7757 205.738 53.8767 205.574 54.0787C205.416 54.2808 205.336 54.5694 205.336 54.9447C205.336 55.3151 205.416 55.6014 205.574 55.8034C205.738 56.0007 205.981 56.0993 206.303 56.0993C206.63 56.0993 206.876 56.0007 207.039 55.8034C207.203 55.6014 207.285 55.3151 207.285 54.9447C207.285 54.5694 207.203 54.2808 207.039 54.0787C206.876 53.8767 206.63 53.7757 206.303 53.7757ZM209.856 52.253H213.074L213.464 53.4221L212.937 53.6025L212.649 52.8159H211.169V54.0715H212.338V54.6344H211.162V55.9405H212.057V56.5034H209.849V55.9405H210.52L210.527 52.8159H209.856V52.253ZM215.069 53.2561C215.401 53.2561 215.687 53.3234 215.927 53.4581C216.173 53.5928 216.363 53.7853 216.497 54.0354C216.632 54.2856 216.7 54.5887 216.7 54.9447C216.7 55.4643 216.55 55.8732 216.252 56.1715C215.959 56.4697 215.564 56.6189 215.069 56.6189C214.746 56.6189 214.465 56.5515 214.224 56.4168C213.984 56.2821 213.796 56.0897 213.661 55.8395C213.532 55.5894 213.467 55.2911 213.467 54.9447C213.467 54.5887 213.532 54.2856 213.661 54.0354C213.796 53.7853 213.984 53.5928 214.224 53.4581C214.465 53.3234 214.746 53.2561 215.069 53.2561ZM215.076 53.7757C214.754 53.7757 214.511 53.8767 214.347 54.0787C214.188 54.2808 214.109 54.5694 214.109 54.9447C214.109 55.3151 214.188 55.6014 214.347 55.8034C214.511 56.0007 214.754 56.0993 215.076 56.0993C215.403 56.0993 215.648 56.0007 215.812 55.8034C215.976 55.6014 216.057 55.3151 216.057 54.9447C216.057 54.5694 215.976 54.2808 215.812 54.0787C215.648 53.8767 215.403 53.7757 215.076 53.7757ZM218.018 53.6169C218.191 53.4966 218.379 53.4076 218.581 53.3499C218.783 53.2874 218.985 53.2561 219.187 53.2561C219.361 53.2561 219.474 53.2705 219.526 53.2994L219.649 54.0932L219.122 54.2014L219.05 53.8045C218.896 53.8093 218.745 53.8334 218.596 53.8767C218.446 53.92 218.312 53.9801 218.191 54.0571L218.184 55.9983H218.891V56.5034H216.95V55.9983H217.556V54.021L216.864 53.7829L217.03 53.2777L218.018 53.6169ZM221.227 55.6591C220.775 55.6591 220.419 55.5557 220.159 55.3488C219.904 55.1419 219.776 54.8557 219.776 54.4901C219.776 54.11 219.906 53.8093 220.166 53.588C220.431 53.3667 220.787 53.2561 221.234 53.2561C221.417 53.2561 221.578 53.2729 221.717 53.3066C221.857 53.3355 221.989 53.3836 222.114 53.4509L223.161 53.0685L223.348 53.6169L222.49 53.7973C222.562 53.8839 222.615 53.9849 222.648 54.1004C222.687 54.211 222.706 54.3289 222.706 54.454C222.706 54.709 222.644 54.9279 222.518 55.1107C222.393 55.2887 222.218 55.4258 221.992 55.522C221.77 55.6134 221.515 55.6591 221.227 55.6591ZM221.284 58.1487C221.097 58.1487 220.897 58.1295 220.686 58.091C220.479 58.0573 220.286 58.0116 220.108 57.9539C219.93 57.901 219.796 57.8481 219.704 57.7951L219.935 57.3116C220.123 57.4031 220.339 57.4752 220.585 57.5281C220.83 57.5811 221.063 57.6075 221.284 57.6075C221.491 57.6075 221.665 57.5907 221.804 57.557C221.944 57.5281 222.049 57.48 222.122 57.4127C222.194 57.3501 222.23 57.2732 222.23 57.1818C222.23 57.0422 222.172 56.9388 222.057 56.8714C221.941 56.8041 221.766 56.7704 221.53 56.7704H220.469V55.356L221.046 55.522V56.2581H221.667C222.061 56.2581 222.357 56.335 222.555 56.489C222.757 56.6381 222.858 56.857 222.858 57.1457C222.858 57.3622 222.79 57.545 222.656 57.6941C222.526 57.8432 222.343 57.9563 222.107 58.0333C221.876 58.1102 221.602 58.1487 221.284 58.1487ZM221.241 55.154C221.501 55.154 221.705 55.089 221.855 54.9591C222.004 54.8292 222.078 54.6633 222.078 54.4612C222.078 54.2399 222.006 54.0691 221.862 53.9488C221.722 53.8238 221.515 53.7612 221.241 53.7612C220.967 53.7612 220.758 53.8238 220.613 53.9488C220.474 54.0691 220.404 54.2399 220.404 54.4612C220.404 54.6633 220.479 54.8292 220.628 54.9591C220.777 55.089 220.981 55.154 221.241 55.154ZM226.269 56.1282C226.072 56.2966 225.868 56.4216 225.656 56.5034C225.449 56.5804 225.221 56.6189 224.971 56.6189C224.629 56.6189 224.328 56.5515 224.068 56.4168C223.813 56.2773 223.616 56.0825 223.477 55.8323C223.337 55.5821 223.267 55.2839 223.267 54.9375C223.267 54.6007 223.332 54.3073 223.462 54.0571C223.597 53.8021 223.785 53.6049 224.025 53.4654C224.271 53.3258 224.552 53.2561 224.869 53.2561C225.173 53.2561 225.432 53.321 225.649 53.4509C225.865 53.576 226.034 53.754 226.154 53.9849C226.274 54.211 226.334 54.4804 226.334 54.7932C226.334 54.8413 226.332 54.8918 226.327 54.9447C226.322 54.9976 226.318 55.0505 226.313 55.1035L223.888 55.1179C223.902 55.344 223.96 55.5316 224.061 55.6808C224.162 55.8251 224.292 55.9309 224.451 55.9983C224.61 56.0656 224.778 56.0993 224.956 56.0993C225.163 56.0993 225.353 56.0704 225.526 56.0127C225.699 55.9502 225.858 55.8612 226.002 55.7457L226.269 56.1282ZM225.707 54.6344C225.702 54.3698 225.625 54.1581 225.476 53.9994C225.327 53.8358 225.127 53.754 224.877 53.754C224.631 53.754 224.415 53.8358 224.227 53.9994C224.04 54.1581 223.929 54.3698 223.895 54.6344H225.707Z" fill="white"/>
<path d="M191.333 48.5908C191.384 48.4325 191.296 48.2627 191.136 48.2198C190.26 47.9852 189.342 47.9375 188.444 48.081C187.447 48.2404 186.501 48.6311 185.682 49.222C184.863 49.8128 184.194 50.5872 183.729 51.4833C183.263 52.3793 183.013 53.372 183.001 54.3817C182.988 55.3914 183.211 56.3902 183.654 57.2978C184.097 58.2055 184.746 58.9969 185.549 59.6085C186.353 60.2202 187.288 60.635 188.281 60.8199C189.175 60.9864 190.093 60.9622 190.975 60.7502C191.137 60.7114 191.228 60.5439 191.182 60.3844L190.733 58.8369C190.687 58.6775 190.52 58.5868 190.358 58.6217C189.809 58.7397 189.24 58.7479 188.686 58.6447C188.033 58.5231 187.418 58.2502 186.889 57.8479C186.361 57.4456 185.934 56.9251 185.643 56.3281C185.352 55.7311 185.204 55.0742 185.213 54.4101C185.222 53.7459 185.385 53.093 185.692 52.5037C185.998 51.9143 186.438 51.405 186.977 51.0164C187.516 50.6278 188.138 50.3707 188.794 50.2659C189.35 50.177 189.918 50.1997 190.464 50.3318C190.626 50.3708 190.794 50.2845 190.845 50.1262L191.333 48.5908Z" fill="white"/>
<path d="M189.977 56.3506C190.064 56.6711 189.874 57.0092 189.542 57.0192C189.351 57.0249 189.159 57.0093 188.971 56.9722C188.585 56.8963 188.222 56.7322 187.91 56.4928C187.597 56.2535 187.345 55.9453 187.171 55.5922C186.997 55.2392 186.908 54.8508 186.909 54.4574C186.91 54.064 187.002 53.6762 187.177 53.3241C187.353 52.9721 187.607 52.6653 187.921 52.4277C188.234 52.19 188.599 52.028 188.985 51.9542C189.174 51.9182 189.365 51.9036 189.556 51.9104C189.888 51.9223 190.077 52.2615 189.988 52.5815L189.509 54.3054C189.48 54.4096 189.48 54.5197 189.508 54.6241L189.977 56.3506Z" fill="white"/>
<path d="M53.2783 94.253H56.5039L56.8864 95.4076L56.3596 95.588L56.071 94.8159H54.5988V96.0354H55.9122V96.5983H54.5988L54.5916 97.9405H56.2297L56.5112 97.1828L57.038 97.3632L56.6555 98.5034H53.271V97.9405H53.9422L53.9494 94.8159H53.2783V94.253ZM59.6198 95.8406C59.5139 95.8069 59.4153 95.7829 59.3239 95.7684C59.2325 95.754 59.129 95.7468 59.0136 95.7468C58.7009 95.7468 58.4531 95.8478 58.2703 96.0499C58.0875 96.2471 57.9961 96.5454 57.9961 96.9447C57.9961 97.3199 58.0947 97.6062 58.292 97.8034C58.494 97.9959 58.7346 98.0921 59.0136 98.0921C59.1675 98.0921 59.3215 98.0656 59.4754 98.0127C59.6342 97.9598 59.7905 97.8828 59.9445 97.7818L60.2115 98.1715C60.0864 98.2629 59.9637 98.3423 59.8435 98.4096C59.728 98.477 59.6005 98.5275 59.461 98.5611C59.3215 98.5996 59.1531 98.6189 58.9559 98.6189C58.6383 98.6189 58.3569 98.5539 58.1115 98.424C57.871 98.2893 57.6834 98.0969 57.5487 97.8467C57.414 97.5918 57.3466 97.2911 57.3466 96.9447C57.3466 96.5743 57.4188 96.264 57.5631 96.0138C57.7074 95.7588 57.9047 95.5664 58.1548 95.4365C58.4098 95.3066 58.6985 95.2417 59.0208 95.2417C59.2084 95.2417 59.3864 95.2633 59.5548 95.3066C59.728 95.3451 59.9156 95.3956 60.1177 95.4581L60.2404 96.2808L59.7136 96.3963L59.6198 95.8406ZM60.432 98.5034V97.9983H61.0382V94.5128L60.3527 94.2747L60.5186 93.7695L61.6732 94.1664V95.552C61.9859 95.3547 62.3107 95.2561 62.6474 95.2561C63.0756 95.2561 63.3931 95.3595 63.6 95.5664C63.8069 95.7684 63.9103 96.0811 63.9103 96.5045V97.9983H64.5165V98.5034H62.9577V97.9983H63.2753V96.62C63.2753 96.3265 63.2175 96.1148 63.1021 95.9849C62.9866 95.8502 62.8014 95.7829 62.5464 95.7829C62.4021 95.7829 62.2481 95.8045 62.0846 95.8478C61.9258 95.8863 61.7887 95.9416 61.6732 96.0138V97.9983H61.9908V98.5034H60.432ZM66.2961 95.2561C66.628 95.2561 66.9143 95.3234 67.1548 95.4581C67.4002 95.5928 67.5902 95.7853 67.7249 96.0354C67.8596 96.2856 67.927 96.5887 67.927 96.9447C67.927 97.4643 67.7778 97.8732 67.4795 98.1715C67.1861 98.4697 66.7916 98.6189 66.2961 98.6189C65.9737 98.6189 65.6923 98.5515 65.4518 98.4168C65.2112 98.2821 65.0236 98.0897 64.8889 97.8395C64.759 97.5894 64.6941 97.2911 64.6941 96.9447C64.6941 96.5887 64.759 96.2856 64.8889 96.0354C65.0236 95.7853 65.2112 95.5928 65.4518 95.4581C65.6923 95.3234 65.9737 95.2561 66.2961 95.2561ZM66.3033 95.7757C65.981 95.7757 65.738 95.8767 65.5744 96.0787C65.4157 96.2808 65.3363 96.5694 65.3363 96.9447C65.3363 97.3151 65.4157 97.6014 65.5744 97.8034C65.738 98.0007 65.981 98.0993 66.3033 98.0993C66.6304 98.0993 66.8758 98.0007 67.0394 97.8034C67.2029 97.6014 67.2847 97.3151 67.2847 96.9447C67.2847 96.5694 67.2029 96.2808 67.0394 96.0787C66.8758 95.8767 66.6304 95.7757 66.3033 95.7757ZM69.856 94.253H73.0745L73.4642 95.4221L72.9374 95.6025L72.6487 94.8159H71.1694V96.0715H72.3384V96.6344H71.1622V97.9405H72.057V98.5034H69.8488V97.9405H70.5199L70.5271 94.8159H69.856V94.253ZM75.0687 95.2561C75.4006 95.2561 75.6869 95.3234 75.9274 95.4581C76.1728 95.5928 76.3628 95.7853 76.4975 96.0354C76.6322 96.2856 76.6996 96.5887 76.6996 96.9447C76.6996 97.4643 76.5504 97.8732 76.2521 98.1715C75.9587 98.4697 75.5642 98.6189 75.0687 98.6189C74.7463 98.6189 74.4649 98.5515 74.2244 98.4168C73.9838 98.2821 73.7962 98.0897 73.6615 97.8395C73.5316 97.5894 73.4666 97.2911 73.4666 96.9447C73.4666 96.5887 73.5316 96.2856 73.6615 96.0354C73.7962 95.7853 73.9838 95.5928 74.2244 95.4581C74.4649 95.3234 74.7463 95.2561 75.0687 95.2561ZM75.0759 95.7757C74.7536 95.7757 74.5106 95.8767 74.347 96.0787C74.1883 96.2808 74.1089 96.5694 74.1089 96.9447C74.1089 97.3151 74.1883 97.6014 74.347 97.8034C74.5106 98.0007 74.7536 98.0993 75.0759 98.0993C75.403 98.0993 75.6484 98.0007 75.8119 97.8034C75.9755 97.6014 76.0573 97.3151 76.0573 96.9447C76.0573 96.5694 75.9755 96.2808 75.8119 96.0787C75.6484 95.8767 75.403 95.7757 75.0759 95.7757ZM78.0183 95.6169C78.1915 95.4966 78.3791 95.4076 78.5811 95.3499C78.7832 95.2874 78.9853 95.2561 79.1873 95.2561C79.3605 95.2561 79.4736 95.2705 79.5265 95.2994L79.6492 96.0932L79.1224 96.2014L79.0502 95.8045C78.8963 95.8093 78.7447 95.8334 78.5956 95.8767C78.4464 95.92 78.3117 95.9801 78.1915 96.0571L78.1843 97.9983H78.8914V98.5034H76.9503V97.9983H77.5564V96.021L76.8637 95.7829L77.0296 95.2777L78.0183 95.6169ZM81.2268 97.6591C80.7745 97.6591 80.4185 97.5557 80.1588 97.3488C79.9038 97.1419 79.7763 96.8557 79.7763 96.4901C79.7763 96.11 79.9062 95.8093 80.166 95.588C80.4306 95.3667 80.7866 95.2561 81.234 95.2561C81.4168 95.2561 81.578 95.2729 81.7175 95.3066C81.857 95.3355 81.9893 95.3836 82.1144 95.4509L83.1607 95.0685L83.3484 95.6169L82.4896 95.7973C82.5618 95.8839 82.6147 95.9849 82.6484 96.1004C82.6869 96.211 82.7061 96.3289 82.7061 96.454C82.7061 96.709 82.6436 96.9279 82.5185 97.1107C82.3934 97.2887 82.2178 97.4258 81.9917 97.522C81.7704 97.6134 81.5154 97.6591 81.2268 97.6591ZM81.2845 100.149C81.0969 100.149 80.8972 100.129 80.6855 100.091C80.4787 100.057 80.2862 100.012 80.1082 99.9539C79.9302 99.901 79.7955 99.8481 79.7041 99.7951L79.935 99.3116C80.1227 99.4031 80.3392 99.4752 80.5845 99.5281C80.8299 99.5811 81.0632 99.6075 81.2845 99.6075C81.4914 99.6075 81.6646 99.5907 81.8041 99.557C81.9436 99.5281 82.0494 99.48 82.1216 99.4127C82.1938 99.3501 82.2298 99.2732 82.2298 99.1818C82.2298 99.0422 82.1721 98.9388 82.0566 98.8714C81.9412 98.8041 81.7656 98.7704 81.5299 98.7704H80.4691V97.356L81.0464 97.522V98.2581H81.667C82.0615 98.2581 82.3573 98.335 82.5546 98.489C82.7566 98.6381 82.8577 98.857 82.8577 99.1457C82.8577 99.3622 82.7903 99.545 82.6556 99.6941C82.5257 99.8432 82.3429 99.9563 82.1072 100.033C81.8762 100.11 81.602 100.149 81.2845 100.149ZM81.2412 97.154C81.501 97.154 81.7054 97.089 81.8546 96.9591C82.0037 96.8292 82.0783 96.6633 82.0783 96.4612C82.0783 96.2399 82.0061 96.0691 81.8618 95.9488C81.7223 95.8238 81.5154 95.7612 81.2412 95.7612C80.967 95.7612 80.7577 95.8238 80.6134 95.9488C80.4739 96.0691 80.4041 96.2399 80.4041 96.4612C80.4041 96.6633 80.4787 96.8292 80.6278 96.9591C80.777 97.089 80.9814 97.154 81.2412 97.154ZM86.2694 98.1282C86.0722 98.2966 85.8677 98.4216 85.6561 98.5034C85.4492 98.5804 85.2207 98.6189 84.9705 98.6189C84.6289 98.6189 84.3283 98.5515 84.0685 98.4168C83.8135 98.2773 83.6162 98.0825 83.4767 97.8323C83.3372 97.5821 83.2675 97.2839 83.2675 96.9375C83.2675 96.6007 83.3324 96.3073 83.4623 96.0571C83.597 95.8021 83.7846 95.6049 84.0252 95.4654C84.2705 95.3258 84.552 95.2561 84.8695 95.2561C85.1726 95.2561 85.4323 95.321 85.6488 95.4509C85.8653 95.576 86.0337 95.754 86.154 95.9849C86.2742 96.211 86.3344 96.4804 86.3344 96.7932C86.3344 96.8413 86.332 96.8918 86.3272 96.9447C86.3224 96.9976 86.3175 97.0505 86.3127 97.1035L83.8881 97.1179C83.9025 97.344 83.9602 97.5316 84.0612 97.6808C84.1623 97.8251 84.2922 97.9309 84.4509 97.9983C84.6097 98.0656 84.7781 98.0993 84.9561 98.0993C85.1629 98.0993 85.353 98.0704 85.5262 98.0127C85.6993 97.9502 85.8581 97.8612 86.0024 97.7457L86.2694 98.1282ZM85.7066 96.6344C85.7018 96.3698 85.6248 96.1581 85.4756 95.9994C85.3265 95.8358 85.1269 95.754 84.8767 95.754C84.6313 95.754 84.4148 95.8358 84.2272 95.9994C84.0396 96.1581 83.929 96.3698 83.8953 96.6344H85.7066Z" fill="white"/>
<path d="M51.3333 90.5908C51.3837 90.4325 51.2964 90.2627 51.136 90.2198C50.2596 89.9852 49.3425 89.9375 48.4444 90.081C47.4472 90.2404 46.5013 90.6311 45.6823 91.222C44.8634 91.8128 44.1942 92.5872 43.7285 93.4833C43.2628 94.3793 43.0135 95.372 43.0005 96.3817C42.9876 97.3914 43.2114 98.3902 43.6539 99.2978C44.0965 100.206 44.7456 100.997 45.5491 101.609C46.3526 102.22 47.2883 102.635 48.281 102.82C49.1751 102.986 50.0931 102.962 50.9752 102.75C51.1367 102.711 51.2283 102.544 51.1821 102.384L50.7331 100.837C50.6868 100.677 50.5202 100.587 50.3578 100.622C49.8086 100.74 49.2404 100.748 48.6861 100.645C48.0331 100.523 47.4178 100.25 46.8893 99.8479C46.3608 99.4456 45.9338 98.9251 45.6427 98.3281C45.3517 97.7311 45.2045 97.0742 45.213 96.4101C45.2215 95.7459 45.3855 95.093 45.6918 94.5037C45.9981 93.9143 46.4382 93.405 46.9769 93.0164C47.5155 92.6278 48.1377 92.3707 48.7936 92.2659C49.3503 92.177 49.9181 92.1997 50.4642 92.3318C50.6256 92.3708 50.7945 92.2845 50.8448 92.1262L51.3333 90.5908Z" fill="white"/>
<path d="M49.9772 98.3506C50.0643 98.6711 49.8735 99.0092 49.5415 99.0192C49.3508 99.0249 49.1595 99.0093 48.971 98.9722C48.585 98.8963 48.2218 98.7322 47.9096 98.4928C47.5973 98.2535 47.3446 97.9453 47.171 97.5922C46.9975 97.2392 46.9077 96.8508 46.9088 96.4574C46.9099 96.064 47.0018 95.6762 47.1774 95.3241C47.3529 94.9721 47.6074 94.6653 47.9209 94.4277C48.2345 94.19 48.5986 94.028 48.985 93.9542C49.1737 93.9182 49.3651 93.9036 49.5558 93.9104C49.8877 93.9223 50.0767 94.2615 49.9878 94.5815L49.5088 96.3054C49.4799 96.4096 49.4796 96.5197 49.5079 96.6241L49.9772 98.3506Z" fill="white"/>
<mask id="mask1_167_6120" style="mask-type:alpha" maskUnits="userSpaceOnUse" x="175" y="65" width="247" height="110">
<rect x="175" y="65" width="247" height="110" fill="url(#paint9_linear_167_6120)"/>
</mask>
<g mask="url(#mask1_167_6120)">
<ellipse opacity="0.2" cx="300" cy="164" rx="49" ry="34" fill="#D9D9D9"/>
<ellipse opacity="0.15" cx="300" cy="164" rx="71" ry="49" fill="#D9D9D9"/>
<ellipse opacity="0.1" cx="300" cy="164" rx="93" ry="64" fill="#D9D9D9"/>
<ellipse opacity="0.1" cx="300.5" cy="164" rx="114.5" ry="79" fill="#D9D9D9"/>
<ellipse opacity="0.1" cx="299.5" cy="163.5" rx="135.5" ry="93.5" fill="#D9D9D9"/>
</g>
<mask id="mask2_167_6120" style="mask-type:alpha" maskUnits="userSpaceOnUse" x="36" y="111" width="112" height="67">
<rect x="36" y="111" width="112" height="67" fill="url(#paint10_linear_167_6120)"/>
</mask>
<g mask="url(#mask2_167_6120)">
<ellipse opacity="0.2" cx="92.5" cy="176" rx="26.5" ry="23" fill="#D9D9D9"/>
<ellipse opacity="0.25" cx="92.5" cy="175.5" rx="38.5" ry="32.5" fill="#D9D9D9"/>
<ellipse opacity="0.15" cx="93.5" cy="175.5" rx="49.5" ry="43.5" fill="#D9D9D9"/>
<ellipse opacity="0.1" cx="93" cy="175.5" rx="62" ry="52.5" fill="#D9D9D9"/>
<ellipse opacity="0.05" cx="92.5" cy="175" rx="72.5" ry="63" fill="#D9D9D9"/>
</g>
<path d="M245.056 102.508H252.084V104.692H250.348L252.532 112.252L253.652 116.228L254.464 112.364L256.676 104.608H259.56L261.52 112.224L262.36 116.2L263.452 112.224L265.804 104.692H264.012V102.508H270.648V104.692H268.156L263.648 119H260.736L258.832 111.496L257.964 107.772L256.928 111.58L254.968 119H252.196L247.66 104.692H245.056V102.508ZM280.032 117.544C279.267 118.197 278.473 118.683 277.652 119C276.849 119.299 275.963 119.448 274.992 119.448C273.667 119.448 272.5 119.187 271.492 118.664C270.503 118.123 269.737 117.367 269.196 116.396C268.655 115.425 268.384 114.268 268.384 112.924C268.384 111.617 268.636 110.479 269.14 109.508C269.663 108.519 270.391 107.753 271.324 107.212C272.276 106.671 273.368 106.4 274.6 106.4C275.776 106.4 276.784 106.652 277.624 107.156C278.464 107.641 279.117 108.332 279.584 109.228C280.051 110.105 280.284 111.151 280.284 112.364C280.284 112.551 280.275 112.747 280.256 112.952C280.237 113.157 280.219 113.363 280.2 113.568L270.792 113.624C270.848 114.501 271.072 115.229 271.464 115.808C271.856 116.368 272.36 116.779 272.976 117.04C273.592 117.301 274.245 117.432 274.936 117.432C275.739 117.432 276.476 117.32 277.148 117.096C277.82 116.853 278.436 116.508 278.996 116.06L280.032 117.544ZM277.848 111.748C277.829 110.721 277.531 109.9 276.952 109.284C276.373 108.649 275.599 108.332 274.628 108.332C273.676 108.332 272.836 108.649 272.108 109.284C271.38 109.9 270.951 110.721 270.82 111.748H277.848ZM281.153 119V117.04H283.505V103.264L280.733 102.592L281.293 100.576L285.969 101.78V117.04H288.321V119H281.153ZM298.057 108.668C297.646 108.537 297.263 108.444 296.909 108.388C296.554 108.332 296.153 108.304 295.705 108.304C294.491 108.304 293.53 108.696 292.821 109.48C292.111 110.245 291.757 111.403 291.757 112.952C291.757 114.408 292.139 115.519 292.905 116.284C293.689 117.031 294.622 117.404 295.705 117.404C296.302 117.404 296.899 117.301 297.497 117.096C298.113 116.891 298.719 116.592 299.317 116.2L300.353 117.712C299.867 118.067 299.391 118.375 298.925 118.636C298.477 118.897 297.982 119.093 297.441 119.224C296.899 119.373 296.246 119.448 295.481 119.448C294.249 119.448 293.157 119.196 292.205 118.692C291.271 118.169 290.543 117.423 290.021 116.452C289.498 115.463 289.237 114.296 289.237 112.952C289.237 111.515 289.517 110.311 290.077 109.34C290.637 108.351 291.402 107.604 292.373 107.1C293.362 106.596 294.482 106.344 295.733 106.344C296.461 106.344 297.151 106.428 297.805 106.596C298.477 106.745 299.205 106.941 299.989 107.184L300.465 110.376L298.421 110.824L298.057 108.668ZM308.012 106.4C309.3 106.4 310.411 106.661 311.344 107.184C312.296 107.707 313.034 108.453 313.556 109.424C314.079 110.395 314.34 111.571 314.34 112.952C314.34 114.968 313.762 116.555 312.604 117.712C311.466 118.869 309.935 119.448 308.012 119.448C306.762 119.448 305.67 119.187 304.736 118.664C303.803 118.141 303.075 117.395 302.552 116.424C302.048 115.453 301.796 114.296 301.796 112.952C301.796 111.571 302.048 110.395 302.552 109.424C303.075 108.453 303.803 107.707 304.736 107.184C305.67 106.661 306.762 106.4 308.012 106.4ZM308.04 108.416C306.79 108.416 305.847 108.808 305.212 109.592C304.596 110.376 304.288 111.496 304.288 112.952C304.288 114.389 304.596 115.5 305.212 116.284C305.847 117.049 306.79 117.432 308.04 117.432C309.31 117.432 310.262 117.049 310.896 116.284C311.531 115.5 311.848 114.389 311.848 112.952C311.848 111.496 311.531 110.376 310.896 109.592C310.262 108.808 309.31 108.416 308.04 108.416ZM315.285 119V117.04H317.637V109.312L314.949 108.416L315.593 106.456L319.373 107.744C319.915 107.315 320.531 106.988 321.221 106.764C321.912 106.521 322.584 106.4 323.237 106.4C324.133 106.4 324.917 106.521 325.589 106.764C326.261 107.007 326.803 107.38 327.213 107.884C327.699 107.455 328.305 107.1 329.033 106.82C329.78 106.54 330.517 106.4 331.245 106.4C332.944 106.4 334.176 106.792 334.941 107.576C335.707 108.341 336.089 109.592 336.089 111.328V117.04H338.469V119H332.421V117.04H333.625V111.692C333.625 110.516 333.429 109.685 333.037 109.2C332.645 108.696 331.973 108.444 331.021 108.444C330.461 108.444 329.911 108.537 329.369 108.724C328.828 108.892 328.408 109.116 328.109 109.396V117.04H329.313V119H324.413V117.04H325.645V111.692C325.645 110.516 325.44 109.685 325.029 109.2C324.637 108.696 323.965 108.444 323.013 108.444C322.453 108.444 321.903 108.537 321.361 108.724C320.82 108.892 320.4 109.116 320.101 109.396V117.04H321.333V119H315.285ZM350.645 117.544C349.879 118.197 349.086 118.683 348.265 119C347.462 119.299 346.575 119.448 345.605 119.448C344.279 119.448 343.113 119.187 342.105 118.664C341.115 118.123 340.35 117.367 339.809 116.396C339.267 115.425 338.997 114.268 338.997 112.924C338.997 111.617 339.249 110.479 339.753 109.508C340.275 108.519 341.003 107.753 341.937 107.212C342.889 106.671 343.981 106.4 345.213 106.4C346.389 106.4 347.397 106.652 348.237 107.156C349.077 107.641 349.73 108.332 350.197 109.228C350.663 110.105 350.897 111.151 350.897 112.364C350.897 112.551 350.887 112.747 350.869 112.952C350.85 113.157 350.831 113.363 350.813 113.568L341.405 113.624C341.461 114.501 341.685 115.229 342.077 115.808C342.469 116.368 342.973 116.779 343.589 117.04C344.205 117.301 344.858 117.432 345.549 117.432C346.351 117.432 347.089 117.32 347.761 117.096C348.433 116.853 349.049 116.508 349.609 116.06L350.645 117.544ZM348.461 111.748C348.442 110.721 348.143 109.9 347.565 109.284C346.986 108.649 346.211 108.332 345.241 108.332C344.289 108.332 343.449 108.649 342.721 109.284C341.993 109.9 341.563 110.721 341.433 111.748H348.461Z" fill="white"/>
<circle opacity="0.2" cx="372" cy="106" r="8" fill="#C7F641"/>
<circle opacity="0.1" cx="372" cy="106" r="16" fill="#C7F641"/>
<path d="M58.036 125.398H62.554V126.802H61.438L62.842 131.662L63.562 134.218L64.084 131.734L65.506 126.748H67.36L68.62 131.644L69.16 134.2L69.862 131.644L71.374 126.802H70.222V125.398H74.488V126.802H72.886L69.988 136H68.116L66.892 131.176L66.334 128.782L65.668 131.23L64.408 136H62.626L59.71 126.802H58.036V125.398ZM80.5207 135.064C80.0287 135.484 79.5187 135.796 78.9907 136C78.4747 136.192 77.9047 136.288 77.2807 136.288C76.4287 136.288 75.6787 136.12 75.0307 135.784C74.3947 135.436 73.9027 134.95 73.5547 134.326C73.2067 133.702 73.0327 132.958 73.0327 132.094C73.0327 131.254 73.1947 130.522 73.5187 129.898C73.8547 129.262 74.3227 128.77 74.9227 128.422C75.5347 128.074 76.2367 127.9 77.0287 127.9C77.7847 127.9 78.4327 128.062 78.9727 128.386C79.5127 128.698 79.9327 129.142 80.2327 129.718C80.5327 130.282 80.6827 130.954 80.6827 131.734C80.6827 131.854 80.6767 131.98 80.6647 132.112C80.6527 132.244 80.6407 132.376 80.6287 132.508L74.5807 132.544C74.6167 133.108 74.7607 133.576 75.0127 133.948C75.2647 134.308 75.5887 134.572 75.9847 134.74C76.3807 134.908 76.8007 134.992 77.2447 134.992C77.7607 134.992 78.2347 134.92 78.6667 134.776C79.0987 134.62 79.4947 134.398 79.8547 134.11L80.5207 135.064ZM79.1167 131.338C79.1047 130.678 78.9127 130.15 78.5407 129.754C78.1687 129.346 77.6707 129.142 77.0467 129.142C76.4347 129.142 75.8947 129.346 75.4267 129.754C74.9587 130.15 74.6827 130.678 74.5987 131.338H79.1167ZM81.2411 136V134.74H82.7531V125.884L80.9711 125.452L81.3311 124.156L84.3371 124.93V134.74H85.8491V136H81.2411ZM92.1079 129.358C91.8439 129.274 91.5979 129.214 91.3699 129.178C91.1419 129.142 90.8839 129.124 90.5959 129.124C89.8159 129.124 89.1979 129.376 88.7419 129.88C88.2859 130.372 88.0579 131.116 88.0579 132.112C88.0579 133.048 88.3039 133.762 88.7959 134.254C89.2999 134.734 89.8999 134.974 90.5959 134.974C90.9799 134.974 91.3639 134.908 91.7479 134.776C92.1439 134.644 92.5339 134.452 92.9179 134.2L93.5839 135.172C93.2719 135.4 92.9659 135.598 92.6659 135.766C92.3779 135.934 92.0599 136.06 91.7119 136.144C91.3639 136.24 90.9439 136.288 90.4519 136.288C89.6599 136.288 88.9579 136.126 88.3459 135.802C87.7459 135.466 87.2779 134.986 86.9419 134.362C86.6059 133.726 86.4379 132.976 86.4379 132.112C86.4379 131.188 86.6179 130.414 86.9779 129.79C87.3379 129.154 87.8299 128.674 88.4539 128.35C89.0899 128.026 89.8099 127.864 90.6139 127.864C91.0819 127.864 91.5259 127.918 91.9459 128.026C92.3779 128.122 92.8459 128.248 93.3499 128.404L93.6559 130.456L92.3419 130.744L92.1079 129.358ZM98.508 127.9C99.336 127.9 100.05 128.068 100.65 128.404C101.262 128.74 101.736 129.22 102.072 129.844C102.408 130.468 102.576 131.224 102.576 132.112C102.576 133.408 102.204 134.428 101.46 135.172C100.728 135.916 99.744 136.288 98.508 136.288C97.704 136.288 97.002 136.12 96.402 135.784C95.802 135.448 95.334 134.968 94.998 134.344C94.674 133.72 94.512 132.976 94.512 132.112C94.512 131.224 94.674 130.468 94.998 129.844C95.334 129.22 95.802 128.74 96.402 128.404C97.002 128.068 97.704 127.9 98.508 127.9ZM98.526 129.196C97.722 129.196 97.116 129.448 96.708 129.952C96.312 130.456 96.114 131.176 96.114 132.112C96.114 133.036 96.312 133.75 96.708 134.254C97.116 134.746 97.722 134.992 98.526 134.992C99.342 134.992 99.954 134.746 100.362 134.254C100.77 133.75 100.974 133.036 100.974 132.112C100.974 131.176 100.77 130.456 100.362 129.952C99.954 129.448 99.342 129.196 98.526 129.196ZM103.183 136V134.74H104.695V129.772L102.967 129.196L103.381 127.936L105.811 128.764C106.159 128.488 106.555 128.278 106.999 128.134C107.443 127.978 107.875 127.9 108.295 127.9C108.871 127.9 109.375 127.978 109.807 128.134C110.239 128.29 110.587 128.53 110.851 128.854C111.163 128.578 111.553 128.35 112.021 128.17C112.501 127.99 112.975 127.9 113.443 127.9C114.535 127.9 115.327 128.152 115.819 128.656C116.311 129.148 116.557 129.952 116.557 131.068V134.74H118.087V136H114.199V134.74H114.973V131.302C114.973 130.546 114.847 130.012 114.595 129.7C114.343 129.376 113.911 129.214 113.299 129.214C112.939 129.214 112.585 129.274 112.237 129.394C111.889 129.502 111.619 129.646 111.427 129.826V134.74H112.201V136H109.051V134.74H109.843V131.302C109.843 130.546 109.711 130.012 109.447 129.7C109.195 129.376 108.763 129.214 108.151 129.214C107.791 129.214 107.437 129.274 107.089 129.394C106.741 129.502 106.471 129.646 106.279 129.826V134.74H107.071V136H103.183ZM125.914 135.064C125.422 135.484 124.912 135.796 124.384 136C123.868 136.192 123.298 136.288 122.674 136.288C121.822 136.288 121.072 136.12 120.424 135.784C119.788 135.436 119.296 134.95 118.948 134.326C118.6 133.702 118.426 132.958 118.426 132.094C118.426 131.254 118.588 130.522 118.912 129.898C119.248 129.262 119.716 128.77 120.316 128.422C120.928 128.074 121.63 127.9 122.422 127.9C123.178 127.9 123.826 128.062 124.366 128.386C124.906 128.698 125.326 129.142 125.626 129.718C125.926 130.282 126.076 130.954 126.076 131.734C126.076 131.854 126.07 131.98 126.058 132.112C126.046 132.244 126.034 132.376 126.022 132.508L119.974 132.544C120.01 133.108 120.154 133.576 120.406 133.948C120.658 134.308 120.982 134.572 121.378 134.74C121.774 134.908 122.194 134.992 122.638 134.992C123.154 134.992 123.628 134.92 124.06 134.776C124.492 134.62 124.888 134.398 125.248 134.11L125.914 135.064ZM124.51 131.338C124.498 130.678 124.306 130.15 123.934 129.754C123.562 129.346 123.064 129.142 122.44 129.142C121.828 129.142 121.288 129.346 120.82 129.754C120.352 130.15 120.076 130.678 119.992 131.338H124.51Z" fill="white"/>
<mask id="mask3_167_6120" style="mask-type:alpha" maskUnits="userSpaceOnUse" x="219" y="140" width="160" height="91">
<rect x="219" y="140" width="160" height="91" rx="6" fill="white" fill-opacity="0.7"/>
</mask>
<g mask="url(#mask3_167_6120)">
<path fill-rule="evenodd" clip-rule="evenodd" d="M226.646 139.646L226.293 140H225C221.686 140 219 142.686 219 146V147.293L135.646 230.646L136 231L219 148V151.293L139.646 230.646L140 231L219 152V155.293L143.646 230.646L144 231L219 156V159.293L147.646 230.646L148 231L219 160V163.293L151.646 230.646L152 231L219 164V167.293L155.646 230.646L156 231L219 168V171.293L159.646 230.646L160 231L219 172V175.293L163.646 230.646L164 231L219 176V179.293L167.646 230.646L168 231L219 180V183.293L171.646 230.646L172 231L219 184V187.293L175.646 230.646L176 231L219 188V191.293L179.646 230.646L180 231L219 192V195.293L183.646 230.646L184 231L219 196V199.293L187.646 230.646L188 231L219 200V203.293L191.646 230.646L192 231L219 204V207.293L195.646 230.646L196 231L219 208V211.293L199.646 230.646L200 231L219 212V215.293L203.646 230.646L204 231L219 216V219.293L207.646 230.646L208 231L219 220V223.293L211.646 230.646L212 231L219 224V225C219 225.688 219.116 226.349 219.329 226.964L215.646 230.646L216 231L219.53 227.47C219.86 228.198 220.33 228.848 220.906 229.387L219.646 230.646L220 231L221.287 229.713C222.034 230.303 222.926 230.719 223.899 230.899L224 231L224.071 230.929C224.374 230.976 224.684 231 225 231H228H232H236H240H244H248H252H256H260H264H268H272H276H280H284H288H292H296H300H304H308H312H316H320H324H328H332H336H340H344H348H352H356H360H364H368H372H373C376.314 231 379 228.314 379 225V224L463 140L462.646 139.646L379 223.293V220L459 140L458.646 139.646L379 219.293V216L455 140L454.646 139.646L379 215.293V212L451 140L450.646 139.646L379 211.293V208L447 140L446.646 139.646L379 207.293V204L443 140L442.646 139.646L379 203.293V200L439 140L438.646 139.646L379 199.293V196L435 140L434.646 139.646L379 195.293V192L431 140L430.646 139.646L379 191.293V188L427 140L426.646 139.646L379 187.293V184L423 140L422.646 139.646L379 183.293V180L419 140L418.646 139.646L379 179.293V176L415 140L414.646 139.646L379 175.293V172L411 140L410.646 139.646L379 171.293V168L407 140L406.646 139.646L379 167.293V164L403 140L402.646 139.646L379 163.293V160L399 140L398.646 139.646L379 159.293V156L395 140L394.646 139.646L379 155.293V152L391 140L390.646 139.646L379 151.293V148L387 140L386.646 139.646L379 147.293V146C379 145.394 378.91 144.809 378.743 144.257L383 140L382.646 139.646L378.558 143.735C378.253 142.989 377.803 142.318 377.243 141.757L379 140L378.646 139.646L376.874 141.419C376.258 140.897 375.535 140.497 374.743 140.257L375 140L374.646 139.646L374.177 140.116C373.797 140.04 373.403 140 373 140L371 140L370.646 139.646L370.293 140L367 140L366.646 139.646L366.293 140L363 140L362.646 139.646L362.293 140L359 140L358.646 139.646L358.293 140L355 140L354.646 139.646L354.293 140L351 140L350.646 139.646L350.293 140L347 140L346.646 139.646L346.293 140L343 140L342.646 139.646L342.293 140L339 140L338.646 139.646L338.293 140L335 140L334.646 139.646L334.293 140L331 140L330.646 139.646L330.293 140L327 140L326.646 139.646L326.293 140L323 140L322.646 139.646L322.293 140L319 140L318.646 139.646L318.293 140L315 140L314.646 139.646L314.293 140L311 140L310.646 139.646L310.293 140L307 140L306.646 139.646L306.293 140L303 140L302.646 139.646L302.293 140L299 140L298.646 139.646L298.293 140L295 140L294.646 139.646L294.293 140L291 140L290.646 139.646L290.293 140L287 140L286.646 139.646L286.293 140L283 140L282.646 139.646L282.293 140L279 140L278.646 139.646L278.293 140L275 140L274.646 139.646L274.293 140L271 140L270.646 139.646L270.293 140L267 140L266.646 139.646L266.293 140L263 140L262.646 139.646L262.293 140L259 140L258.646 139.646L258.293 140L255 140L254.646 139.646L254.293 140L251 140L250.646 139.646L250.293 140L247 140L246.646 139.646L246.293 140L243 140L242.646 139.646L242.293 140L239 140L238.646 139.646L238.293 140L235 140L234.646 139.646L234.293 140L231 140L230.646 139.646L230.293 140L227 140L226.646 139.646ZM378.5 223.793V220.5L368.5 230.5H371.793L378.5 223.793ZM372.5 230.5H373C376.038 230.5 378.5 228.038 378.5 225V224.5L372.5 230.5ZM367.793 230.5L378.5 219.793V216.5L364.5 230.5H367.793ZM378.5 215.793V212.5L360.5 230.5H363.793L378.5 215.793ZM359.793 230.5L378.5 211.793V208.5L356.5 230.5H359.793ZM378.5 207.793V204.5L352.5 230.5H355.793L378.5 207.793ZM351.793 230.5L378.5 203.793V200.5L348.5 230.5H351.793ZM378.5 199.793V196.5L344.5 230.5H347.793L378.5 199.793ZM343.793 230.5L378.5 195.793V192.5L340.5 230.5H343.793ZM378.5 191.793V188.5L336.5 230.5H339.793L378.5 191.793ZM335.793 230.5L378.5 187.793V184.5L332.5 230.5H335.793ZM378.5 183.793V180.5L328.5 230.5H331.793L378.5 183.793ZM327.793 230.5L378.5 179.793V176.5L324.5 230.5H327.793ZM378.5 175.793V172.5L320.5 230.5H323.793L378.5 175.793ZM319.793 230.5L378.5 171.793V168.5L316.5 230.5H319.793ZM378.5 167.793V164.5L312.5 230.5H315.793L378.5 167.793ZM311.793 230.5L378.5 163.793V160.5L308.5 230.5H311.793ZM378.5 159.793V156.5L304.5 230.5H307.793L378.5 159.793ZM303.793 230.5L378.5 155.793V152.5L300.5 230.5H303.793ZM378.5 151.793V148.5L296.5 230.5H299.793L378.5 151.793ZM295.793 230.5L378.5 147.793V146C378.5 145.539 378.443 145.091 378.337 144.664L292.5 230.5H295.793ZM378.171 144.122C377.894 143.359 377.452 142.674 376.889 142.111L288.5 230.5H291.793L378.171 144.122ZM287.793 230.5L376.52 141.773C375.894 141.252 375.151 140.867 374.337 140.664L284.5 230.5H287.793ZM373.743 140.55C373.5 140.517 373.252 140.5 373 140.5H370.5L280.5 230.5H283.793L373.743 140.55ZM279.793 230.5L369.793 140.5H366.5L276.5 230.5H279.793ZM365.793 140.5H362.5L272.5 230.5H275.793L365.793 140.5ZM271.793 230.5L361.793 140.5H358.5L268.5 230.5H271.793ZM357.793 140.5H354.5L264.5 230.5H267.793L357.793 140.5ZM263.793 230.5L353.793 140.5H350.5L260.5 230.5H263.793ZM349.793 140.5H346.5L256.5 230.5H259.793L349.793 140.5ZM255.793 230.5L345.793 140.5H342.5L252.5 230.5H255.793ZM341.793 140.5H338.5L248.5 230.5H251.793L341.793 140.5ZM247.793 230.5L337.793 140.5H334.5L244.5 230.5H247.793ZM333.793 140.5H330.5L240.5 230.5H243.793L333.793 140.5ZM239.793 230.5L329.793 140.5H326.5L236.5 230.5H239.793ZM325.793 140.5H322.5L232.5 230.5H235.793L325.793 140.5ZM231.793 230.5L321.793 140.5H318.5L228.5 230.5H231.793ZM317.793 140.5H314.5L224.521 230.479C224.679 230.493 224.839 230.5 225 230.5H227.793L317.793 140.5ZM223.902 230.391L313.793 140.5H310.5L221.643 229.357C222.296 229.861 223.064 230.221 223.902 230.391ZM309.793 140.5H306.5L219.911 227.089C220.216 227.833 220.68 228.495 221.26 229.033L309.793 140.5ZM219.726 226.567L305.793 140.5H302.5L219.5 223.5V225C219.5 225.544 219.579 226.07 219.726 226.567ZM301.793 140.5H298.5L219.5 219.5V222.793L301.793 140.5ZM219.5 215.5V218.793L297.793 140.5H294.5L219.5 215.5ZM293.793 140.5H290.5L219.5 211.5V214.793L293.793 140.5ZM219.5 207.5V210.793L289.793 140.5H286.5L219.5 207.5ZM285.793 140.5H282.5L219.5 203.5V206.793L285.793 140.5ZM219.5 199.5V202.793L281.793 140.5H278.5L219.5 199.5ZM277.793 140.5H274.5L219.5 195.5V198.793L277.793 140.5ZM219.5 191.5V194.793L273.793 140.5H270.5L219.5 191.5ZM269.793 140.5H266.5L219.5 187.5V190.793L269.793 140.5ZM219.5 183.5V186.793L265.793 140.5H262.5L219.5 183.5ZM261.793 140.5H258.5L219.5 179.5V182.793L261.793 140.5ZM219.5 178.793L257.793 140.5H254.5L219.5 175.5V178.793ZM253.793 140.5H250.5L219.5 171.5V174.793L253.793 140.5ZM219.5 170.793L249.793 140.5H246.5L219.5 167.5V170.793ZM245.793 140.5H242.5L219.5 163.5V166.793L245.793 140.5ZM219.5 162.793L241.793 140.5H238.5L219.5 159.5V162.793ZM237.793 140.5H234.5L219.5 155.5V158.793L237.793 140.5ZM219.5 154.793L233.793 140.5H230.5L219.5 151.5V154.793ZM229.793 140.5H226.5L219.5 147.5V150.793L229.793 140.5ZM225 140.5H225.793L219.5 146.793V146C219.5 142.962 221.962 140.5 225 140.5Z" fill="white"/>
</g>
<path d="M299 176.5C304.508 176.5 309 180.992 309 186.5C309 192.047 304.508 196.5 299 196.5C293.453 196.5 289 192.047 289 186.5C289 180.992 293.453 176.5 299 176.5ZM303.531 187.32C303.805 187.164 304 186.852 304 186.5C304 186.188 303.805 185.875 303.531 185.719L297.906 182.281C297.75 182.203 297.594 182.125 297.438 182.125C296.891 182.125 296.5 182.594 296.5 183.062V189.938C296.5 190.445 296.891 190.875 297.438 190.875C297.594 190.875 297.75 190.836 297.906 190.758L303.531 187.32Z" fill="#C7F641"/>
<path d="M297.438 190.875C296.891 190.875 296.5 190.445 296.5 189.938V183.062C296.5 182.594 296.891 182.125 297.438 182.125C297.594 182.125 297.75 182.203 297.906 182.281L303.531 185.719C303.805 185.875 304 186.188 304 186.5C304 186.852 303.805 187.164 303.531 187.32L297.906 190.758C297.75 190.836 297.594 190.875 297.438 190.875Z" fill="#1E293B"/>
<mask id="mask4_167_6120" style="mask-type:alpha" maskUnits="userSpaceOnUse" x="43" y="150" width="98" height="56">
<rect x="43" y="150" width="98" height="55.7375" rx="3.675" fill="white" fill-opacity="0.7"/>
</mask>
<g mask="url(#mask4_167_6120)">
<rect x="43.25" y="150.25" width="97.5" height="55.2375" rx="3.425" stroke="white" stroke-width="0.5"/>
<line x1="-8.0143" y1="205.561" x2="47.7232" y2="149.823" stroke="white" stroke-width="0.5"/>
<line x1="-4.27675" y1="205.561" x2="51.4608" y2="149.823" stroke="white" stroke-width="0.5"/>
<line x1="-0.539203" y1="205.561" x2="55.1983" y2="149.823" stroke="white" stroke-width="0.5"/>
<line x1="3.19835" y1="205.561" x2="58.9359" y2="149.823" stroke="white" stroke-width="0.5"/>
<line x1="6.93589" y1="205.561" x2="62.6734" y2="149.823" stroke="white" stroke-width="0.5"/>
<line x1="10.6734" y1="205.561" x2="66.4109" y2="149.823" stroke="white" stroke-width="0.5"/>
<line x1="14.411" y1="205.561" x2="70.1485" y2="149.823" stroke="white" stroke-width="0.5"/>
<line x1="18.1485" y1="205.561" x2="73.886" y2="149.823" stroke="white" stroke-width="0.5"/>
<line x1="21.8861" y1="205.561" x2="77.6236" y2="149.823" stroke="white" stroke-width="0.5"/>
<line x1="25.6236" y1="205.561" x2="81.3611" y2="149.823" stroke="white" stroke-width="0.5"/>
<line x1="29.3612" y1="205.561" x2="85.0987" y2="149.823" stroke="white" stroke-width="0.5"/>
<line x1="33.0987" y1="205.561" x2="88.8362" y2="149.823" stroke="white" stroke-width="0.5"/>
<line x1="36.8363" y1="205.561" x2="92.5738" y2="149.823" stroke="white" stroke-width="0.5"/>
<line x1="40.5738" y1="205.561" x2="96.3113" y2="149.823" stroke="white" stroke-width="0.5"/>
<line x1="44.3114" y1="205.561" x2="100.049" y2="149.823" stroke="white" stroke-width="0.5"/>
<line x1="48.0489" y1="205.561" x2="103.786" y2="149.823" stroke="white" stroke-width="0.5"/>
<line x1="51.7865" y1="205.561" x2="107.524" y2="149.823" stroke="white" stroke-width="0.5"/>
<line x1="55.524" y1="205.561" x2="111.262" y2="149.823" stroke="white" stroke-width="0.5"/>
<line x1="59.2616" y1="205.561" x2="114.999" y2="149.823" stroke="white" stroke-width="0.5"/>
<line x1="62.9991" y1="205.561" x2="118.737" y2="149.823" stroke="white" stroke-width="0.5"/>
<line x1="66.7367" y1="205.561" x2="122.474" y2="149.823" stroke="white" stroke-width="0.5"/>
<line x1="70.4742" y1="205.561" x2="126.212" y2="149.823" stroke="white" stroke-width="0.5"/>
<line x1="74.2118" y1="205.561" x2="129.949" y2="149.823" stroke="white" stroke-width="0.5"/>
<line x1="77.9493" y1="205.561" x2="133.687" y2="149.823" stroke="white" stroke-width="0.5"/>
<line x1="81.6869" y1="205.561" x2="137.424" y2="149.823" stroke="white" stroke-width="0.5"/>
<line x1="85.4244" y1="205.561" x2="141.162" y2="149.823" stroke="white" stroke-width="0.5"/>
<line x1="89.162" y1="205.561" x2="144.899" y2="149.823" stroke="white" stroke-width="0.5"/>
<line x1="92.8995" y1="205.561" x2="148.637" y2="149.823" stroke="white" stroke-width="0.5"/>
<line x1="96.6371" y1="205.561" x2="152.375" y2="149.823" stroke="white" stroke-width="0.5"/>
<line x1="100.375" y1="205.561" x2="156.112" y2="149.823" stroke="white" stroke-width="0.5"/>
<line x1="104.112" y1="205.561" x2="159.85" y2="149.823" stroke="white" stroke-width="0.5"/>
<line x1="107.85" y1="205.561" x2="163.587" y2="149.823" stroke="white" stroke-width="0.5"/>
<line x1="111.587" y1="205.561" x2="167.325" y2="149.823" stroke="white" stroke-width="0.5"/>
<line x1="115.325" y1="205.561" x2="171.062" y2="149.823" stroke="white" stroke-width="0.5"/>
<line x1="119.062" y1="205.561" x2="174.8" y2="149.823" stroke="white" stroke-width="0.5"/>
<line x1="122.8" y1="205.561" x2="178.537" y2="149.823" stroke="white" stroke-width="0.5"/>
<line x1="126.537" y1="205.561" x2="182.275" y2="149.823" stroke="white" stroke-width="0.5"/>
<line x1="130.275" y1="205.561" x2="186.013" y2="149.823" stroke="white" stroke-width="0.5"/>
<line x1="134.013" y1="205.561" x2="189.75" y2="149.823" stroke="white" stroke-width="0.5"/>
<line x1="137.75" y1="205.561" x2="193.488" y2="149.823" stroke="white" stroke-width="0.5"/>
</g>
<path d="M91.8774 169.702C96.3538 169.702 100.005 173.353 100.005 177.829C100.005 182.338 96.3538 185.957 91.8774 185.957C87.3692 185.957 83.75 182.338 83.75 177.829C83.75 173.353 87.3692 169.702 91.8774 169.702ZM95.5601 178.496C95.7824 178.369 95.9411 178.115 95.9411 177.829C95.9411 177.576 95.7824 177.322 95.5601 177.195L90.9885 174.401C90.8615 174.337 90.7345 174.274 90.6075 174.274C90.163 174.274 89.8456 174.655 89.8456 175.036V180.623C89.8456 181.036 90.163 181.385 90.6075 181.385C90.7345 181.385 90.8615 181.353 90.9885 181.29L95.5601 178.496Z" fill="#C7F641"/>
<path d="M90.6075 181.385C90.163 181.385 89.8456 181.036 89.8456 180.623V175.036C89.8456 174.655 90.163 174.274 90.6075 174.274C90.7345 174.274 90.8615 174.337 90.9885 174.401L95.5601 177.195C95.7824 177.322 95.9411 177.576 95.9411 177.829C95.9411 178.115 95.7824 178.369 95.5601 178.496L90.9885 181.29C90.8615 181.353 90.7345 181.385 90.6075 181.385Z" fill="#1E293B"/>
<rect x="44" y="214" width="40" height="30" rx="3" fill="white" fill-opacity="0.06"/>
<rect x="92" y="214" width="48" height="3" rx="1.5" fill="white" fill-opacity="0.06"/>
<rect x="92" y="222" width="40" height="3" rx="1.5" fill="white" fill-opacity="0.06"/>
<rect x="92" y="230" width="45" height="3" rx="1.5" fill="white" fill-opacity="0.06"/>
<rect x="92" y="238" width="16" height="3" rx="1.5" fill="white" fill-opacity="0.06"/>
<path d="M386.178 112.522C387.343 112.165 388.631 112.848 388.989 114.013L390.309 118.316C391.408 121.901 389.375 125.662 385.835 126.748L381.533 128.068C379.606 128.659 377.493 128.327 375.906 127.147L370.151 122.93C369.785 122.699 369.586 122.368 369.476 122.009C369.16 120.979 369.719 119.925 370.66 119.636C371.243 119.457 371.863 119.561 372.359 119.899L375.899 122.491L371.459 108.016C371.157 107.03 371.671 105.989 372.702 105.673C373.688 105.371 374.742 105.93 375.044 106.916L377.093 113.593C377.341 113.125 377.765 112.749 378.348 112.571C379.379 112.255 380.464 112.755 381.004 113.717C381.17 112.98 381.705 112.325 382.511 112.078C383.542 111.762 384.627 112.262 385.168 113.224C385.413 112.904 385.73 112.66 386.178 112.522ZM381.427 122.609L380.107 118.307C379.997 117.948 379.529 117.7 379.171 117.81C378.767 117.934 378.563 118.388 378.673 118.747L379.993 123.049C380.117 123.452 380.527 123.67 380.93 123.546C381.289 123.436 381.551 123.012 381.427 122.609ZM384.295 121.729L382.976 117.427C382.866 117.069 382.397 116.82 382.039 116.93C381.635 117.054 381.432 117.508 381.542 117.867L382.861 122.169C382.985 122.572 383.395 122.79 383.798 122.666C384.157 122.556 384.419 122.133 384.295 121.729ZM387.163 120.849L385.844 116.547C385.734 116.189 385.265 115.94 384.907 116.05C384.503 116.174 384.3 116.629 384.41 116.987L385.729 121.289C385.853 121.693 386.263 121.91 386.666 121.786C387.025 121.676 387.287 121.253 387.163 120.849Z" fill="#C7F641"/>
</g>
</g>
<defs>
<linearGradient id="paint0_linear_167_6120" x1="139.5" y1="138.5" x2="139.091" y2="250" gradientUnits="userSpaceOnUse">
<stop stop-color="#D9D9D9" stop-opacity="0.75"/>
<stop offset="0.948966" stop-color="#D9D9D9" stop-opacity="0"/>
</linearGradient>
<linearGradient id="paint1_linear_167_6120" x1="172.131" y1="249.12" x2="170.869" y2="5.00585" gradientUnits="userSpaceOnUse">
<stop stop-color="white" stop-opacity="0"/>
<stop offset="0.12" stop-color="white"/>
<stop offset="0.88" stop-color="white"/>
<stop offset="1" stop-color="white" stop-opacity="0"/>
</linearGradient>
<linearGradient id="paint2_linear_167_6120" x1="151.131" y1="249.296" x2="150.323" y2="54.0028" gradientUnits="userSpaceOnUse">
<stop stop-color="white" stop-opacity="0"/>
<stop offset="0.12" stop-color="white"/>
<stop offset="0.88" stop-color="white"/>
<stop offset="1" stop-color="white" stop-opacity="0"/>
</linearGradient>
<linearGradient id="paint3_linear_167_6120" x1="33.1313" y1="249.271" x2="32.2646" y2="47.0032" gradientUnits="userSpaceOnUse">
<stop stop-color="white" stop-opacity="0"/>
<stop offset="0.12" stop-color="white"/>
<stop offset="0.88" stop-color="white"/>
<stop offset="1" stop-color="white" stop-opacity="0"/>
</linearGradient>
<linearGradient id="paint4_linear_167_6120" x1="425.131" y1="249.102" x2="423.817" y2="0.00624251" gradientUnits="userSpaceOnUse">
<stop stop-color="white" stop-opacity="0"/>
<stop offset="0.12" stop-color="white"/>
<stop offset="0.88" stop-color="white"/>
<stop offset="1" stop-color="white" stop-opacity="0"/>
</linearGradient>
<linearGradient id="paint5_linear_167_6120" x1="171.62" y1="71.1188" x2="-0.23775" y2="71.7444" gradientUnits="userSpaceOnUse">
<stop stop-color="white" stop-opacity="0"/>
<stop offset="0.12" stop-color="white"/>
<stop offset="0.88" stop-color="white"/>
<stop offset="1" stop-color="white" stop-opacity="0"/>
</linearGradient>
<linearGradient id="paint6_linear_167_6120" x1="455.293" y1="31.1188" x2="135.568" y2="33.2841" gradientUnits="userSpaceOnUse">
<stop stop-color="white" stop-opacity="0"/>
<stop offset="0.12" stop-color="white"/>
<stop offset="0.88" stop-color="white"/>
<stop offset="1" stop-color="white" stop-opacity="0"/>
</linearGradient>
<linearGradient id="paint7_linear_167_6120" x1="23.9997" y1="21.0003" x2="4.10975" y2="-2.61684" gradientUnits="userSpaceOnUse">
<stop stop-color="white" stop-opacity="0"/>
<stop offset="1" stop-color="white"/>
</linearGradient>
<linearGradient id="paint8_linear_167_6120" x1="9.99992" y1="29.4999" x2="33.5805" y2="6.10476" gradientUnits="userSpaceOnUse">
<stop stop-color="white" stop-opacity="0"/>
<stop offset="1" stop-color="white"/>
</linearGradient>
<linearGradient id="paint9_linear_167_6120" x1="298.5" y1="65" x2="298.5" y2="175" gradientUnits="userSpaceOnUse">
<stop stop-color="#D9D9D9"/>
<stop offset="1" stop-color="#D9D9D9" stop-opacity="0"/>
</linearGradient>
<linearGradient id="paint10_linear_167_6120" x1="92" y1="111" x2="92" y2="178" gradientUnits="userSpaceOnUse">
<stop stop-color="#D9D9D9"/>
<stop offset="1" stop-color="#D9D9D9" stop-opacity="0"/>
</linearGradient>
<clipPath id="clip0_167_6120">
<rect width="450" height="250" fill="white"/>
</clipPath>
</defs>
</svg>
