<svg width="450" height="250" viewBox="0 0 450 250" fill="none" xmlns="http://www.w3.org/2000/svg">
<g clip-path="url(#clip0_157_130)">
<mask id="mask0_157_130" style="mask-type:alpha" maskUnits="userSpaceOnUse" x="0" y="188" width="450" height="62">
<rect y="188" width="450" height="62" fill="url(#paint0_linear_157_130)"/>
</mask>
<g mask="url(#mask0_157_130)">
<rect x="12.25" y="198.25" width="49.5" height="39.5" rx="5.75" fill="white" fill-opacity="0.14"/>
<rect x="12.25" y="198.25" width="49.5" height="39.5" rx="5.75" stroke="white" stroke-width="0.5"/>
<path d="M23.216 225V223.128H25.544L29.432 212.736H27.104V210.864H32L36.344 223.128H38.6V225H32.648V223.128H34.112L33.344 220.968H28.28L27.488 223.128H28.976V225H23.216ZM28.904 219.264H32.744L30.92 213.384L28.904 219.264ZM46.4328 224.352C45.3608 225.04 44.2248 225.384 43.0248 225.384C41.6488 225.384 40.6008 225.112 39.8808 224.568C39.1608 224.008 38.7928 223.2 38.7768 222.144C38.7608 220.016 40.1288 218.952 42.8808 218.952H45.8568C45.8568 217.912 45.6568 217.144 45.2568 216.648C44.8568 216.136 44.2728 215.88 43.5048 215.88C43.1368 215.88 42.7768 215.904 42.4248 215.952C42.0728 216 41.7368 216.072 41.4168 216.168L41.1768 217.464L39.4488 217.152L39.8568 214.872C40.4648 214.648 41.0728 214.48 41.6808 214.368C42.2888 214.256 42.8888 214.2 43.4808 214.2C44.9528 214.2 46.0648 214.6 46.8168 215.4C47.5848 216.184 47.9688 217.344 47.9688 218.88V223.008L50.1768 223.728L49.6248 225.456L46.4328 224.352ZM42.9528 220.536C42.3128 220.536 41.8168 220.672 41.4648 220.944C41.1128 221.216 40.9368 221.608 40.9368 222.12C40.9368 223.176 41.6648 223.704 43.1208 223.704C44.1608 223.704 45.0728 223.424 45.8568 222.864V220.56L42.9528 220.536Z" fill="white"/>
<rect x="74" y="198" width="50" height="40" rx="6" fill="white" fill-opacity="0.07"/>
<path d="M98.0898 227L95.9805 221.562H89.1133L87.0156 227H85L91.7031 209.797H93.4961L100.152 227H98.0898ZM95.3828 219.793L93.3789 214.391C93.332 214.25 93.2539 214.02 93.1445 213.699C93.043 213.379 92.9375 213.047 92.8281 212.703C92.7188 212.359 92.6289 212.082 92.5586 211.871C92.4805 212.191 92.3945 212.512 92.3008 212.832C92.2148 213.145 92.1289 213.438 92.043 213.711C91.957 213.977 91.8828 214.203 91.8203 214.391L89.7812 219.793H95.3828ZM106.323 213.945C107.854 213.945 108.991 214.289 109.733 214.977C110.475 215.664 110.846 216.762 110.846 218.27V227H109.428L109.053 225.102H108.96C108.6 225.57 108.225 225.965 107.835 226.285C107.444 226.598 106.991 226.836 106.475 227C105.967 227.156 105.342 227.234 104.6 227.234C103.819 227.234 103.124 227.098 102.514 226.824C101.913 226.551 101.436 226.137 101.085 225.582C100.741 225.027 100.569 224.324 100.569 223.473C100.569 222.191 101.077 221.207 102.092 220.52C103.108 219.832 104.655 219.457 106.733 219.395L108.948 219.301V218.516C108.948 217.406 108.71 216.629 108.233 216.184C107.757 215.738 107.085 215.516 106.217 215.516C105.546 215.516 104.905 215.613 104.296 215.809C103.686 216.004 103.108 216.234 102.561 216.5L101.964 215.023C102.542 214.727 103.206 214.473 103.956 214.262C104.706 214.051 105.495 213.945 106.323 213.945ZM108.925 220.672L106.967 220.754C105.366 220.816 104.237 221.078 103.581 221.539C102.925 222 102.596 222.652 102.596 223.496C102.596 224.23 102.819 224.773 103.264 225.125C103.71 225.477 104.3 225.652 105.034 225.652C106.175 225.652 107.108 225.336 107.835 224.703C108.561 224.07 108.925 223.121 108.925 221.855V220.672Z" fill="white"/>
<rect x="136" y="198" width="52" height="40" rx="6" fill="white" fill-opacity="0.07"/>
<path d="M147.864 219.256H155.808C156.272 219.256 156.656 219.296 156.96 219.376C157.264 219.44 157.536 219.56 157.776 219.736L158.664 219.496V220.552V221.656H148.92C148.648 221.656 148.432 221.584 148.272 221.44C148.112 221.28 148 221.056 147.936 220.768C147.888 220.464 147.864 220.104 147.864 219.688V219.256ZM151.416 226.072C151.24 226.12 151.048 226.16 150.84 226.192C150.648 226.224 150.448 226.24 150.24 226.24C149.952 226.24 149.688 226.2 149.448 226.12C149.208 226.056 149.016 225.944 148.872 225.784C148.744 225.608 148.68 225.376 148.68 225.088C148.712 224.192 148.776 223.312 148.872 222.448C148.968 221.568 149.096 220.712 149.256 219.88C149.416 219.032 149.608 218.216 149.832 217.432C150.056 216.632 150.304 215.864 150.576 215.128C150.848 214.376 151.144 213.648 151.464 212.944C151.8 212.24 152.152 211.568 152.52 210.928C152.888 210.288 153.28 209.68 153.696 209.104C153.856 209.056 154.032 209.024 154.224 209.008C154.432 208.976 154.664 208.96 154.92 208.96C155.416 208.96 155.84 209.04 156.192 209.2C156.544 209.344 156.872 209.616 157.176 210.016C157.496 210.416 157.824 211 158.16 211.768C158.48 212.424 158.792 213.176 159.096 214.024C159.4 214.856 159.688 215.76 159.96 216.736C160.232 217.696 160.48 218.712 160.704 219.784C160.928 220.856 161.104 221.944 161.232 223.048C161.28 223.544 161.32 224.056 161.352 224.584C161.4 225.096 161.424 225.592 161.424 226.072C161.28 226.12 161.112 226.16 160.92 226.192C160.744 226.224 160.56 226.24 160.368 226.24C160.016 226.24 159.712 226.192 159.456 226.096C159.216 226.016 159.032 225.888 158.904 225.712C158.776 225.536 158.696 225.312 158.664 225.04C158.568 223.92 158.44 222.848 158.28 221.824C158.136 220.8 157.952 219.808 157.728 218.848C157.52 217.888 157.272 216.96 156.984 216.064C156.696 215.168 156.368 214.296 156 213.448C155.648 212.6 155.256 211.768 154.824 210.952L155.856 211.6H154.272L155.352 210.952C154.888 211.832 154.456 212.704 154.056 213.568C153.672 214.432 153.328 215.32 153.024 216.232C152.736 217.128 152.472 218.08 152.232 219.088C152.008 220.096 151.824 221.176 151.68 222.328C151.552 223.464 151.464 224.712 151.416 226.072ZM173.865 217.528C173.865 217.928 173.865 218.328 173.865 218.728C173.865 219.128 173.865 219.528 173.865 219.928C173.865 220.328 173.865 220.736 173.865 221.152C173.865 221.552 173.865 221.952 173.865 222.352C173.865 222.576 173.865 222.784 173.865 222.976C173.881 223.152 173.897 223.336 173.913 223.528C173.993 223.576 174.081 223.616 174.177 223.648C174.273 223.664 174.361 223.672 174.441 223.672C174.633 223.672 174.817 223.648 174.993 223.6C175.169 223.536 175.329 223.448 175.473 223.336H175.617C175.633 223.416 175.641 223.488 175.641 223.552C175.657 223.6 175.665 223.664 175.665 223.744C175.665 224.112 175.601 224.472 175.473 224.824C175.361 225.16 175.209 225.432 175.017 225.64C174.809 225.832 174.601 225.968 174.393 226.048C174.201 226.144 173.993 226.192 173.769 226.192C173.385 226.192 173.025 226.104 172.689 225.928C172.369 225.736 172.097 225.488 171.873 225.184C171.665 224.864 171.497 224.504 171.369 224.104C171.241 223.704 171.177 223.296 171.177 222.88C171.177 222.432 171.177 221.976 171.177 221.512C171.177 221.032 171.177 220.608 171.177 220.24C171.177 219.696 171.185 219.2 171.201 218.752C171.233 218.304 171.265 217.864 171.297 217.432C171.329 217 171.361 216.56 171.393 216.112C171.121 215.936 170.833 215.8 170.529 215.704C170.225 215.592 169.889 215.512 169.521 215.464C169.169 215.416 168.769 215.392 168.321 215.392C167.841 215.392 167.393 215.416 166.977 215.464C166.561 215.512 166.161 215.576 165.777 215.656C165.409 215.736 165.041 215.84 164.673 215.968H164.529C164.513 215.856 164.489 215.728 164.457 215.584C164.441 215.44 164.433 215.288 164.433 215.128C164.433 214.856 164.473 214.592 164.553 214.336C164.633 214.08 164.761 213.872 164.937 213.712C165.097 213.536 165.353 213.392 165.705 213.28C166.057 213.168 166.497 213.088 167.025 213.04C167.553 212.976 168.169 212.944 168.873 212.944C169.689 212.944 170.401 213.072 171.009 213.328C171.633 213.568 172.153 213.904 172.569 214.336C173.001 214.768 173.321 215.256 173.529 215.8C173.753 216.344 173.865 216.92 173.865 217.528ZM166.113 222.496C166.113 223.024 166.241 223.4 166.497 223.624C166.753 223.848 167.193 223.96 167.817 223.96C168.217 223.96 168.625 223.888 169.041 223.744C169.457 223.6 169.881 223.368 170.313 223.048C170.745 222.728 171.161 222.312 171.561 221.8L171.585 223.696H171.201C170.977 224.128 170.657 224.536 170.241 224.92C169.841 225.304 169.369 225.624 168.825 225.88C168.297 226.12 167.713 226.24 167.073 226.24C166.305 226.24 165.649 226.104 165.105 225.832C164.561 225.56 164.145 225.16 163.857 224.632C163.569 224.088 163.425 223.416 163.425 222.616V222.472C163.425 221.976 163.537 221.504 163.761 221.056C163.985 220.608 164.289 220.2 164.673 219.832C165.073 219.464 165.537 219.176 166.065 218.968C166.609 218.76 167.193 218.656 167.817 218.656C168.473 218.656 169.081 218.696 169.641 218.776C170.217 218.84 170.713 218.936 171.129 219.064C171.545 219.176 171.833 219.304 171.993 219.448C172.089 219.528 172.169 219.632 172.233 219.76C172.297 219.872 172.345 220.024 172.377 220.216C172.409 220.392 172.425 220.608 172.425 220.864C171.977 220.752 171.529 220.672 171.081 220.624C170.633 220.56 170.185 220.512 169.737 220.48C169.305 220.448 168.881 220.432 168.465 220.432C168.001 220.432 167.601 220.472 167.265 220.552C166.929 220.616 166.633 220.728 166.377 220.888C166.297 221.112 166.233 221.352 166.185 221.608C166.137 221.848 166.113 222.12 166.113 222.424V222.496Z" fill="white"/>
<rect x="200" y="198" width="53" height="40" rx="6" fill="white" fill-opacity="0.07"/>
<path d="M211.288 226L219.256 207.64H219.448L227.416 226H223.384L218.296 213.088L220.816 211.36L214.72 226H211.288ZM216.736 219.616H222.04L223.264 222.544H215.656L216.736 219.616ZM233.135 226.288C232.159 226.288 231.271 226.096 230.471 225.712C229.687 225.312 229.063 224.704 228.599 223.888C228.135 223.072 227.903 222.032 227.903 220.768C227.903 219.584 228.143 218.56 228.623 217.696C229.103 216.832 229.735 216.168 230.519 215.704C231.303 215.224 232.135 214.984 233.015 214.984C234.055 214.984 234.839 215.16 235.367 215.512C235.911 215.848 236.359 216.224 236.711 216.64L236.567 217.048L236.879 215.512H239.999V226H236.639V223.72L236.903 224.44C236.871 224.44 236.775 224.536 236.615 224.728C236.455 224.904 236.215 225.12 235.895 225.376C235.591 225.616 235.207 225.824 234.743 226C234.295 226.192 233.759 226.288 233.135 226.288ZM234.095 223.552C234.703 223.552 235.215 223.424 235.631 223.168C236.047 222.896 236.383 222.496 236.639 221.968V219.4C236.447 218.888 236.111 218.48 235.631 218.176C235.167 217.872 234.615 217.72 233.975 217.72C233.495 217.72 233.047 217.848 232.631 218.104C232.231 218.344 231.911 218.68 231.671 219.112C231.431 219.544 231.311 220.04 231.311 220.6C231.311 221.16 231.439 221.664 231.695 222.112C231.951 222.56 232.287 222.912 232.703 223.168C233.135 223.424 233.599 223.552 234.095 223.552Z" fill="white"/>
<rect x="265" y="198" width="51" height="40" rx="6" fill="white" fill-opacity="0.07"/>
<path d="M280.464 218.8H287.664L287.688 220.144H280.296L280.464 218.8ZM283.704 209.872L284.112 210.568L279.336 224.44C279.336 224.52 279.44 224.6 279.648 224.68C279.856 224.744 280.112 224.8 280.416 224.848C280.72 224.88 281.032 224.896 281.352 224.896H281.712V226H276.192V224.896H276.312C276.76 224.896 277.112 224.832 277.368 224.704C277.624 224.576 277.832 224.288 277.992 223.84L283.128 208.96H285.552L290.904 224.2C291.016 224.504 291.2 224.696 291.456 224.776C291.728 224.856 292.056 224.896 292.44 224.896H292.56V226H286.344V224.896H286.752C287.056 224.896 287.368 224.888 287.688 224.872C288.008 224.856 288.272 224.832 288.48 224.8C288.704 224.752 288.816 224.704 288.816 224.656L283.704 209.872ZM301.161 218.608V219.808C300.361 219.888 299.649 219.992 299.025 220.12C298.401 220.248 297.857 220.4 297.393 220.576C296.945 220.752 296.577 220.96 296.289 221.2C296.001 221.424 295.785 221.688 295.641 221.992C295.497 222.296 295.425 222.632 295.425 223C295.425 223.384 295.513 223.728 295.689 224.032C295.865 224.32 296.113 224.544 296.433 224.704C296.753 224.864 297.121 224.944 297.537 224.944C298.097 224.944 298.593 224.808 299.025 224.536C299.473 224.264 299.865 223.88 300.201 223.384C300.537 222.888 300.833 222.304 301.089 221.632L301.113 223.288C300.873 223.896 300.553 224.424 300.153 224.872C299.753 225.304 299.289 225.64 298.761 225.88C298.233 226.12 297.633 226.24 296.961 226.24C296.273 226.24 295.641 226.112 295.065 225.856C294.505 225.6 294.049 225.232 293.697 224.752C293.361 224.256 293.193 223.68 293.193 223.024C293.193 222.368 293.361 221.8 293.697 221.32C294.033 220.824 294.537 220.4 295.209 220.048C295.881 219.696 296.713 219.408 297.705 219.184C298.697 218.944 299.849 218.752 301.161 218.608ZM300.753 226V223.432L300.513 223.36V217.6C300.513 216.912 300.417 216.376 300.225 215.992C300.049 215.592 299.785 215.312 299.433 215.152C299.081 214.992 298.649 214.912 298.137 214.912C297.337 214.912 296.681 215.072 296.169 215.392C295.673 215.712 295.273 216.088 294.969 216.52C294.937 216.328 294.945 216.152 294.993 215.992C295.041 215.832 295.113 215.688 295.209 215.56C295.305 215.432 295.425 215.32 295.569 215.224C295.713 215.128 295.865 215.048 296.025 214.984V217.456H293.937V215.008C294.177 214.816 294.497 214.608 294.897 214.384C295.313 214.16 295.809 213.968 296.385 213.808C296.961 213.648 297.593 213.568 298.281 213.568C298.841 213.568 299.377 213.632 299.889 213.76C300.401 213.888 300.865 214.104 301.281 214.408C301.697 214.696 302.025 215.088 302.265 215.584C302.505 216.064 302.625 216.664 302.625 217.384V224.056C302.625 224.28 302.713 224.456 302.889 224.584C303.065 224.712 303.297 224.8 303.585 224.848C303.889 224.896 304.233 224.92 304.617 224.92V226H300.753Z" fill="white"/>
<rect x="330" y="198" width="54" height="40" rx="6" fill="white" fill-opacity="0.07"/>
<path d="M359.105 223.676L352.66 225.398C352.512 224.922 352.34 224.379 352.145 223.77C351.957 223.16 351.812 222.695 351.711 222.375H347.703C347.648 222.562 347.512 223.016 347.293 223.734C347.074 224.445 346.898 225 346.766 225.398L340.508 223.676C340.727 223.137 341.508 221.188 342.852 217.828C344.195 214.461 345.32 211.625 346.227 209.32H353.434C354.48 211.992 355.648 214.957 356.938 218.215C358.227 221.465 358.949 223.285 359.105 223.676ZM351.219 218.695C351.008 218.102 350.762 217.383 350.48 216.539C350.199 215.695 349.945 214.945 349.719 214.289H349.648C349.43 214.922 349.16 215.707 348.84 216.645C348.527 217.574 348.293 218.258 348.137 218.695L348.148 218.707H351.207L351.219 218.695ZM371.475 219.375C371.475 221.258 371.475 222.602 371.475 223.406C371.475 224.203 371.475 224.734 371.475 225C371.296 225.016 370.6 225.055 369.389 225.117C368.178 225.188 367.089 225.223 366.12 225.223C365.448 225.223 364.561 225.168 363.46 225.059C362.366 224.957 361.479 224.773 360.8 224.508C359.956 224.172 359.319 223.738 358.889 223.207C358.46 222.676 358.245 222.074 358.245 221.402C358.245 220.652 358.448 220.02 358.854 219.504C359.26 218.98 359.991 218.543 361.046 218.191C361.803 217.934 362.675 217.762 363.659 217.676C364.651 217.582 365.284 217.531 365.557 217.523C365.557 217.344 365.495 217.199 365.37 217.09C365.253 216.973 364.971 216.875 364.526 216.797C364.26 216.75 363.964 216.719 363.635 216.703C363.307 216.68 362.905 216.668 362.428 216.668C361.803 216.668 361.26 216.676 360.8 216.691C360.346 216.707 359.948 216.719 359.604 216.727L360.073 212.707C360.292 212.707 360.565 212.707 360.893 212.707C361.229 212.707 361.725 212.707 362.382 212.707C364.233 212.707 365.698 212.844 366.776 213.117C367.862 213.391 368.788 213.844 369.553 214.477C370.257 215.055 370.753 215.742 371.042 216.539C371.331 217.328 371.475 218.273 371.475 219.375ZM365.968 220.652C365.968 220.434 365.968 220.207 365.968 219.973C365.968 219.73 365.968 219.535 365.968 219.387C365.882 219.387 365.733 219.402 365.522 219.434C365.319 219.465 365.077 219.551 364.796 219.691C364.647 219.77 364.495 219.902 364.339 220.09C364.182 220.277 364.104 220.504 364.104 220.77C364.104 221.082 364.178 221.324 364.327 221.496C364.483 221.668 364.659 221.797 364.854 221.883C364.971 221.938 365.112 221.98 365.276 222.012C365.448 222.043 365.643 222.059 365.862 222.059C365.885 222.059 365.901 222.059 365.909 222.059C365.925 222.059 365.944 222.059 365.968 222.059C365.968 221.91 365.968 221.703 365.968 221.438C365.968 221.172 365.968 220.91 365.968 220.652Z" fill="white"/>
<rect x="395" y="198" width="50" height="40" rx="6" fill="white" fill-opacity="0.07"/>
<path d="M406.216 226V224.776L408.592 224.44H409.024L411.28 224.776V226H406.216ZM407.584 226L412.984 210.184H415.384L420.76 226H416.704L412.648 213.184H413.104L412.984 213.52L408.952 226H407.584ZM410.032 221.368V220.024H417.088V221.368H410.032ZM414.424 226V224.824L417.136 224.464H418.768L421.744 224.824V226H414.424ZM425.035 226.36C424.107 226.36 423.355 226.096 422.779 225.568C422.203 225.04 421.915 224.296 421.915 223.336C421.915 222.76 422.043 222.24 422.299 221.776C422.555 221.296 423.011 220.864 423.667 220.48C424.339 220.08 425.283 219.712 426.499 219.376C426.915 219.264 427.331 219.152 427.747 219.04C428.179 218.928 428.603 218.816 429.019 218.704C429.451 218.576 429.875 218.456 430.291 218.344V219.28C429.763 219.44 429.251 219.6 428.755 219.76C428.259 219.92 427.819 220.064 427.435 220.192C426.955 220.336 426.563 220.536 426.259 220.792C425.955 221.048 425.731 221.344 425.587 221.68C425.459 222.016 425.395 222.392 425.395 222.808C425.395 223.368 425.539 223.784 425.827 224.056C426.115 224.328 426.459 224.464 426.859 224.464C427.099 224.464 427.331 224.424 427.555 224.344C427.779 224.264 428.035 224.136 428.323 223.96C428.611 223.768 428.963 223.512 429.379 223.192L429.619 224.392H428.635C428.251 224.808 427.891 225.168 427.555 225.472C427.219 225.76 426.851 225.976 426.451 226.12C426.067 226.28 425.595 226.36 425.035 226.36ZM431.035 226.336C430.219 226.336 429.587 226.136 429.139 225.736C428.707 225.336 428.435 224.792 428.323 224.104V224.008V218.056C428.323 217.336 428.267 216.776 428.155 216.376C428.043 215.976 427.851 215.696 427.579 215.536C427.307 215.36 426.915 215.272 426.403 215.272C426.115 215.272 425.803 215.296 425.467 215.344C425.147 215.392 424.739 215.488 424.243 215.632L425.803 214.72L425.635 216.4C425.603 217.184 425.411 217.752 425.059 218.104C424.723 218.44 424.331 218.608 423.883 218.608C423.467 218.608 423.123 218.512 422.851 218.32C422.579 218.112 422.395 217.808 422.299 217.408C422.363 216.416 422.859 215.616 423.787 215.008C424.715 214.4 426.027 214.096 427.723 214.096C428.747 214.096 429.571 214.248 430.195 214.552C430.819 214.856 431.275 215.336 431.563 215.992C431.851 216.648 431.995 217.512 431.995 218.584V223.96C431.995 224.2 432.043 224.384 432.139 224.512C432.235 224.624 432.363 224.68 432.523 224.68C432.667 224.68 432.795 224.64 432.907 224.56C433.019 224.48 433.139 224.344 433.267 224.152L433.891 224.56C433.603 225.2 433.235 225.656 432.787 225.928C432.339 226.2 431.755 226.336 431.035 226.336Z" fill="white"/>
</g>
<circle cx="35.2734" cy="35.2734" r="34.8633" transform="matrix(-1 0 0 1 161.828 68.9062)" stroke="url(#paint1_linear_157_130)" stroke-opacity="0.45" stroke-width="0.820312" stroke-linecap="round" stroke-dasharray="1.64 4.92"/>
<line x1="142.797" y1="43.7262" x2="109.464" y2="168.127" stroke="url(#paint2_linear_157_130)" stroke-opacity="0.45" stroke-width="0.820312" stroke-linecap="round" stroke-dasharray="1.64 4.92"/>
<line x1="90.0508" y1="43.0664" x2="90.0508" y2="184.98" stroke="url(#paint3_linear_157_130)" stroke-opacity="0.45" stroke-width="0.820312" stroke-linecap="round" stroke-dasharray="1.64 4.92"/>
<line x1="162.238" y1="0.410156" x2="162.238" y2="209.59" stroke="url(#paint4_linear_157_130)" stroke-opacity="0.45" stroke-width="0.820312" stroke-linecap="round" stroke-dasharray="1.64 4.92"/>
<line x1="342.707" y1="25.0195" x2="342.707" y2="166.934" stroke="url(#paint5_linear_157_130)" stroke-opacity="0.45" stroke-width="0.820312" stroke-linecap="round" stroke-dasharray="1.64 4.92"/>
<path d="M-3.875 141.094L366.906 141.094" stroke="url(#paint6_linear_157_130)" stroke-opacity="0.45" stroke-width="0.410156" stroke-linecap="round" stroke-dasharray="1.64 4.92"/>
<path d="M48.625 68.9062H389.875" stroke="url(#paint7_linear_157_130)" stroke-opacity="0.45" stroke-width="0.410156" stroke-linecap="round" stroke-dasharray="1.64 4.92"/>
<line x1="100.334" y1="8.62157" x2="151.926" y2="201.165" stroke="url(#paint8_linear_157_130)" stroke-opacity="0.45" stroke-width="0.820312" stroke-linecap="round" stroke-dasharray="1.64 4.92"/>
<path d="M163.364 91.9175H180.964L183.051 98.2175L180.177 99.2019L178.602 94.9887H170.569V101.643H177.736V104.714H170.569L170.53 112.038H179.468L181.004 107.904L183.878 108.888L181.791 115.109H163.324V112.038H166.986L167.026 94.9887H163.364V91.9175ZM197.965 100.58C197.388 100.396 196.85 100.265 196.351 100.186C195.852 100.107 195.288 100.068 194.658 100.068C192.952 100.068 191.6 100.619 190.602 101.722C189.605 102.798 189.106 104.426 189.106 106.604C189.106 108.652 189.644 110.214 190.72 111.29C191.823 112.34 193.135 112.865 194.658 112.865C195.498 112.865 196.338 112.721 197.178 112.432C198.044 112.143 198.897 111.723 199.737 111.172L201.194 113.298C200.512 113.797 199.842 114.23 199.186 114.597C198.556 114.965 197.86 115.241 197.099 115.424C196.338 115.634 195.419 115.739 194.343 115.739C192.61 115.739 191.075 115.385 189.736 114.676C188.424 113.941 187.4 112.891 186.665 111.526C185.93 110.135 185.562 108.494 185.562 106.604C185.562 104.583 185.956 102.89 186.744 101.525C187.531 100.134 188.607 99.0837 189.972 98.375C191.364 97.6662 192.939 97.3119 194.697 97.3119C195.721 97.3119 196.692 97.43 197.611 97.6662C198.556 97.8762 199.58 98.1519 200.682 98.4931L201.352 102.982L198.477 103.612L197.965 100.58ZM202.398 115.109V112.353H205.705V93.335L201.964 92.0356L202.87 89.2794L209.17 91.445V99.005C210.876 97.9287 212.648 97.3906 214.486 97.3906C216.822 97.3906 218.554 97.955 219.683 99.0837C220.812 100.186 221.376 101.892 221.376 104.202V112.353H224.684V115.109H216.179V112.353H217.911V104.832C217.911 103.231 217.596 102.076 216.966 101.367C216.336 100.632 215.326 100.265 213.934 100.265C213.147 100.265 212.307 100.383 211.414 100.619C210.548 100.829 209.8 101.131 209.17 101.525V112.353H210.903V115.109H202.398ZM234.394 97.3906C236.205 97.3906 237.767 97.7581 239.08 98.4931C240.418 99.2281 241.455 100.278 242.19 101.643C242.925 103.008 243.293 104.662 243.293 106.604C243.293 109.439 242.479 111.671 240.852 113.298C239.25 114.926 237.098 115.739 234.394 115.739C232.635 115.739 231.1 115.372 229.787 114.637C228.475 113.902 227.451 112.852 226.716 111.487C226.007 110.122 225.653 108.494 225.653 106.604C225.653 104.662 226.007 103.008 226.716 101.643C227.451 100.278 228.475 99.2281 229.787 98.4931C231.1 97.7581 232.635 97.3906 234.394 97.3906ZM234.433 100.226C232.675 100.226 231.349 100.777 230.457 101.879C229.59 102.982 229.157 104.557 229.157 106.604C229.157 108.626 229.59 110.187 230.457 111.29C231.349 112.366 232.675 112.904 234.433 112.904C236.218 112.904 237.557 112.366 238.45 111.29C239.342 110.187 239.788 108.626 239.788 106.604C239.788 104.557 239.342 102.982 238.45 101.879C237.557 100.777 236.218 100.226 234.433 100.226ZM253.819 91.9175H271.38L273.506 98.2962L270.632 99.2806L269.057 94.9887H260.985V101.84H267.364V104.911H260.945V112.038H265.828V115.109H253.779V112.038H257.441L257.48 94.9887H253.819V91.9175ZM282.261 97.3906C284.072 97.3906 285.634 97.7581 286.946 98.4931C288.285 99.2281 289.322 100.278 290.057 101.643C290.792 103.008 291.16 104.662 291.16 106.604C291.16 109.439 290.346 111.671 288.718 113.298C287.117 114.926 284.965 115.739 282.261 115.739C280.502 115.739 278.966 115.372 277.654 114.637C276.341 113.902 275.318 112.852 274.583 111.487C273.874 110.122 273.52 108.494 273.52 106.604C273.52 104.662 273.874 103.008 274.583 101.643C275.318 100.278 276.341 99.2281 277.654 98.4931C278.966 97.7581 280.502 97.3906 282.261 97.3906ZM282.3 100.226C280.541 100.226 279.216 100.777 278.323 101.879C277.457 102.982 277.024 104.557 277.024 106.604C277.024 108.626 277.457 110.187 278.323 111.29C279.216 112.366 280.541 112.904 282.3 112.904C284.085 112.904 285.424 112.366 286.316 111.29C287.209 110.187 287.655 108.626 287.655 106.604C287.655 104.557 287.209 102.982 286.316 101.879C285.424 100.777 284.085 100.226 282.3 100.226ZM298.355 99.3594C299.3 98.7031 300.324 98.2175 301.426 97.9025C302.529 97.5612 303.631 97.3906 304.734 97.3906C305.679 97.3906 306.296 97.4694 306.584 97.6269L307.254 101.958L304.379 102.549L303.986 100.383C303.146 100.409 302.319 100.541 301.505 100.777C300.691 101.013 299.956 101.341 299.3 101.761L299.261 112.353H303.119V115.109H292.528V112.353H295.835V101.564L292.055 100.265L292.961 97.5087L298.355 99.3594ZM315.862 110.502C313.394 110.502 311.452 109.938 310.034 108.809C308.643 107.681 307.948 106.119 307.948 104.124C307.948 102.05 308.656 100.409 310.074 99.2019C311.518 97.9944 313.46 97.3906 315.901 97.3906C316.899 97.3906 317.778 97.4825 318.539 97.6662C319.301 97.8237 320.023 98.0862 320.705 98.4537L326.414 96.3669L327.438 99.3594L322.753 100.344C323.146 100.816 323.435 101.367 323.619 101.997C323.829 102.601 323.934 103.244 323.934 103.927C323.934 105.318 323.593 106.512 322.91 107.51C322.228 108.481 321.269 109.229 320.036 109.754C318.828 110.253 317.437 110.502 315.862 110.502ZM316.177 124.087C315.153 124.087 314.064 123.982 312.909 123.772C311.78 123.588 310.73 123.339 309.759 123.024C308.788 122.735 308.053 122.446 307.554 122.158L308.814 119.519C309.838 120.018 311.019 120.412 312.358 120.701C313.696 120.989 314.969 121.134 316.177 121.134C317.306 121.134 318.251 121.042 319.012 120.858C319.773 120.701 320.351 120.438 320.744 120.071C321.138 119.729 321.335 119.309 321.335 118.811C321.335 118.049 321.02 117.485 320.39 117.118C319.76 116.75 318.802 116.566 317.516 116.566H311.728V108.849L314.878 109.754V113.771H318.264C320.416 113.771 322.031 114.191 323.107 115.031C324.209 115.844 324.761 117.039 324.761 118.614C324.761 119.795 324.393 120.793 323.658 121.606C322.949 122.42 321.952 123.037 320.666 123.457C319.406 123.877 317.909 124.087 316.177 124.087ZM315.941 107.746C317.358 107.746 318.474 107.392 319.288 106.683C320.101 105.974 320.508 105.069 320.508 103.966C320.508 102.759 320.114 101.827 319.327 101.171C318.566 100.488 317.437 100.147 315.941 100.147C314.444 100.147 313.303 100.488 312.515 101.171C311.754 101.827 311.373 102.759 311.373 103.966C311.373 105.069 311.78 105.974 312.594 106.683C313.408 107.392 314.523 107.746 315.941 107.746ZM343.377 113.062C342.3 113.981 341.185 114.663 340.03 115.109C338.901 115.529 337.654 115.739 336.289 115.739C334.425 115.739 332.785 115.372 331.367 114.637C329.976 113.876 328.9 112.812 328.139 111.447C327.377 110.082 326.997 108.455 326.997 106.565C326.997 104.727 327.351 103.126 328.06 101.761C328.795 100.37 329.819 99.2937 331.131 98.5325C332.47 97.7712 334.005 97.3906 335.738 97.3906C337.392 97.3906 338.809 97.745 339.99 98.4537C341.172 99.1362 342.09 100.107 342.747 101.367C343.403 102.601 343.731 104.071 343.731 105.777C343.731 106.04 343.718 106.316 343.692 106.604C343.665 106.893 343.639 107.182 343.613 107.471L330.383 107.549C330.462 108.783 330.777 109.807 331.328 110.621C331.879 111.408 332.588 111.986 333.454 112.353C334.32 112.721 335.239 112.904 336.21 112.904C337.339 112.904 338.376 112.747 339.321 112.432C340.266 112.091 341.132 111.605 341.92 110.975L343.377 113.062ZM340.305 104.911C340.279 103.467 339.859 102.312 339.045 101.446C338.232 100.554 337.142 100.107 335.777 100.107C334.439 100.107 333.257 100.554 332.234 101.446C331.21 102.312 330.606 103.467 330.422 104.911H340.305Z" fill="white"/>
<path d="M136.751 72.1298C137.026 71.2664 136.55 70.3398 135.674 70.1055C130.892 68.8257 125.888 68.5651 120.988 69.3483C115.547 70.2178 110.386 72.3499 105.917 75.5737C101.449 78.7975 97.7974 83.0232 95.2563 87.9123C92.7152 92.8014 91.3548 98.2178 91.2842 103.727C91.2135 109.237 92.4345 114.686 94.8494 119.639C97.2643 124.592 100.806 128.91 105.19 132.247C109.574 135.584 114.68 137.848 120.097 138.857C124.975 139.765 129.984 139.633 134.797 138.477C135.678 138.265 136.178 137.351 135.926 136.481L133.476 128.037C133.224 127.167 132.314 126.672 131.429 126.862C128.432 127.506 125.331 127.551 122.307 126.988C118.744 126.324 115.386 124.835 112.503 122.64C109.619 120.445 107.289 117.605 105.701 114.348C104.113 111.09 103.31 107.506 103.356 103.882C103.403 100.258 104.297 96.6958 105.969 93.4801C107.64 90.2645 110.042 87.485 112.981 85.3647C115.92 83.2443 119.315 81.8419 122.893 81.27C125.931 80.7846 129.029 80.9089 132.009 81.6295C132.889 81.8425 133.811 81.3713 134.086 80.5078L136.751 72.1298Z" fill="white"/>
<path d="M129.352 114.47C129.827 116.219 128.786 118.064 126.975 118.119C125.934 118.15 124.89 118.065 123.862 117.862C121.755 117.448 119.773 116.553 118.07 115.247C116.366 113.941 114.987 112.259 114.04 110.333C113.093 108.406 112.603 106.287 112.609 104.141C112.615 101.994 113.117 99.8779 114.075 97.9569C115.033 96.0359 116.421 94.3619 118.132 93.0654C119.843 91.7689 121.83 90.8848 123.938 90.4821C124.967 90.2854 126.012 90.2061 127.052 90.2433C128.863 90.3079 129.894 92.1588 129.409 93.9048L126.796 103.311C126.638 103.88 126.636 104.48 126.791 105.05L129.352 114.47Z" fill="white"/>
<mask id="mask1_157_130" style="mask-type:alpha" maskUnits="userSpaceOnUse" x="373" y="0" width="77" height="198">
<rect x="373" width="77" height="198" fill="url(#paint9_linear_157_130)"/>
</mask>
<g mask="url(#mask1_157_130)">
<rect x="388" y="80" width="38" height="28" rx="4" fill="white" fill-opacity="0.1"/>
<rect opacity="0.3" x="388" y="-16" width="38" height="28" rx="4" fill="white" fill-opacity="0.1"/>
<rect opacity="0.7" x="388" y="112" width="38" height="28" rx="4" fill="white" fill-opacity="0.1"/>
<rect opacity="0.7" x="388" y="16" width="38" height="28" rx="4" fill="white" fill-opacity="0.1"/>
<rect x="388" y="144" width="38" height="28" rx="4" fill="white" fill-opacity="0.1"/>
<rect x="388.25" y="48.25" width="37.5" height="27.5" rx="3.75" fill="white" fill-opacity="0.29" stroke="white" stroke-width="0.5"/>
<rect x="388" y="176" width="38" height="28" rx="4" fill="white" fill-opacity="0.1"/>
<rect opacity="0.7" x="430" y="80" width="38" height="28" rx="4" fill="white" fill-opacity="0.1"/>
<rect opacity="0.5" x="430" y="-16" width="38" height="28" rx="4" fill="white" fill-opacity="0.1"/>
<rect x="430" y="112" width="38" height="28" rx="4" fill="white" fill-opacity="0.1"/>
<rect opacity="0.3" x="430" y="16" width="38" height="28" rx="4" fill="white" fill-opacity="0.1"/>
<rect opacity="0.7" x="430" y="144" width="38" height="28" rx="4" fill="white" fill-opacity="0.1"/>
<rect opacity="0.7" x="430" y="48" width="38" height="28" rx="4" fill="white" fill-opacity="0.1"/>
<rect x="430" y="176" width="38" height="28" rx="4" fill="white" fill-opacity="0.1"/>
</g>
<circle opacity="0.2" cx="56" cy="204" r="8" fill="#C7F641"/>
<circle opacity="0.1" cx="56" cy="204" r="16" fill="#C7F641"/>
<path d="M70.9062 215.297C70.7188 215.719 70.2969 216.047 69.8281 216.047H64.9062L67.0625 220.453C67.4844 221.391 67.1094 222.516 66.1719 222.984C65.2344 223.406 64.1094 223.031 63.6406 222.094L61.4844 217.5L57.9688 221.625C57.7344 221.906 57.4062 222.047 57.125 222.047C56.9844 222.047 56.8438 222 56.7031 221.953C56.2812 221.812 56 221.391 56 220.875V203.672C56 203.203 56.2344 202.781 56.6562 202.641C57.0312 202.453 57.5 202.5 57.8281 202.781L70.5312 214.031C70.9531 214.359 71.0469 214.875 70.9062 215.297Z" fill="#C7F641"/>
<circle opacity="0.2" cx="412" cy="54" r="8" fill="#C7F641"/>
<circle opacity="0.1" cx="412" cy="54" r="16" fill="#C7F641"/>
<path d="M422.812 46L424.031 44.7812L425.625 46.375L419.016 52.9844C418.453 53.5469 417.703 53.875 416.906 53.875H414.75L413.062 54.8594C412.5 55.1406 411.844 55.0469 411.375 54.625C410.953 54.1562 410.859 53.5 411.141 52.9375L412.125 51.25V49.0938C412.125 48.2969 412.453 47.5469 413.016 46.9844L419.625 40.375L421.219 41.9688L417.188 46H422.812ZM433.641 32.3594C435.422 34.0938 435.422 36.9531 433.641 38.6875L428.438 43.8906L429.047 44.4531C429.469 44.9219 429.469 45.625 429.047 46.0469C428.812 46.2812 428.531 46.375 428.25 46.375C427.922 46.375 427.641 46.2812 427.453 46.0469L419.953 38.5469C419.484 38.125 419.484 37.4219 419.953 36.9531C420.375 36.5312 421.078 36.5312 421.547 36.9531L422.109 37.5625L427.312 32.3594C429.047 30.5781 431.906 30.5781 433.641 32.3594Z" fill="#C7F641"/>
</g>
<defs>
<linearGradient id="paint0_linear_157_130" x1="225" y1="188" x2="225" y2="250" gradientUnits="userSpaceOnUse">
<stop stop-color="#D9D9D9" stop-opacity="0.59"/>
<stop offset="1" stop-color="#D9D9D9" stop-opacity="0"/>
</linearGradient>
<linearGradient id="paint1_linear_157_130" x1="70.2974" y1="-9.25215" x2="-8.46813" y2="36.3914" gradientUnits="userSpaceOnUse">
<stop stop-color="white" stop-opacity="0"/>
<stop offset="0.12" stop-color="white"/>
<stop offset="0.802566" stop-color="white"/>
<stop offset="1" stop-color="white" stop-opacity="0"/>
</linearGradient>
<linearGradient id="paint2_linear_157_130" x1="109.209" y1="168.001" x2="142.292" y2="43.167" gradientUnits="userSpaceOnUse">
<stop stop-color="white" stop-opacity="0"/>
<stop offset="0.12" stop-color="white"/>
<stop offset="0.88" stop-color="white"/>
<stop offset="1" stop-color="white" stop-opacity="0"/>
</linearGradient>
<linearGradient id="paint3_linear_157_130" x1="89.7719" y1="184.878" x2="89.3434" y2="42.6571" gradientUnits="userSpaceOnUse">
<stop stop-color="white" stop-opacity="0"/>
<stop offset="0.12" stop-color="white"/>
<stop offset="0.88" stop-color="white"/>
<stop offset="1" stop-color="white" stop-opacity="0"/>
</linearGradient>
<linearGradient id="paint4_linear_157_130" x1="161.959" y1="209.245" x2="161.032" y2="0.00352874" gradientUnits="userSpaceOnUse">
<stop stop-color="white" stop-opacity="0"/>
<stop offset="0.12" stop-color="white"/>
<stop offset="0.88" stop-color="white"/>
<stop offset="1" stop-color="white" stop-opacity="0"/>
</linearGradient>
<linearGradient id="paint5_linear_157_130" x1="342.428" y1="166.831" x2="342" y2="24.6103" gradientUnits="userSpaceOnUse">
<stop stop-color="white" stop-opacity="0"/>
<stop offset="0.12" stop-color="white"/>
<stop offset="0.88" stop-color="white"/>
<stop offset="1" stop-color="white" stop-opacity="0"/>
</linearGradient>
<linearGradient id="paint6_linear_157_130" x1="366.087" y1="141.213" x2="-4.36961" y2="144.12" gradientUnits="userSpaceOnUse">
<stop stop-color="white" stop-opacity="0"/>
<stop offset="0.12" stop-color="white"/>
<stop offset="0.88" stop-color="white"/>
<stop offset="1" stop-color="white" stop-opacity="0"/>
</linearGradient>
<linearGradient id="paint7_linear_157_130" x1="389.121" y1="69.025" x2="48.1666" y2="71.4875" gradientUnits="userSpaceOnUse">
<stop stop-color="white" stop-opacity="0"/>
<stop offset="0.12" stop-color="white"/>
<stop offset="0.88" stop-color="white"/>
<stop offset="1" stop-color="white" stop-opacity="0"/>
</linearGradient>
<linearGradient id="paint8_linear_157_130" x1="151.577" y1="200.939" x2="99.1458" y2="8.51853" gradientUnits="userSpaceOnUse">
<stop stop-color="white" stop-opacity="0"/>
<stop offset="0.12" stop-color="white"/>
<stop offset="0.88" stop-color="white"/>
<stop offset="1" stop-color="white" stop-opacity="0"/>
</linearGradient>
<linearGradient id="paint9_linear_157_130" x1="444.4" y1="-22" x2="419.834" y2="200.543" gradientUnits="userSpaceOnUse">
<stop stop-color="#D9D9D9" stop-opacity="0.75"/>
<stop offset="0.948966" stop-color="#D9D9D9" stop-opacity="0"/>
</linearGradient>
<clipPath id="clip0_157_130">
<rect width="450" height="250" fill="white"/>
</clipPath>
</defs>
</svg>
