<svg width="219" height="35" viewBox="0 0 219 35" fill="none" xmlns="http://www.w3.org/2000/svg">
<g clip-path="url(#clip0_537_59)">
<path d="M8.49149 7.36258C8.33859 7.83605 8.40843 8.52935 8.31405 9.77314C8.21966 11.0169 8.16302 11.8812 8.01767 13.5834C7.87042 15.2857 7.75716 16.413 7.57971 18.2824C7.40037 20.15 7.31731 21.1589 7.12854 22.9269C6.93976 24.693 6.83971 25.5873 6.63772 27.1186C6.43762 28.6499 6.30547 29.4202 6.12425 30.5832C5.94114 31.7481 5.82976 32.214 5.72782 32.9374C5.62588 33.6626 5.5617 33.9407 5.61078 34.2094C5.65986 34.478 5.82599 34.5156 5.97701 34.2826C6.12803 34.0497 6.22052 33.7678 6.36399 33.0445C6.50557 32.3211 6.54144 31.8383 6.69058 30.664C6.83782 29.4897 6.93032 28.7137 7.10588 27.175C7.28145 25.6362 7.37772 24.7419 7.56461 22.972C7.75149 21.2021 7.84777 20.1951 8.04032 18.3275C8.23098 16.4581 8.35935 15.3308 8.52358 13.6304C8.68782 11.9282 8.752 11.062 8.86149 9.81823C8.97098 8.57444 9.14843 7.89993 9.07481 7.40955C9.00119 6.91918 8.6444 6.89099 8.49149 7.36258Z" fill="black" stroke="black"/>
<path d="M0.821548 5.68671C1.04808 5.76938 1.23308 5.77313 1.73899 5.62283C2.2468 5.4744 2.5092 5.24706 3.35491 4.93893C4.20251 4.6308 4.77073 4.40721 5.97511 4.08217C7.1795 3.75526 7.92516 3.60495 9.38062 3.30809C10.8361 3.01124 11.661 2.85717 13.2505 2.59789C14.8419 2.33861 15.731 2.21273 17.3318 2.01169C18.9345 1.81254 19.7765 1.72987 21.2565 1.59459C22.7384 1.46119 23.4935 1.39543 24.7394 1.34095C25.9834 1.28646 26.5762 1.27894 27.4823 1.32591C28.3884 1.371 28.7207 1.52883 29.27 1.56828C29.8174 1.60774 29.9703 1.54949 30.2214 1.52507C30.4706 1.50252 30.4442 1.50252 30.5216 1.44992C30.599 1.39731 30.6405 1.36725 30.6065 1.26391C30.5725 1.16058 30.6027 1.06851 30.3536 0.935115C30.1025 0.799838 29.9326 0.655166 29.3606 0.593164C28.7867 0.529284 28.4167 0.583773 27.4861 0.619471C26.5535 0.657048 25.9608 0.67771 24.7054 0.773531C23.45 0.869352 22.6949 0.942631 21.2074 1.09482C19.7217 1.247 18.8798 1.33155 17.2714 1.53259C15.665 1.7355 14.772 1.8595 13.1712 2.10187C11.5723 2.34424 10.7474 2.49079 9.27491 2.7482C7.80057 3.0056 7.04736 3.1296 5.80711 3.39076C4.56874 3.65004 3.97409 3.81726 3.07741 4.04836C2.18073 4.27945 1.81828 4.3114 1.32369 4.54249C0.8291 4.77547 0.708282 4.98026 0.608231 5.20948C0.506292 5.4387 0.595018 5.60404 0.821548 5.68671Z" fill="black" stroke="black"/>
<path d="M8.67839 17.7526C8.8011 17.9424 8.93135 18.1472 9.38819 18.2148C9.84314 18.2825 10.1773 18.2411 10.9588 18.0908C11.7403 17.9405 12.2519 17.7789 13.294 17.4633C14.3341 17.1458 14.9722 16.9072 16.169 16.507C17.3658 16.1068 18.0473 15.855 19.2762 15.4604C20.5033 15.064 21.1697 14.8498 22.3061 14.5304C23.4425 14.2129 24.0164 14.0494 24.9584 13.8691C25.9004 13.6868 26.3534 13.638 27.016 13.6229C27.6767 13.6098 27.924 13.6586 28.2657 13.7996C28.6093 13.9386 28.6282 13.9837 28.7282 14.3219C28.8264 14.6601 28.8132 14.8836 28.7622 15.4905C28.7093 16.0974 28.6489 16.5276 28.4734 17.3562C28.2959 18.1829 28.1355 18.7071 27.875 19.6258C27.6163 20.5427 27.4351 21.0819 27.1727 21.9443C26.9103 22.8067 26.7121 23.2633 26.5649 23.9397C26.4157 24.6179 26.3402 24.9317 26.4289 25.3281C26.5177 25.7227 26.697 25.8711 27.0085 25.9162C27.32 25.9613 27.6258 25.9256 27.9826 25.5555C28.3412 25.1853 28.4243 24.7795 28.7962 24.0637C29.1681 23.3478 29.3738 22.8349 29.8439 21.9744C30.312 21.1158 30.5952 20.5916 31.1408 19.763C31.6863 18.9363 31.994 18.5098 32.5698 17.8372C33.1456 17.1664 33.4457 16.8602 34.0234 16.4055C34.601 15.9489 34.8766 15.8024 35.4581 15.56C36.0395 15.3195 36.3038 15.2895 36.9343 15.1993C37.5648 15.1072 37.8914 15.1166 38.6087 15.1054C39.3242 15.096 39.7225 15.126 40.5172 15.1467C41.3101 15.1692 41.7518 15.203 42.5787 15.2162C43.4074 15.2275 43.8529 15.2237 44.6552 15.2068C45.4575 15.1899 45.8804 15.1711 46.5864 15.1317C47.2905 15.0941 47.6756 15.1504 48.1815 15.0133C48.6874 14.878 48.9177 14.7164 49.1141 14.4515C49.3085 14.1885 49.3255 13.948 49.1575 13.6943C48.9895 13.4426 48.746 13.2096 48.2721 13.1908C47.7983 13.1701 47.4434 13.2923 46.7884 13.5948C46.1333 13.8973 45.7369 14.1509 44.9969 14.7052C44.255 15.2594 43.8189 15.6295 43.0846 16.3661C42.3521 17.1026 41.9519 17.5629 41.3309 18.3896C40.7079 19.2144 40.3983 19.686 39.9773 20.4901C39.5564 21.2961 39.3638 21.717 39.226 22.4178C39.0901 23.1167 39.1014 23.4718 39.2921 23.9904C39.4828 24.5071 39.7206 24.7438 40.1831 25.005C40.6456 25.2642 41.0081 25.3695 41.6027 25.2924C42.1973 25.2154 42.5315 25.02 43.1601 24.6198C43.7887 24.2215 44.1078 23.9284 44.7477 23.2952C45.3858 22.6621 45.7293 22.2525 46.3561 21.454C46.9809 20.6536 47.3075 20.1482 47.8757 19.297C48.4439 18.4459 48.7478 17.9405 49.1952 17.1984C49.6426 16.4581 49.9541 16.0654 50.1146 15.5901C50.275 15.1129 50.1335 14.8667 49.9994 14.816C49.8654 14.7634 49.6105 14.9175 49.4444 15.3308C49.2764 15.746 49.2217 16.1556 49.1632 16.8884C49.1065 17.6211 49.1009 18.1641 49.1575 18.9945C49.2141 19.825 49.2708 20.3022 49.4501 21.0425C49.6294 21.7828 49.7106 22.1585 50.0504 22.6959C50.3921 23.2332 50.6488 23.453 51.1566 23.7292C51.6663 24.0054 52.0005 24.1106 52.5989 24.0806C53.1954 24.0486 53.539 23.9209 54.1449 23.5752C54.7509 23.2276 55.0341 22.9458 55.6268 22.3483C56.2196 21.7489 56.5273 21.3506 57.1087 20.5803C57.6901 19.81 57.9903 19.3008 58.534 18.4967C59.0795 17.6925 59.4344 17.1852 59.8327 16.5596C60.2311 15.932 60.4198 15.6239 60.5255 15.3628C60.6331 15.1035 60.4651 15.0696 60.3651 15.2594C60.265 15.4492 60.1329 15.7404 60.0234 16.3134C59.9158 16.8865 59.9026 17.3712 59.8233 18.1246C59.744 18.8781 59.6761 19.3703 59.6289 20.0824C59.5817 20.7926 59.4892 21.1439 59.5836 21.6832C59.6779 22.2205 59.8063 22.461 60.1027 22.771C60.3991 23.0792 60.618 23.2182 61.0654 23.2295C61.5147 23.2426 61.8281 23.1806 62.3435 22.8293C62.8607 22.4779 63.0702 22.1022 63.6498 21.4709C64.2274 20.8414 64.5578 20.4037 65.2393 19.6766C65.9208 18.9476 66.3398 18.4929 67.0572 17.8297C67.7745 17.1646 68.2238 16.7944 68.8279 16.3585C69.4339 15.9226 69.7321 15.7911 70.0814 15.6483C70.4306 15.5074 70.4646 15.4868 70.5759 15.6483C70.6854 15.8099 70.6043 16.0147 70.6326 16.4581C70.6609 16.8996 70.6817 17.2378 70.7138 17.8635C70.7458 18.491 70.7402 18.9081 70.7949 19.592C70.8497 20.274 70.8289 20.6667 70.9875 21.2792C71.1479 21.8936 71.2593 22.2055 71.5916 22.6583C71.9257 23.1111 72.1579 23.3065 72.6544 23.5413C73.1527 23.7762 73.4755 23.8833 74.0815 23.8344C74.6875 23.7875 75.0178 23.6278 75.6823 23.3009C76.3468 22.9758 76.6904 22.7259 77.4021 22.2055C78.1138 21.6851 78.4856 21.3487 79.2407 20.6968C79.9977 20.0429 80.4111 19.6446 81.1795 18.9382C81.9497 18.2336 82.3631 17.8203 83.0861 17.1702C83.8091 16.5201 84.1659 16.1894 84.7964 15.684C85.4288 15.1786 85.7856 14.9945 86.2443 14.6394C86.703 14.2843 86.9012 14.1528 87.0881 13.9104C87.275 13.668 87.2675 13.5534 87.1806 13.4257C87.0938 13.2979 86.9409 13.2171 86.654 13.2735C86.3651 13.3317 86.114 13.3806 85.7403 13.7131C85.3665 14.0457 85.1985 14.3839 84.787 14.9344C84.3735 15.4868 84.1187 15.8249 83.677 16.4694C83.2371 17.1138 82.9785 17.4708 82.5839 18.1603C82.1913 18.8499 81.961 19.2294 81.708 19.9152C81.4551 20.601 81.3324 20.9579 81.321 21.5911C81.3097 22.2243 81.3984 22.5512 81.6514 23.0829C81.9062 23.6127 82.1007 23.8964 82.5934 24.2478C83.0842 24.5991 83.4429 24.7213 84.1093 24.8377C84.7775 24.9524 85.174 24.9336 85.9328 24.8265C86.6898 24.7194 87.0938 24.5916 87.8999 24.3023C88.704 24.0111 89.1345 23.8138 89.9556 23.376C90.7768 22.9401 91.211 22.679 92.0038 22.1191C92.7986 21.5592 93.2026 21.2003 93.9237 20.5747C94.6429 19.9471 95.0016 19.5845 95.6094 18.9852C96.2154 18.3877 96.5231 18.0833 96.9554 17.5817C97.3877 17.08 97.5859 16.8639 97.7653 16.4788C97.9465 16.0917 97.9503 15.8907 97.8578 15.6521C97.7653 15.4116 97.5916 15.3007 97.3046 15.2782C97.0158 15.2575 96.7591 15.2838 96.4231 15.5431C96.0852 15.8043 95.8662 16.056 95.6189 16.5802C95.3716 17.1044 95.3395 17.5103 95.1866 18.1641C95.0337 18.8198 94.911 19.1918 94.8543 19.8532C94.7977 20.5127 94.7637 20.8865 94.9034 21.4671C95.0412 22.0477 95.2036 22.3351 95.549 22.7541C95.8945 23.1731 96.1418 23.3497 96.6345 23.562C97.1253 23.7762 97.4368 23.8363 98.0069 23.8213C98.5751 23.8081 98.896 23.7217 99.4793 23.4925C100.063 23.2633 100.385 23.0848 100.922 22.6771C101.458 22.2675 101.711 22.0007 102.16 21.4502C102.607 20.8978 102.841 20.569 103.162 19.9152C103.481 19.2632 103.629 18.8818 103.761 18.181C103.895 17.4821 103.912 17.0875 103.829 16.413C103.748 15.7385 103.638 15.3834 103.347 14.8122C103.059 14.2392 102.828 13.9555 102.381 13.5534C101.932 13.1514 101.622 12.9954 101.107 12.8019C100.589 12.6084 100.278 12.5689 99.7984 12.5839C99.3208 12.6009 99.047 12.6647 98.7148 12.8846C98.3807 13.1044 98.2164 13.3242 98.1315 13.6831C98.0465 14.0419 98.0654 14.3162 98.2882 14.6789C98.5109 15.0433 98.7242 15.297 99.2453 15.5018C99.7663 15.7085 100.159 15.7009 100.891 15.7085C101.626 15.716 102.056 15.6521 102.911 15.5431C103.768 15.4323 104.25 15.3383 105.175 15.1561C106.102 14.9738 106.626 14.8329 107.538 14.6319C108.45 14.4308 108.971 14.2768 109.732 14.149C110.494 14.0213 110.868 14.0081 111.351 13.995C111.833 13.9818 111.967 13.948 112.144 14.0851C112.322 14.2204 112.271 14.3237 112.237 14.677C112.201 15.0321 112.116 15.2932 111.969 15.855C111.823 16.4187 111.704 16.8132 111.502 17.4915C111.3 18.1697 111.142 18.5831 110.961 19.2426C110.779 19.902 110.617 20.2308 110.594 20.7907C110.572 21.3487 110.642 21.6381 110.849 22.0364C111.059 22.4347 111.238 22.6245 111.638 22.7804C112.04 22.9382 112.35 22.9815 112.856 22.8199C113.36 22.6602 113.607 22.4253 114.162 21.9763C114.715 21.5291 114.983 21.2041 115.629 20.5803C116.273 19.9565 116.652 19.5638 117.385 18.8593C118.117 18.1547 118.531 17.7301 119.289 17.0612C120.046 16.3924 120.456 16.0354 121.175 15.5112C121.895 14.9889 122.265 14.7409 122.884 14.444C123.503 14.1471 123.788 14.0814 124.273 14.0269C124.756 13.9743 124.943 14.0194 125.306 14.1772C125.666 14.335 125.78 14.4797 126.082 14.8179C126.385 15.1542 126.574 15.3928 126.818 15.8644C127.061 16.3379 127.175 16.6347 127.299 17.1815C127.422 17.7301 127.458 18.0514 127.437 18.6056C127.414 19.1599 127.365 19.4567 127.192 19.9565C127.016 20.4544 126.878 20.6949 126.563 21.1045C126.246 21.5122 126.023 21.7076 125.61 22.0007C125.196 22.2919 124.922 22.3877 124.496 22.5643C124.069 22.741 123.831 22.8011 123.476 22.8838C123.122 22.9664 122.944 22.9871 122.723 22.9777C122.5 22.9683 122.468 22.8875 122.366 22.8387C122.266 22.7879 122.283 22.7917 122.221 22.7297C122.161 22.6658 122.191 22.5644 122.061 22.5249C121.93 22.4836 121.702 22.4347 121.574 22.5249C121.443 22.6151 121.389 22.7616 121.411 22.9758C121.436 23.19 121.477 23.3629 121.693 23.5921C121.906 23.8213 122.083 24.0054 122.484 24.1238C122.884 24.244 123.178 24.2459 123.69 24.1877C124.201 24.1294 124.502 24.0693 125.041 23.8344C125.581 23.6015 125.889 23.4192 126.389 23.019C126.891 22.6188 127.159 22.3652 127.546 21.8297C127.933 21.2961 128.107 20.9786 128.326 20.3454C128.543 19.7123 128.6 19.3459 128.638 18.662C128.673 17.9781 128.647 17.6023 128.511 16.9278C128.375 16.2533 128.262 15.8888 127.96 15.2895C127.656 14.6901 127.448 14.3632 126.995 13.9311C126.542 13.4989 126.27 13.3167 125.696 13.1288C125.124 12.939 124.775 12.8864 124.128 12.9879C123.482 13.0894 123.156 13.2622 122.467 13.6361C121.777 14.01 121.423 14.2937 120.683 14.8592C119.943 15.4266 119.539 15.7911 118.763 16.4694C117.989 17.1458 117.57 17.5704 116.811 18.2449C116.052 18.9194 115.652 19.297 114.972 19.8438C114.293 20.3886 113.94 20.6179 113.411 20.9749C112.881 21.3318 112.637 21.4295 112.326 21.6268C112.016 21.8241 111.971 21.9387 111.855 21.9612C111.742 21.9838 111.754 21.9443 111.757 21.7358C111.763 21.5272 111.804 21.3544 111.884 20.9185C111.963 20.4845 111.989 20.1726 112.15 19.5601C112.312 18.9476 112.471 18.538 112.692 17.856C112.911 17.174 113.113 16.8057 113.249 16.15C113.386 15.4961 113.485 15.1316 113.375 14.583C113.266 14.0363 113.099 13.7469 112.699 13.4125C112.299 13.0781 112.005 12.9484 111.376 12.909C110.745 12.8714 110.358 13.048 109.552 13.2227C108.746 13.3975 108.252 13.5741 107.344 13.7845C106.438 13.995 105.918 14.1321 105.016 14.2787C104.112 14.4271 103.632 14.4966 102.826 14.5248C102.02 14.553 101.607 14.5135 100.99 14.4214C100.372 14.3294 100.123 14.164 99.7417 14.0626C99.3585 13.9611 99.2415 13.9442 99.0773 13.9123C98.913 13.8822 98.9017 13.9104 98.9206 13.9104C98.9394 13.9085 98.9999 13.9085 99.1716 13.9048C99.3415 13.901 99.485 13.8597 99.7776 13.8897C100.07 13.9179 100.287 13.916 100.635 14.0476C100.98 14.1772 101.188 14.2711 101.507 14.5417C101.828 14.8123 102.007 14.9907 102.235 15.3966C102.466 15.8024 102.577 16.056 102.656 16.5708C102.736 17.0856 102.736 17.405 102.632 17.9725C102.526 18.5399 102.411 18.8649 102.135 19.4079C101.858 19.9528 101.641 20.244 101.248 20.6893C100.856 21.1345 100.629 21.3393 100.174 21.6381C99.7191 21.9368 99.4265 22.0138 98.9734 22.1811C98.5204 22.3464 98.2919 22.4178 97.9125 22.4685C97.5312 22.5211 97.3594 22.5249 97.0706 22.4385C96.7817 22.352 96.6458 22.2806 96.4703 22.0364C96.2928 21.7921 96.2437 21.6231 96.189 21.2172C96.1342 20.8114 96.1154 20.5296 96.1947 20.0035C96.2739 19.4793 96.3664 19.1223 96.5816 18.5944C96.7968 18.0664 97.0574 17.7977 97.2707 17.3618C97.4821 16.9259 97.5652 16.7287 97.6407 16.4168C97.7181 16.103 97.7086 15.9753 97.6558 15.7968C97.6029 15.6183 97.5368 15.5037 97.3745 15.5224C97.2122 15.5394 97.0951 15.607 96.844 15.8851C96.5949 16.1631 96.4967 16.4149 96.1191 16.9109C95.7416 17.4088 95.5075 17.7602 94.9582 18.3689C94.4088 18.9776 94.0596 19.3421 93.3725 19.9565C92.6872 20.5728 92.2927 20.9166 91.5281 21.4446C90.7655 21.9744 90.3407 22.213 89.5535 22.6C88.7663 22.9871 88.3397 23.1562 87.5903 23.3816C86.8427 23.6071 86.4614 23.6804 85.8101 23.7274C85.1588 23.7743 84.8398 23.7142 84.3358 23.6165C83.8318 23.5169 83.6184 23.438 83.2881 23.2313C82.9596 23.0265 82.8464 22.9119 82.6897 22.5869C82.5311 22.2637 82.4915 22.074 82.5009 21.6118C82.5103 21.1496 82.5349 20.8621 82.735 20.2778C82.9351 19.6916 83.1314 19.314 83.5014 18.6883C83.8714 18.0608 84.1187 17.7094 84.585 17.1439C85.0512 16.5765 85.3552 16.3078 85.8328 15.8588C86.3123 15.4097 86.6615 15.282 86.9786 14.9006C87.2958 14.5191 87.3656 14.2768 87.4185 13.9517C87.4713 13.6267 87.409 13.4388 87.2448 13.2772C87.0787 13.1175 86.9277 13.0499 86.5879 13.1457C86.25 13.2434 86.0272 13.39 85.5534 13.7657C85.0796 14.1396 84.8172 14.4572 84.2169 15.0227C83.6147 15.5863 83.2617 15.9208 82.5481 16.5896C81.8345 17.2585 81.4211 17.67 80.6509 18.3614C79.8807 19.0547 79.4616 19.4455 78.7008 20.0542C77.942 20.663 77.5512 20.9692 76.8527 21.4089C76.1543 21.8466 75.7899 22.0214 75.2104 22.2506C74.629 22.4779 74.3722 22.4948 73.9512 22.5493C73.5322 22.6038 73.3887 22.6282 73.1112 22.5193C72.8337 22.4122 72.7412 22.3163 72.5656 22.012C72.3901 21.7057 72.3335 21.4934 72.2353 20.9936C72.1371 20.492 72.105 20.1444 72.0711 19.5056C72.0371 18.8668 72.0956 18.4628 72.0635 17.7977C72.0314 17.1326 72.1012 16.7324 71.9106 16.18C71.7199 15.6277 71.5274 15.3252 71.1083 15.034C70.6892 14.7409 70.3834 14.6037 69.8171 14.7183C69.2507 14.8348 68.943 15.1129 68.2748 15.6089C67.6065 16.1068 67.2082 16.5182 66.472 17.2059C65.7357 17.8936 65.311 18.3501 64.5937 19.049C63.8763 19.748 63.4969 20.1594 62.8852 20.7005C62.2717 21.2416 61.9225 21.4201 61.5298 21.7508C61.1353 22.0796 61.0673 22.2356 60.9144 22.3502C60.7634 22.4629 60.7898 22.4704 60.7691 22.3182C60.7502 22.166 60.7955 22.012 60.8144 21.5855C60.8314 21.159 60.7936 20.8452 60.8597 20.1839C60.9276 19.5225 61.0485 19.0378 61.1466 18.2806C61.2467 17.5234 61.3939 17.0387 61.3599 16.3942C61.326 15.7517 61.241 15.3815 60.9767 15.064C60.7105 14.7465 60.433 14.6206 60.0328 14.8066C59.6326 14.9926 59.4231 15.3496 58.9738 15.9903C58.5245 16.631 58.3037 17.2021 57.7883 18.01C57.2711 18.8179 56.9671 19.3121 56.3951 20.0335C55.8213 20.7531 55.4871 21.112 54.9227 21.6137C54.3583 22.1153 54.0524 22.2863 53.5673 22.5418C53.084 22.7973 52.8801 22.8443 52.5026 22.8913C52.125 22.9364 51.974 22.9345 51.6814 22.7748C51.3869 22.617 51.2699 22.4911 51.0377 22.0965C50.8055 21.7001 50.662 21.4239 50.5205 20.7945C50.3808 20.1651 50.343 19.7104 50.3355 18.9476C50.3298 18.1866 50.4393 17.6888 50.4865 16.9842C50.5356 16.2796 50.6696 15.8945 50.5771 15.4248C50.4846 14.9569 50.3034 14.7052 50.0202 14.6375C49.737 14.568 49.4878 14.6563 49.1613 15.079C48.8347 15.5018 48.7856 15.9959 48.3911 16.7493C47.9965 17.5046 47.7285 18.0157 47.1886 18.8499C46.6487 19.686 46.3126 20.1763 45.6935 20.9241C45.0724 21.6719 44.7118 22.0495 44.0851 22.5888C43.4603 23.128 43.1054 23.3272 42.5636 23.6165C42.0218 23.9058 41.7651 23.9359 41.3743 24.0374C40.9835 24.1388 40.84 24.1933 40.6097 24.1219C40.3775 24.0524 40.3001 23.9885 40.219 23.686C40.1378 23.3816 40.0963 23.1656 40.202 22.6019C40.3058 22.0383 40.3889 21.6174 40.7438 20.8696C41.0987 20.1237 41.3894 19.6503 41.9765 18.8705C42.5636 18.0908 42.96 17.638 43.6773 16.9729C44.3928 16.3059 44.8326 15.9659 45.5594 15.5431C46.2862 15.1204 46.7223 15.0584 47.3075 14.8555C47.8946 14.6525 48.157 14.677 48.4873 14.5285C48.8177 14.3801 48.9008 14.2617 48.9631 14.1133C49.0253 13.9668 49.0027 13.8672 48.7969 13.7939C48.5912 13.7206 48.3967 13.6981 47.9342 13.7488C47.4698 13.8014 47.1414 13.9555 46.4788 14.0532C45.8143 14.1509 45.3952 14.1941 44.6193 14.2373C43.8416 14.2805 43.4074 14.2787 42.5938 14.2674C41.7802 14.2542 41.3497 14.2054 40.5512 14.1734C39.7508 14.1415 39.3506 14.0945 38.5955 14.1039C37.8404 14.1114 37.4817 14.0964 36.7776 14.2167C36.0754 14.335 35.7375 14.3951 35.0767 14.6976C34.416 15.002 34.0989 15.2106 33.474 15.7329C32.8473 16.2571 32.549 16.5971 31.9468 17.3111C31.3428 18.0251 31.0388 18.4666 30.4574 19.3046C29.8741 20.1406 29.5702 20.663 29.0322 21.4972C28.4923 22.3314 28.1864 22.803 27.7617 23.4737C27.3369 24.1445 27.0764 24.4282 26.9084 24.849C26.7404 25.2718 26.8461 25.4784 26.9198 25.5855C26.9953 25.6945 27.1444 25.6701 27.2822 25.3882C27.42 25.1064 27.4578 24.8171 27.6088 24.1783C27.7617 23.5376 27.8202 23.0491 28.0467 22.1886C28.2714 21.3281 28.4602 20.7964 28.7395 19.8757C29.0189 18.9551 29.2153 18.4459 29.4418 17.5854C29.6683 16.723 29.825 16.2965 29.8703 15.5694C29.9156 14.8423 29.9156 14.4778 29.6702 13.9517C29.4229 13.4238 29.1813 13.172 28.6414 12.9334C28.1034 12.6948 27.7447 12.7117 26.9783 12.7587C26.21 12.8056 25.7758 12.9372 24.8055 13.1683C23.8352 13.3994 23.2726 13.5778 22.1286 13.916C20.9847 14.2542 20.3164 14.4722 19.0837 14.8592C17.8491 15.2463 17.1601 15.4924 15.9595 15.8494C14.757 16.2045 14.1095 16.413 13.075 16.6404C12.0405 16.8677 11.5195 16.9015 10.7851 16.9861C10.0508 17.0706 9.80538 17.0124 9.40518 17.0687C9.00309 17.1232 8.92191 17.1251 8.77844 17.2623C8.63309 17.3994 8.55758 17.5629 8.67839 17.7526Z" fill="black" stroke="black"/>
<path d="M155.387 6.21088C155.219 6.4307 155.166 6.71253 155.11 7.31376C155.055 7.91687 155.13 8.33773 155.11 9.22266C155.087 10.1076 155.07 10.6976 155.004 11.7384C154.938 12.7774 154.894 13.3787 154.779 14.4195C154.664 15.4604 154.585 15.9996 154.432 16.9409C154.279 17.8822 154.196 18.3595 154.013 19.1242C153.83 19.8907 153.656 20.2289 153.514 20.77C153.375 21.3093 153.339 21.5047 153.312 21.8259C153.286 22.1472 153.352 22.2318 153.382 22.3783C153.412 22.5249 153.416 22.5004 153.465 22.5587C153.516 22.6169 153.545 22.6695 153.633 22.6695C153.722 22.6714 153.782 22.6827 153.909 22.5643C154.034 22.446 154.122 22.3821 154.264 22.0758C154.404 21.7696 154.485 21.5892 154.611 21.0331C154.736 20.475 154.77 20.088 154.889 19.2933C155.006 18.4966 155.074 18.0119 155.204 17.0556C155.334 16.0973 155.413 15.5562 155.544 14.5078C155.672 13.4576 155.742 12.8545 155.85 11.8079C155.959 10.7614 156.016 10.1677 156.087 9.27339C156.159 8.37907 156.238 7.95069 156.21 7.34006C156.184 6.72756 156.114 6.4401 155.95 6.21464C155.785 5.98918 155.555 5.99105 155.387 6.21088Z" fill="black" stroke="black"/>
<path d="M153.643 5.99667C153.856 5.93279 153.915 5.74678 154.158 5.48187C154.404 5.21883 154.487 5.04034 154.864 4.67584C155.242 4.31135 155.442 3.9957 156.044 3.66127C156.648 3.32684 157.075 3.17841 157.881 3.00368C158.685 2.82894 159.195 2.77821 160.071 2.78385C160.946 2.79136 161.46 2.83646 162.258 3.03561C163.059 3.23289 163.485 3.41514 164.069 3.77776C164.65 4.14037 164.892 4.39213 165.171 4.84869C165.453 5.30337 165.52 5.51756 165.47 6.05491C165.419 6.59226 165.317 6.89851 164.916 7.53544C164.518 8.17049 164.173 8.5688 163.476 9.23579C162.779 9.9009 162.262 10.2729 161.434 10.8629C160.605 11.4528 160.076 11.7234 159.331 12.1818C158.585 12.6402 158.132 12.7492 157.705 13.1569C157.28 13.5646 157.179 13.8314 157.201 14.2204C157.224 14.6074 157.379 14.8347 157.817 15.0959C158.255 15.3571 158.643 15.3552 159.389 15.5243C160.135 15.6915 160.658 15.7216 161.543 15.9376C162.428 16.1556 162.981 16.2683 163.818 16.6102C164.652 16.9522 165.113 17.1833 165.719 17.6474C166.325 18.1096 166.57 18.3933 166.842 18.9287C167.116 19.4642 167.172 19.7235 167.08 20.3228C166.987 20.9203 166.87 21.2604 166.381 21.918C165.892 22.5756 165.498 22.9607 164.637 23.6089C163.776 24.2571 163.176 24.5991 162.077 25.159C160.98 25.7189 160.308 25.9988 159.147 26.4046C157.985 26.8086 157.328 26.9796 156.269 27.1825C155.21 27.3835 154.647 27.4267 153.852 27.4117C153.058 27.3967 152.729 27.2558 152.297 27.1017C151.864 26.9495 151.763 26.9044 151.689 26.6433C151.615 26.3821 151.691 26.2468 151.932 25.794C152.174 25.3393 152.327 24.9955 152.895 24.3755C153.465 23.7555 153.888 23.3647 154.779 22.6921C155.672 22.0213 156.248 21.6437 157.356 21.018C158.464 20.3905 159.121 20.0767 160.322 19.5619C161.522 19.0452 162.185 18.8066 163.363 18.4346C164.541 18.0645 165.143 17.916 166.213 17.7075C167.282 17.4989 167.82 17.4351 168.707 17.3918C169.594 17.3505 170.006 17.3824 170.648 17.4933C171.289 17.606 171.514 17.7545 171.918 17.9536C172.324 18.1546 172.469 18.243 172.673 18.4947C172.879 18.7465 172.9 18.8912 172.943 19.2124C172.987 19.5337 172.941 19.7254 172.894 20.1011C172.845 20.4769 172.788 20.7118 172.7 21.0913C172.611 21.4708 172.503 21.6775 172.45 22.0006C172.396 22.3219 172.358 22.5004 172.432 22.7071C172.507 22.9119 172.641 23.0152 172.824 23.0284C173.005 23.0415 173.141 22.9927 173.343 22.7747C173.545 22.5568 173.659 22.3858 173.832 21.9386C174.006 21.4915 173.981 21.1307 174.214 20.537C174.444 19.9433 174.616 19.5694 174.988 18.9738C175.359 18.3801 175.605 18.0682 176.071 17.5666C176.537 17.063 176.809 16.8263 177.319 16.4618C177.829 16.0954 178.121 15.947 178.62 15.7403C179.118 15.5318 179.367 15.4923 179.813 15.4228C180.256 15.3533 180.464 15.3458 180.843 15.389C181.223 15.4322 181.389 15.4848 181.708 15.637C182.025 15.7892 182.176 15.9019 182.431 16.148C182.684 16.3942 182.78 16.5351 182.975 16.8676C183.169 17.2021 183.252 17.4163 183.399 17.8183C183.549 18.2204 183.624 18.4365 183.713 18.878C183.802 19.3214 183.803 19.5619 183.845 20.0297C183.888 20.4994 183.885 20.77 183.926 21.219C183.968 21.67 183.998 21.8935 184.056 22.2806C184.115 22.6676 184.124 22.8555 184.215 23.1561C184.306 23.4567 184.364 23.6164 184.511 23.7837C184.659 23.9509 184.811 23.9678 184.951 23.9922C185.091 24.0166 185.149 23.9509 185.208 23.9039C185.264 23.8569 185.204 23.81 185.236 23.7592C185.266 23.7066 185.31 23.7235 185.363 23.6446C185.414 23.5657 185.482 23.5112 185.493 23.3647C185.506 23.2181 185.444 23.1524 185.421 22.9081C185.4 22.6658 185.402 22.5079 185.385 22.1509C185.37 21.794 185.363 21.5741 185.344 21.1251C185.325 20.6761 185.334 20.4111 185.293 19.9039C185.249 19.3966 185.24 19.1072 185.13 18.5887C185.019 18.0682 184.938 17.7977 184.742 17.3073C184.547 16.8169 184.434 16.5652 184.151 16.1387C183.868 15.7122 183.711 15.5055 183.328 15.171C182.944 14.8385 182.707 14.6769 182.238 14.474C181.768 14.2711 181.512 14.2147 180.985 14.1546C180.456 14.0964 180.168 14.07 179.597 14.1734C179.025 14.2767 178.718 14.3895 178.133 14.6732C177.545 14.955 177.236 15.1579 176.668 15.59C176.099 16.0222 175.816 16.2871 175.29 16.8338C174.763 17.3824 174.499 17.7112 174.038 18.3294C173.577 18.9475 173.358 19.3252 172.988 19.9245C172.617 20.5257 172.365 20.8188 172.182 21.3318C171.999 21.8428 172.005 22.119 172.073 22.4854C172.141 22.8518 172.286 23.0265 172.522 23.1618C172.758 23.297 172.992 23.297 173.257 23.1618C173.521 23.0265 173.664 22.8367 173.845 22.4835C174.029 22.1322 174.08 21.8654 174.17 21.4032C174.261 20.9391 174.31 20.6629 174.302 20.165C174.295 19.6671 174.287 19.389 174.129 18.9137C173.968 18.4365 173.855 18.1791 173.506 17.7864C173.156 17.3937 172.93 17.1889 172.382 16.9522C171.833 16.7155 171.507 16.6628 170.759 16.6027C170.013 16.5407 169.587 16.5558 168.65 16.6497C167.714 16.7436 167.174 16.8301 166.079 17.0724C164.984 17.3148 164.377 17.4745 163.178 17.8616C161.979 18.2486 161.311 18.491 160.084 19.0095C158.857 19.5262 158.192 19.8381 157.043 20.4506C155.893 21.065 155.298 21.4238 154.337 22.0796C153.375 22.7353 152.907 23.0791 152.233 23.7329C151.557 24.3849 151.234 24.7043 150.962 25.3412C150.69 25.9781 150.677 26.3877 150.873 26.9176C151.068 27.4474 151.343 27.7292 151.94 27.9866C152.538 28.244 152.965 28.229 153.858 28.2008C154.751 28.1726 155.306 28.0843 156.406 27.8457C157.507 27.6071 158.166 27.4267 159.361 27.0077C160.554 26.5888 161.235 26.3145 162.377 25.7527C163.521 25.1928 164.144 24.8696 165.077 24.2008C166.009 23.5338 166.466 23.1636 167.042 22.414C167.618 21.6662 167.837 21.2341 167.959 20.4581C168.08 19.6821 167.99 19.2331 167.65 18.5323C167.31 17.8334 166.955 17.5046 166.259 16.9578C165.562 16.4111 165.056 16.1969 164.167 15.7986C163.28 15.4021 162.717 15.2575 161.817 14.9719C160.916 14.6882 160.391 14.5492 159.661 14.3725C158.932 14.1941 158.564 14.1114 158.166 14.0851C157.769 14.0607 157.635 14.2598 157.677 14.2429C157.718 14.2241 157.941 14.2617 158.372 13.9987C158.802 13.7375 159.115 13.4237 159.825 12.9315C160.535 12.4373 161.071 12.1461 161.917 11.5299C162.764 10.9136 163.306 10.551 164.059 9.84829C164.813 9.14749 165.213 8.76045 165.687 8.0183C166.162 7.27804 166.368 6.87408 166.432 6.14134C166.495 5.40671 166.378 4.98021 166.004 4.3508C165.628 3.72139 165.262 3.43017 164.554 2.99616C163.848 2.56402 163.363 2.4062 162.47 2.18826C161.575 1.97031 161.037 1.93461 160.084 1.91019C159.13 1.88764 158.609 1.92334 157.703 2.07177C156.797 2.21832 156.31 2.32917 155.553 2.64669C154.796 2.96609 154.409 3.22162 153.916 3.66503C153.424 4.10655 153.256 4.42971 153.092 4.85997C152.927 5.28834 152.986 5.58144 153.095 5.80878C153.207 6.03612 153.429 6.06243 153.643 5.99667Z" fill="black" stroke="black"/>
<path d="M187.813 7.61436C187.889 7.73461 187.962 7.70643 187.938 7.56739C187.911 7.42836 187.758 7.03944 187.683 6.91919C187.607 6.79895 187.532 6.82713 187.558 6.96804C187.585 7.10707 187.738 7.49412 187.813 7.61436Z" fill="black" stroke="black"/>
<path d="M196.166 5.35036C195.951 5.64721 195.896 6.12444 195.647 6.98119C195.4 7.83606 195.249 8.41475 194.926 9.63224C194.601 10.8497 194.377 11.6952 194.026 13.0705C193.676 14.4458 193.478 15.1936 193.176 16.5088C192.872 17.8259 192.695 18.5041 192.51 19.6502C192.323 20.7982 192.234 21.3431 192.245 22.243C192.257 23.143 192.262 23.5601 192.566 24.15C192.868 24.74 193.174 25.0124 193.759 25.1928C194.345 25.3751 194.743 25.33 195.492 25.0575C196.242 24.7851 196.633 24.5164 197.507 23.8325C198.383 23.1486 198.866 22.6752 199.87 21.6418C200.874 20.6084 201.437 19.9583 202.526 18.6638C203.615 17.3712 204.244 16.5896 205.314 15.1729C206.383 13.7544 206.936 12.939 207.872 11.5768C208.809 10.2128 209.284 9.49508 210 8.35462C210.713 7.21229 211.044 6.68997 211.446 5.86892C211.848 5.04974 212.037 4.72095 212.01 4.25311C211.982 3.78528 211.716 3.53352 211.31 3.52976C210.902 3.52412 210.549 3.66879 209.979 4.22869C209.409 4.7867 209.107 5.29212 208.456 6.32172C207.802 7.35133 207.383 8.04837 206.715 9.37859C206.047 10.7088 205.647 11.5111 205.111 12.9691C204.576 14.4289 204.299 15.2537 204.038 16.6741C203.776 18.0964 203.7 18.831 203.802 20.0786C203.902 21.3261 204.061 21.9161 204.542 22.9138C205.024 23.9114 205.397 24.3567 206.211 25.0707C207.025 25.7865 207.574 26.0533 208.612 26.4911C209.649 26.927 210.266 27.0547 211.399 27.2539C212.533 27.453 213.218 27.4643 214.277 27.485C215.338 27.5075 215.907 27.4718 216.699 27.3629C217.492 27.2539 217.951 27.1224 218.242 26.9439C218.534 26.7654 218.481 26.5381 218.157 26.4685C217.832 26.4009 217.392 26.5474 216.618 26.6001C215.846 26.6545 215.308 26.7428 214.287 26.7372C213.267 26.7316 212.599 26.7466 211.514 26.5737C210.43 26.4009 209.845 26.2713 208.869 25.8748C207.893 25.4765 207.393 25.2304 206.636 24.5859C205.879 23.9415 205.539 23.562 205.084 22.6507C204.629 21.7395 204.463 21.2078 204.359 20.0316C204.253 18.8555 204.308 18.1453 204.559 16.77C204.81 15.3946 205.077 14.5792 205.616 13.1569C206.156 11.7347 206.56 10.9399 207.259 9.66042C207.957 8.38093 208.422 7.71206 209.109 6.75949C209.794 5.80504 210.223 5.4349 210.691 4.89567C211.159 4.35645 211.319 4.20426 211.45 4.05959C211.58 3.91304 211.468 3.86607 211.342 4.16856C211.216 4.47106 211.178 4.79046 210.817 5.57206C210.457 6.35554 210.206 6.93046 209.539 8.07843C208.873 9.22828 208.401 9.94976 207.482 11.3119C206.562 12.676 206.011 13.4895 204.943 14.8949C203.874 16.3002 203.242 17.0743 202.141 18.3388C201.042 19.6032 200.463 20.2402 199.443 21.2172C198.426 22.1923 197.905 22.6282 197.052 23.22C196.197 23.8137 195.781 23.964 195.173 24.1801C194.567 24.3962 194.375 24.3887 194.016 24.3022C193.656 24.2158 193.58 24.1632 193.376 23.7461C193.172 23.329 193.046 23.0171 192.997 22.2167C192.948 21.4163 192.984 20.8583 193.135 19.7442C193.286 18.6281 193.452 17.9442 193.752 16.6403C194.05 15.3383 194.262 14.5924 194.63 13.2265C195 11.8624 195.245 11.0245 195.594 9.81636C195.944 8.60639 196.149 8.04461 196.376 7.18035C196.604 6.31608 196.772 5.86328 196.731 5.49691C196.687 5.13053 196.383 5.0535 196.166 5.35036Z" fill="black" stroke="black"/>
</g>
<defs>
<clipPath id="clip0_537_59">
<rect width="219" height="35" fill="white"/>
</clipPath>
</defs>
</svg>
