<svg width="110" height="30" viewBox="0 0 110 30" fill="none" xmlns="http://www.w3.org/2000/svg">
<path fill-rule="evenodd" clip-rule="evenodd" d="M2.79808 0H19.5865C21.1022 0 22.3846 1.28906 22.3846 2.8125V27.1875C22.3846 28.7695 21.1022 30 19.5865 30H2.79808C1.22416 30 0 28.7695 0 27.1875V2.8125C0 1.28906 1.22416 0 2.79808 0ZM13.9904 1.875H8.39423C7.86959 1.875 7.46154 2.34375 7.46154 2.8125C7.46154 3.33984 7.86959 3.75 8.39423 3.75H13.9904C14.4567 3.75 14.9231 3.33984 14.9231 2.8125C14.9231 2.34375 14.4567 1.875 13.9904 1.875ZM15.296 20.444C15.5394 20.3601 15.787 20.2747 16.0414 20.1902C16.1102 20.1674 16.1802 20.1414 16.2506 20.1152C16.5971 19.9864 16.953 19.8541 17.2202 20.081C17.5953 20.4087 17.6489 20.9547 17.3274 21.3369C15.8271 23.1933 13.5767 24.2308 11.2191 24.2308C8.80794 24.2308 6.55752 23.1933 5.05725 21.3369C4.73576 20.9547 4.78934 20.4087 5.16441 20.081C5.49111 19.8432 5.78776 19.9645 6.16828 20.12C6.22463 20.143 6.28281 20.1668 6.3432 20.1902C6.64939 20.2887 6.94272 20.3883 7.22884 20.4855C8.52971 20.9273 9.68187 21.3187 11.2191 21.3187C12.759 21.3187 13.966 20.9025 15.296 20.444ZM8.6472 13.7473C8.6472 14.7301 7.84348 15.4945 6.93259 15.4945C5.96813 15.4945 5.21799 14.7301 5.21799 13.7473C5.21799 12.819 5.96813 12 6.93259 12C7.84348 12 8.6472 12.819 8.6472 13.7473ZM17.2202 13.7473C17.2202 14.7301 16.4165 15.4945 15.5056 15.4945C14.5411 15.4945 13.791 14.7301 13.791 13.7473C13.791 12.819 14.5411 12 15.5056 12C16.4165 12 17.2202 12.819 17.2202 13.7473Z" fill="#94A3B8"/>
<path d="M41.3723 21.4431C41.6272 21.4431 41.8339 21.2364 41.8339 20.9815V8.81537C41.8339 8.56047 41.6272 8.35383 41.3723 8.35383H39.3785C39.1236 8.35383 38.9169 8.56046 38.9169 8.81537V15.9041C38.9169 16.0204 38.7644 16.0636 38.7034 15.9647L34.1414 8.57297C34.0573 8.43676 33.9087 8.35383 33.7486 8.35383H30.9231C30.6682 8.35383 30.4615 8.56046 30.4615 8.81537V20.9815C30.4615 21.2364 30.6682 21.4431 30.9231 21.4431H32.8985C33.1534 21.4431 33.36 21.2364 33.36 20.9815V13.2414C33.36 13.1256 33.5117 13.082 33.5732 13.1802L38.6151 21.2266C38.6995 21.3613 38.8473 21.4431 39.0062 21.4431H41.3723Z" fill="#94A3B8"/>
<path d="M47.6616 19.1354C46.6093 19.1354 45.594 18.3784 45.594 16.8461C45.594 15.2954 46.6093 14.5754 47.6616 14.5754C48.7324 14.5754 49.7293 15.2954 49.7293 16.8461C49.7293 18.3969 48.7324 19.1354 47.6616 19.1354ZM47.6616 11.9908C44.9293 11.9908 42.7878 14.0031 42.7878 16.8461C42.7878 19.6892 44.9293 21.72 47.6616 21.72C50.4124 21.72 52.5355 19.6892 52.5355 16.8461C52.5355 14.0031 50.4124 11.9908 47.6616 11.9908Z" fill="#94A3B8"/>
<path d="M63.1388 8.53844C63.1388 8.28354 62.9321 8.0769 62.6772 8.0769H60.8311C60.5762 8.0769 60.3695 8.28354 60.3695 8.53844V12.8282C60.3695 12.8744 60.3049 12.895 60.2751 12.8596C59.9807 12.5099 59.286 12.0461 57.8957 12.0461C55.2926 12.0461 53.4465 14.0954 53.4465 16.8277C53.4465 19.6523 55.4034 21.6461 57.988 21.6461C59.0232 21.6461 59.8972 21.243 60.3538 20.6778C60.3823 20.6424 60.4446 20.662 60.4462 20.7075C60.4505 20.8279 60.4592 20.9475 60.4693 21.0552C60.4905 21.2798 60.6826 21.4431 60.9082 21.4431H62.7072C62.9786 21.4431 63.1905 21.2103 63.1737 20.9394C63.1555 20.6472 63.1388 20.2571 63.1388 19.8V8.53844ZM56.2711 16.8461C56.2711 15.3138 57.2495 14.5754 58.3388 14.5754C59.428 14.5754 60.4065 15.3138 60.4065 16.8461C60.4065 18.36 59.428 19.1354 58.3388 19.1354C57.2495 19.1354 56.2711 18.36 56.2711 16.8461Z" fill="#94A3B8"/>
<path d="M71.6927 21.72C74.8237 21.72 76.7714 19.856 77.4904 17.7987C77.5713 17.5674 77.4367 17.3219 77.2039 17.2457L76.0377 16.8641C75.7912 16.7834 75.5288 16.9229 75.4283 17.162C74.881 18.4636 73.6671 19.5969 71.6927 19.5969C69.4588 19.5969 67.3542 17.9723 67.3542 14.9077C67.3542 11.7323 69.5142 10.1631 71.6742 10.1631C73.6444 10.1631 74.8277 11.1876 75.3306 12.5442C75.4245 12.7977 75.6973 12.9506 75.9535 12.8644L77.1563 12.46C77.3857 12.3828 77.5185 12.1408 77.441 11.9115C76.7286 9.80414 74.7962 8.0769 71.6742 8.0769C68.2773 8.0769 65.0834 10.6431 65.0834 14.9077C65.0834 19.1723 68.1665 21.72 71.6927 21.72Z" fill="#94A3B8"/>
<path d="M78.3612 19.0061C78.3612 20.4277 79.5242 21.72 81.4073 21.72C82.8658 21.72 83.7519 20.9815 84.1766 20.2984C84.1766 20.6554 84.1947 20.9262 84.2153 21.1152C84.2367 21.3127 84.4029 21.4431 84.6015 21.4431H85.6997C85.991 21.4431 86.216 21.1753 86.19 20.8852C86.1691 20.6513 86.1519 20.3529 86.1519 20.0031V15.5354C86.1519 13.7446 85.0996 12.1754 82.3304 12.1754C80.3097 12.1754 78.9648 13.3273 78.618 14.7065C78.5608 14.9337 78.7181 15.1498 78.9465 15.2015L79.9945 15.4388C80.2647 15.4999 80.5222 15.3069 80.6184 15.0471C80.8603 14.3946 81.4435 13.9292 82.3489 13.9292C83.5304 13.9292 84.0473 14.5384 84.0473 15.2954C84.0473 15.6092 83.8996 15.8677 83.3827 15.9415L81.075 16.2923C79.5427 16.5138 78.3612 17.4 78.3612 19.0061ZM81.8135 20.04C80.9642 20.04 80.5027 19.4861 80.5027 18.8769C80.5027 18.1384 81.0381 17.7692 81.7027 17.6584L84.0473 17.3077V17.7138C84.0473 19.4677 83.0135 20.04 81.8135 20.04Z" fill="#94A3B8"/>
<path d="M92.6177 12.7753C92.6177 12.5553 92.4622 12.3633 92.2427 12.3484C92.1807 12.3442 92.1144 12.3415 92.0453 12.3415C90.8638 12.3415 89.8669 12.9138 89.4423 13.8923V12.9138C89.4423 12.6589 89.2356 12.4523 88.9807 12.4523H87.8177C87.5628 12.4523 87.3561 12.6589 87.3561 12.9138V20.9815C87.3561 21.2364 87.5628 21.4431 87.8177 21.4431H89.0361C89.291 21.4431 89.4977 21.2364 89.4977 20.9815V17.16C89.4977 15.48 90.2546 14.52 91.9161 14.52C91.9705 14.52 92.0261 14.5211 92.0825 14.5233C92.3651 14.5345 92.6177 14.3203 92.6177 14.0374V12.7753Z" fill="#94A3B8"/>
<path d="M94.6014 16.92C94.6014 15.2031 95.6353 14.1138 97.0383 14.1138C98.4414 14.1138 99.4014 15.1846 99.4014 16.9015C99.4014 18.6184 98.4229 19.7815 97.0199 19.7815C95.5614 19.7815 94.6014 18.6369 94.6014 16.92ZM101.469 8.53844C101.469 8.28354 101.262 8.0769 101.008 8.0769H99.8445C99.5896 8.0769 99.3829 8.28354 99.3829 8.53844V13.5046C99.106 12.9323 98.3122 12.2123 96.7429 12.2123C94.2137 12.2123 92.4599 14.3354 92.4599 16.92C92.4599 19.6338 94.1952 21.6646 96.7799 21.6646C98.0537 21.6646 98.9952 21.0369 99.4199 20.28C99.4199 20.5041 99.4403 20.8099 99.4646 21.061C99.4861 21.283 99.6743 21.4431 99.8974 21.4431H101.039C101.316 21.4431 101.533 21.1995 101.512 20.9226C101.49 20.6251 101.469 20.2307 101.469 19.8V8.53844Z" fill="#94A3B8"/>
<path d="M102.928 18.9013C102.71 18.9618 102.565 19.1727 102.629 19.3897C102.926 20.3982 103.996 21.72 106.261 21.72C108.55 21.72 109.658 20.2061 109.658 18.84C109.658 17.5108 108.772 16.4769 107.073 16.1077L105.707 15.8308C105.153 15.72 104.803 15.3692 104.803 14.8892C104.803 14.3354 105.338 13.8554 106.095 13.8554C106.945 13.8554 107.388 14.2728 107.6 14.6999C107.724 14.9507 107.996 15.1346 108.265 15.0577L109.169 14.7993C109.395 14.7349 109.54 14.51 109.465 14.2874C109.164 13.3862 108.262 12.1754 106.095 12.1754C104.23 12.1754 102.79 13.5046 102.79 15.0738C102.79 16.3108 103.621 17.3446 105.209 17.6954L106.538 17.9908C107.258 18.1384 107.59 18.5077 107.59 18.9877C107.59 19.5415 107.129 20.0215 106.243 20.0215C105.359 20.0215 104.795 19.5926 104.549 19.0233C104.435 18.7589 104.159 18.56 103.882 18.6369L102.928 18.9013Z" fill="#94A3B8"/>
</svg>
